<svg xmlns="http://www.w3.org/2000/svg" viewBox="0 0 120.33 101.63"><defs><style>.a{fill:#ef7e48;opacity:0.85;}.b{fill:#fff;}</style></defs><title>ArrowLeft2</title><path class="a" d="M32.69.18C1.47,1.77-6.17,64.09,4.61,77.53c36.15,45.06,59.75,12.92,78.65,13.91,7.83.41,33.1-7.08,36.08-20.58,3.85-17.45-3.72-47.17-18.95-52.49C63.33,5.4,59.39-1.19,32.69.18Z"/><path class="b" d="M34.68,50.77a4,4,0,0,0,1,2.68L65.36,86.17a4,4,0,0,0,5.92-5.36l-27.21-30,27.2-29.95a4,4,0,1,0-5.91-5.37L35.72,48.09A4,4,0,0,0,34.68,50.77Z"/></svg>