<svg xmlns="http://www.w3.org/2000/svg" viewBox="0 0 120.33 101.63"><defs><style>.a{fill:#ef7e48;opacity:0.85;}.b{fill:#fff;}</style></defs><title>ArrowRight2</title><path class="a" d="M87.64.18c31.22,1.6,38.87,63.91,28.08,77.35C79.56,122.59,56,90.45,37.07,91.43,29.23,91.84,4,84.35,1,70.85-2.86,53.4,4.71,23.68,19.94,18.36,57,5.4,60.94-1.19,87.64.18Z"/><path class="b" d="M85.65,50.77a4,4,0,0,1-1,2.68L55,86.17a4,4,0,0,1-5.92-5.36l27.21-30L49.05,20.83A4,4,0,1,1,55,15.46L84.61,48.09A4,4,0,0,1,85.65,50.77Z"/></svg>