<svg xmlns="http://www.w3.org/2000/svg" viewBox="0 0 789.22 158.51"><title>Chat gourmand</title><path d="M30.2,0h.5A4,4,0,0,1,33,4v.15q0,8.11-10,32.07Q19.12,45.67,8.11,62.35,6,64.48,6,66.31v.46Q6,69,9,73.62a9.62,9.62,0,0,0,6.59,3h1.94q4-.23,11.65-4.42,6.74-6.06,9.45-9,1.9-2.32,3.31-2.32h.53a2.62,2.62,0,0,1,1.79,2.4Q43.76,66,32.91,75q-8.49,6.13-17,6.13Q4.46,81.12.65,68.52A32.87,32.87,0,0,1,0,64.67,46.88,46.88,0,0,1,3.81,46.62q0-1.45,2.51-6.7A141.48,141.48,0,0,1,17.63,14.17q4.49-7.62,4.8-7.62a26,26,0,0,0,2.25-3.69A7.23,7.23,0,0,1,30.2,0ZM5.75,56.9a1.81,1.81,0,0,1,.11.8l-.11.19H5.41Q6.63,56.6,12,47.23,17.33,38.09,24.11,20q3-9.86,3-12Q27,6.67,27,7.24h.8q-1.18,0-8,13.22-5.45,10.32-12,29.1Q6.59,53.32,5.75,56.9Z"/><path d="M58.23,48.33h.69q5.6.76,5.6,4.23-.84,4.88-8.84,10.05a114,114,0,0,1-11.81,4,.42.42,0,0,0-.23.34v.15q1.6,5.29,5,7.24a16.63,16.63,0,0,0,8.07,1.87h1.37q15.08,0,27.88-12.87,1.9-3.43,3.66-3.43h.15q1.64,0,2.51,2.25-1.07,4.23-13,12.95-12.15,5.45-18.78,5.45-.72,0-4.08.3-3.31,0-10.25-2.55a27.09,27.09,0,0,1-6.47-7.2q-.84,0-1.49-5,0-2.78,4.34-9.37,6.55-6.17,10.47-7A11.72,11.72,0,0,1,58.23,48.33ZM45.17,61.51c0-.05-.17-.08-.5-.08h.15q2.21,0,8.19-2.78,5.79-4.34,5.79-5.71c0-.18-.14-.27-.42-.27H58q-7.5,1.87-11.27,6.51Q45.17,61.05,45.17,61.51Z"/><path d="M145.18,50.27q4.26,0,7,5v.57A2.18,2.18,0,0,1,150.36,58q-1.37,0-4.23-3a4.4,4.4,0,0,0-1.41-.46H143.2q-3.58,0-9.64,5.48a16.62,16.62,0,0,0-3.28,9.25q0,5.33,8.42,9.33a24.61,24.61,0,0,0,6.51,1.14,37.69,37.69,0,0,0,16.83-4.42,58.12,58.12,0,0,0,13.1-13.37q0-.88,2.09-1.26h.69a1.92,1.92,0,0,1,2.17,2.17q0,2.21-11.54,13.33-4.76,4.8-14.74,6.93-.46.15-4,.61V84l.88-.42H150a37.07,37.07,0,0,1-5,.61,22.67,22.67,0,0,1-13.06-4Q125,74.92,125,69.35a22.34,22.34,0,0,1,1.75-7.69q2.86-6.17,11.62-10.25A18.4,18.4,0,0,1,145.18,50.27Z"/><path d="M207.61,7.46h.34q3.35.38,3.35,3.24,0,7.58-11.58,27.31a171.45,171.45,0,0,1-12.42,16.87q-8.46,10.25-8.46,11.58a38.39,38.39,0,0,0-1.22,8q.11.46-.34.46h-.08q1.37-1.33,3.85-6.28Q185,64,189,64q5.26,0,8.8,9.45,2.4,5.45,4.84,6.47a4,4,0,0,0,1.75.38h.91q3.58,0,8.11-4.53a37,37,0,0,0,5-9.25q1.41-5.86,3.85-5.87,2.44.23,2.44,2.44-1.52,7.43-7.5,15.84a16.3,16.3,0,0,1-12.8,6q-8.11,0-12.15-11.24-2.55-4.76-3.35-4.76a1,1,0,0,0-.34-.15h-.15q-3.62,0-8.38,13l-1.41,7.69a6,6,0,0,1-2.09,1.22q-3,0-3.39-5.56a54.66,54.66,0,0,1-.61-5.56q0-14.13,3.88-21.79,12.72-30.24,19-38.39A69.49,69.49,0,0,1,203,9.71Q205.59,7.46,207.61,7.46ZM184.79,51.76a.59.59,0,0,0-.65-.57q.76,0,6.09-8a103.58,103.58,0,0,0,11.92-19.8,58.2,58.2,0,0,0,3.73-9.9v-.15q.08.15-.11.15-.38,0-5.14,6.74-8.53,12.49-8.53,14.17-5.45,11.46-7.31,16.83Z"/><path d="M236.36,49.7l2.06.08a6.43,6.43,0,0,1,6.28,4,80.14,80.14,0,0,1,2,8.61A10.14,10.14,0,0,0,256.78,69q6.89,0,15.23-8a11.45,11.45,0,0,1,2.36-.38q1.79.84,1.79,2.17,0,1.94-3.69,4.57a30.22,30.22,0,0,1-12.64,6.28q-1.68.15-2.59.15h-.61q-10.21,0-14.74-9.25l-.3-.19A49.88,49.88,0,0,1,239.14,69q-5.75,7.73-12.53,7.73h-.15q-5.18,0-7.88-5.79A9.59,9.59,0,0,1,218,68q.23-6.66,6.55-13.37A17,17,0,0,1,236.36,49.7ZM223,67.22q0,3.85,3.31,4.84h.76q5.41,0,11-11.62a17.73,17.73,0,0,0,1.6-5.26v-.91a6.94,6.94,0,0,1-2.36,0q-8-.15-12.53,8A8.78,8.78,0,0,0,223,67.22Z"/><path d="M296.65,8.46q2.09,0,3.28,3.73H300l-.42-.88q0,5.29-4.49,17.71a.37.37,0,0,0-.08.19c0-.05.2-.06.61,0q5,0,25.56-6.09h1.1q2.74.23,2.74,2.48,0,2.44-9.56,4.27-15.65,4.46-20.34,4.46-2.74,0-4,4.68A180.34,180.34,0,0,1,281,58.69q-3.66,5.07-3.66,6.47v.53l.34,1.79q1.64,5,7.43,11.62a12.38,12.38,0,0,0,7.58,2.78h.46A19,19,0,0,0,305,77.47a24.33,24.33,0,0,0,8.23-8.65q2.89-5.86,4.19-7.27a2.91,2.91,0,0,1,1.52-.53h.23q2.4.5,2.4,2.63-1.14,3.77-6.89,12.19a37.57,37.57,0,0,1-8.23,6.93q-6.59,3.62-12,3.62h-2.44q-8.76,0-13.86-8-4.88-5.14-6.86-15.16a6.37,6.37,0,0,1-.19-1.79h-.42l.42.88V58.46a2.42,2.42,0,0,1,0-.65,1.28,1.28,0,0,1,0-.46q.15-3.35-.27-3.35l.42.88q0-4.57,4.91-17.29a3.88,3.88,0,0,0,.11-1.07v-.3q0,.31-.65.19-2.7.15-3.54.3-1.75-.15-3.08-.15H265q-3.43-.8-3.43-2.17v-.3q0-.91,2.44-2,.31,0,2.17.15,8.11-.46,8.68-.46h2q1.94,0,4.19-5.6a46.51,46.51,0,0,0,3.69-6.51A6.57,6.57,0,0,0,286.52,17q6-8.57,9.06-8.57Zm-19.8,47.46-.42-.88v1.64q0-.23-.46-.23.8-.42,4.15-6.21,3-5.64,6.74-14.05v-.42c0-.18,0-.27-.11-.27H286q-3.81.27-3.81,1.37-5.79,13.67-5.79,17Q276.43,55.91,276.85,55.91ZM285,30.7v0c-.05-.13.09-.19.42-.19q3.58,0,4.15-1.52A128.81,128.81,0,0,0,294,15.2c0,.13,0,.19-.08.19h.3Q286.67,24.76,285,30.7Z"/><path d="M350.77,53q6.28,0,8.49,5.6,4.19,8,7.12,12.68l.5.3a41.2,41.2,0,0,0,3.81-3.69,31.12,31.12,0,0,1,13.22-7.54,23,23,0,0,1,2.89-.5q2.4.57,2.4,2.63,0,1.91-7.54,3.66-3.5,1.07-9.79,7.2-2,2.29-2,2.86v.46q0,.91,2.89,5.67,0,.84,6.32,13.56a40.36,40.36,0,0,1,2.78,9.33A43.44,43.44,0,0,1,384,119.06q-.61,13.25-1.56,16.49-1.49,7.62-3.12,10.74a81,81,0,0,1-6.74,9.56,17.83,17.83,0,0,1-9,2.67q-7.12,0-12.57-5.79-1.79-1.91-6.28-11.58a34.31,34.31,0,0,1-1.9-11.62q0-3.35,1.9-11.84.46-.61,1-5.29a165.15,165.15,0,0,1,12.19-28q5-7.77,5-8.34v-.19q-.46-2.17-4.72-7.85h.69L357,73.09q-3.73,7.77-5.75,8.53a10.41,10.41,0,0,1-6.09,1.94h-.76q-5.94,0-9.83-6.4a6.56,6.56,0,0,1-.72-3.24v-.76q0-10.09,9.56-18A15.71,15.71,0,0,1,350.77,53ZM339.08,71.94v.3q0,4.57,3,6.36a4.37,4.37,0,0,0,2.4.61H345q4.68,0,7.35-8.49.69-.88,1.45-6.13-.61-6.93-2.29-6.93,0-.3-.57-.3H350q-4,0-8.19,6.25Q339.08,68.36,339.08,71.94Zm9,57.89q0,10.28,7.58,20.72a10.28,10.28,0,0,0,8.07,3.77q8.46,0,12.49-13.63a59.74,59.74,0,0,0,2.7-18.62q0-18.47-12.07-39.61-.69-1.33-.91-1.33-.8.15-5.94,10.13a187.1,187.1,0,0,0-8.15,19.39Q348.07,123.28,348.07,129.83Z"/><path d="M392.86,59.53q6.13,0,8,4.53a9.17,9.17,0,0,1,.69,3.43,20.29,20.29,0,0,1-.61,4.68q0,.46.72.46H404q11.92,0,26.28-11a6.56,6.56,0,0,1,3.28-1.22h.53a2.39,2.39,0,0,1,1.49,2.21q-.19,1.91-6.67,6.09A49.59,49.59,0,0,1,401,77.43a11.76,11.76,0,0,0-1.6-.15q-.76,0-2.59,2.82Q391.94,86,386,86h-1.37q-5.18,0-7.16-5.9a13.9,13.9,0,0,1-.19-2.36v-.76q0-9.6,10-16.26A17.77,17.77,0,0,1,392.86,59.53ZM381.93,77q0,3.31,2.51,4.38a2.7,2.7,0,0,0,1.26.23q3.81,0,7.66-5.37l.08-.46A29,29,0,0,0,390,74a10.38,10.38,0,0,1-4.46-6.13l.27.15h-.19q-1.1.5-3.35,6.4Q382.23,74.5,381.93,77Zm8.84-9.67q0,1.83,3.16,3.58a4,4,0,0,0,1.68.65h.15a25.79,25.79,0,0,0,.72-3.85q0-3.39-2.67-3.39Q390.76,64.63,390.76,67.34Z"/><path d="M433.49,59.34h.27q2.4.5,2.4,2.48v1.07q-1.94,5.87-3.69,7.46a16.29,16.29,0,0,0-2.4,7.77q0,1.64,2.4,1.64,7.2,0,19.77-11.35a5,5,0,0,1,2.36-2q2.89-2.74,6.25-6.59h1.56q2.25.31,2.25,2.32v.3q0,1.26-3.73,5.07-5.71,7-5.71,12.3,0,1.64,2.4,1.64,7.2,0,19.77-11.35a5,5,0,0,1,2.36-2q2.89-2.74,6.25-6.59h1.56q2.25.31,2.25,2.32v.3q0,1.26-3.73,5a22.55,22.55,0,0,1-5,4.57q-14,12.83-23.61,12.83-7.35,0-7.35-6.89a11.24,11.24,0,0,1,.27-2.78q-9.9,8-17.9,8-7.5,0-7.5-6.89,0-3,2.06-8.76,4.65-9.56,4.8-9.56Q431.82,59.41,433.49,59.34Z"/><path d="M506.62,50.73a2.35,2.35,0,0,1,2.25,2.51,59.82,59.82,0,0,1-4.08,6.51q-5.07,11.58-5.07,17.33.38,6.55,3.92,8.19a2.25,2.25,0,0,0,1.07.34h.61q3.81,0,10-5,4.53-4.49,10.78-14.36,2.32-5.22,4.76-5.22,2.36.65,2.36,2.48V64q-.65,2.13-7.77,12.57-3.62,6-12,11.69a22.79,22.79,0,0,1-8.19,2.29H505q-5.79,0-9.52-7.24a14.41,14.41,0,0,1-.88-5.75,37.31,37.31,0,0,1,3.73-15.42l1-3.16v-.76a.57.57,0,0,0,.65.65h-.3q-1.71,0-6.51,2.06a17.54,17.54,0,0,0-4.87,3.24q-2.93-.34-3.5-2.67l1.41-2.29q.8-.91,4.34-2.36a124.75,124.75,0,0,0,14.7-6.13Z"/><path d="M532.78,58.23q2.06.46,2.06,1.56v.46q0,.69-3,6.47a28.83,28.83,0,0,0-1.75,5v-.5q-.61,0,2.59-2.86,3.54-2.32,5.6-2.32h1.52q5.07,0,6.82,6.63,0-.08-.42-.08h-.15a21.84,21.84,0,0,0,2.32-3.35q3.58-3,7-3,4.68,0,7.69,5.37a15.7,15.7,0,0,0,3.54,4.42q4.91,3.47,7.2,3.47h.46q6.4,0,12.15-5.71a27,27,0,0,0,7-7.81Q596,61,598.18,61h.15q1.68,0,2.36,2.21-1.75,4.72-8.07,11.73-9.6,9.14-16.38,9.14h-2.13q-6.59,0-13.71-7.35-3.73-5.9-4.87-5.9h-.3q-3.2,0-6,7.77-2.59,5.94-3.69,5.94l-.76.15q-3,0-3.31-7.88-.76-6-2.29-6,0-.3-.11-.3h-.15q-3.58,0-13.9,14.89-2.06,2.17-3.16,2.17h-.23a2.41,2.41,0,0,1-2.4-2.63,186.16,186.16,0,0,1,9.67-23Q530.61,58.23,532.78,58.23Z"/><path d="M612.92,49.7l2.06.08a6.43,6.43,0,0,1,6.28,4,80,80,0,0,1,2,8.61A10.14,10.14,0,0,0,633.33,69q6.89,0,15.23-8a11.45,11.45,0,0,1,2.36-.38q1.79.84,1.79,2.17,0,1.94-3.69,4.57a30.22,30.22,0,0,1-12.64,6.28q-1.68.15-2.59.15h-.61q-10.21,0-14.74-9.25l-.3-.19A49.72,49.72,0,0,1,615.7,69q-5.75,7.73-12.53,7.73H603q-5.18,0-7.88-5.79A9.59,9.59,0,0,1,594.6,68q.23-6.66,6.55-13.37A17,17,0,0,1,612.92,49.7ZM599.55,67.22q0,3.85,3.31,4.84h.76q5.41,0,11-11.62a17.73,17.73,0,0,0,1.6-5.26v-.91a6.94,6.94,0,0,1-2.36,0q-8-.15-12.53,8A8.78,8.78,0,0,0,599.55,67.22Z"/><path d="M710.61,60.29h.88a2.73,2.73,0,0,1,1.6,2.32v.27Q711.26,70,703.37,79q-6.13,6-9.75,6.67a29,29,0,0,1-8.76,1.87q-9.56,0-12.95-9.18Q668.56,68,668,67a2.46,2.46,0,0,0-1.56-.84h-.72q-3.39,0-7,4.84Q656.41,73.51,647,86.84a3.85,3.85,0,0,1-2.4,1.41h-.3q-2,0-2.51-2.67a214.78,214.78,0,0,1,6.55-23.42,3.54,3.54,0,0,1,2.7-1.71,3.36,3.36,0,0,1,2,1.68v1.26a110.36,110.36,0,0,0-2.89,10.78v1a.59.59,0,0,0-.65-.57h-.19a83.25,83.25,0,0,0,6-7.43q4.76-5.67,10.05-5.67H666q6,0,8.07,7.08,3.58,11.81,5.33,12.19a8,8,0,0,0,5.79,2.06h.15q7.2,0,14.21-7.16,6.74-8,7.73-12.49Q708.82,60.29,710.61,60.29Z"/><path d="M750.14,12.53q4.61,0,4.61,4.72.15,0,.15,1.29-.61,7.85-1.07,11.16,0-.88.15-.88,0,7.58-8.91,33.33-3.43,6.59-3.43,7.69v.27q2.44,6.4,12,6.55H755q15.08,0,27.88-12.87,1.9-3.43,3.66-3.43h.15q1.64,0,2.51,2.25-1.07,4.23-13,12.95Q764.08,81,757.45,81q-.72,0-4.08.3-3,0-9.86-2.36a20.59,20.59,0,0,1-4.84-4.19q.61.27-.5,1.56a24.45,24.45,0,0,1-14.4,9.52,11.37,11.37,0,0,1-5.18.8q-10.85.23-14.62-10.44a6.11,6.11,0,0,1-.19-1.49V73q.15-6.89,7.58-14.51,4.88-4,13.44-5l3.88.19q2.48.65,7.24,1.94-3.69,3.16-3-.19,0-.15-.15-1.71a68.84,68.84,0,0,1,4.8-23.12l4.76-9.94A23,23,0,0,1,748,12.91,8.61,8.61,0,0,1,750.14,12.53ZM708.89,73q0,6.48,6.89,9a16,16,0,0,0,2.32.27q9-.57,16.19-9.48a9.25,9.25,0,0,0,1.18-3,65,65,0,0,1-2.29-10.13s-1-.15-2.89-.38a6.2,6.2,0,0,0-3.62-1q-11.92,0-17.37,11.84A16.38,16.38,0,0,0,708.89,73Zm29.4-24.76q0-.88.15-.88,0,1.41-.46,7.35.8,8.34.88,8.34.3,0,1-2Q743,55,748.88,31.46l.76-13q-.15-.49.19-.5-1.33.38-7,13.14A70.19,70.19,0,0,0,738.3,48.29Z"/></svg>