<svg xmlns="http://www.w3.org/2000/svg" xmlns:xlink="http://www.w3.org/1999/xlink" viewBox="0 0 1174.1 837.36"><defs><style>.a{fill:none;}.b{clip-path:url(#a);}.c{fill:#fff3e9;}</style><clipPath id="a"><path class="a" d="M440.57,117.83c-135.89,19-347.79,166.89-279.59,354C213.55,616,356.25,699.45,511.57,684.06c212-21,225.67-170,332.42-203s321.4-60.26,259-243.33C1019.46-7.53,527.57,105.68,440.57,117.83Z"/></clipPath></defs><title>Deco4</title><g class="b"><path class="c" d="M847.64,287.4a30.64,30.64,0,0,1,2.25,4.42c-.52.76-.92,1.59-1.39,2.37l-2.7,4.79-2.7,4.79-1.35,2.39a36.55,36.55,0,0,1-4.91.39,36.61,36.61,0,0,1-2.21-4.4l1.35-2.4,2.7-4.79,2.7-4.79c.44-.81.94-1.58,1.32-2.41a30.39,30.39,0,0,1,4.95-.37"/><path class="c" d="M782.11,291.1a30.68,30.68,0,0,1,4.85,1.66c.23,1,.58,1.94.87,2.91l1.81,5.79,1.81,5.79.91,2.9a36.36,36.36,0,0,1-3,4.12,36.25,36.25,0,0,1-4.81-1.68l-.91-2.9-1.81-5.79L780,298.11c-.32-1-.56-1.94-.95-2.89a30.54,30.54,0,0,1,3-4.13"/><path class="c" d="M714.73,262a30.68,30.68,0,0,1,4.85,1.66c.22,1,.58,1.94.87,2.91l1.81,5.79,1.81,5.79.91,2.9a36.36,36.36,0,0,1-3,4.12,36.61,36.61,0,0,1-4.81-1.68l-.91-2.9-1.81-5.79L712.65,269c-.32-1-.56-1.94-.95-2.89a30.54,30.54,0,0,1,3-4.13"/><path class="c" d="M602.67,287.21a30.68,30.68,0,0,1,4.85,1.66c.23,1,.58,1.94.87,2.91l1.81,5.8,1.81,5.79.91,2.9a36.36,36.36,0,0,1-3,4.12,36.61,36.61,0,0,1-4.81-1.68l-.91-2.9L602.4,300l-1.82-5.79c-.32-1-.56-1.94-.95-2.89a30.74,30.74,0,0,1,3-4.13"/><path class="c" d="M863.46,213.48a30.69,30.69,0,0,1,4.85,1.66c.23,1,.58,1.94.87,2.91l1.81,5.8,1.81,5.79.91,2.9a36.59,36.59,0,0,1-3,4.12,36.46,36.46,0,0,1-4.81-1.68l-.91-2.9-1.81-5.79-1.82-5.79c-.32-1-.56-1.94-.95-2.89a30.74,30.74,0,0,1,3-4.13"/><path class="c" d="M907.57,270.7a30.69,30.69,0,0,1,4.85,1.66c.23,1,.58,1.94.87,2.91l1.81,5.79,1.81,5.79.91,2.9a36.59,36.59,0,0,1-3,4.12A36.1,36.1,0,0,1,910,292.2l-.91-2.9-1.81-5.79-1.82-5.79c-.32-1-.56-1.94-.95-2.89a30.74,30.74,0,0,1,3-4.13"/><path class="c" d="M1127.45,360.24a30.45,30.45,0,0,1,2.25,4.42c-.52.76-.92,1.59-1.39,2.37l-2.7,4.79-2.7,4.79-1.35,2.39a36.55,36.55,0,0,1-4.91.39,36.51,36.51,0,0,1-2.21-4.4l1.35-2.39,2.7-4.79,2.7-4.79c.44-.81.94-1.58,1.32-2.41a30.39,30.39,0,0,1,4.95-.37"/><path class="c" d="M972.61,242.72a30.48,30.48,0,0,1,2.25,4.42c-.52.76-.92,1.58-1.39,2.37l-2.7,4.79-2.7,4.79-1.35,2.39a36.12,36.12,0,0,1-4.91.39,36.19,36.19,0,0,1-2.21-4.4l1.35-2.4,2.7-4.79,2.7-4.79c.44-.81.94-1.58,1.32-2.41a30.39,30.39,0,0,1,4.95-.37"/><path class="c" d="M1003.76,272.29a30.69,30.69,0,0,1,4.85,1.66c.23,1,.58,1.94.87,2.91l1.81,5.79,1.81,5.79.91,2.9a36.59,36.59,0,0,1-3,4.12,36.1,36.1,0,0,1-4.81-1.68l-.91-2.9-1.81-5.79-1.82-5.79c-.32-1-.56-1.94-.95-2.89a30.54,30.54,0,0,1,3-4.13"/><path class="c" d="M1061.93,363.94a30.69,30.69,0,0,1,4.85,1.66c.23,1,.58,1.94.87,2.91l1.81,5.79,1.81,5.79.91,2.9a36.35,36.35,0,0,1-3,4.12,36.61,36.61,0,0,1-4.81-1.68l-.91-2.9-1.81-5.79-1.82-5.79c-.32-1-.56-1.94-.95-2.89a30.54,30.54,0,0,1,3-4.13"/><path class="c" d="M994.55,334.86a30.69,30.69,0,0,1,4.85,1.66c.23,1,.58,1.94.87,2.91l1.81,5.79,1.81,5.79.91,2.9a36.35,36.35,0,0,1-3,4.12,36.61,36.61,0,0,1-4.81-1.68l-.91-2.9-1.81-5.79-1.82-5.79c-.32-1-.56-1.94-.95-2.89a30.54,30.54,0,0,1,3-4.13"/><path class="c" d="M1073.07,285.56a30.69,30.69,0,0,1,4.85,1.66c.23,1,.58,1.94.87,2.91l1.81,5.79,1.81,5.79.91,2.9a36.59,36.59,0,0,1-3,4.12,36.1,36.1,0,0,1-4.81-1.68l-.91-2.9-1.81-5.79-1.82-5.79c-.32-1-.56-1.94-.95-2.89a30.74,30.74,0,0,1,3-4.13"/><path class="c" d="M1143.27,286.32a30.69,30.69,0,0,1,4.85,1.66c.23,1,.58,1.94.87,2.91l1.81,5.79,1.81,5.79.91,2.9a36.59,36.59,0,0,1-3,4.12,36.46,36.46,0,0,1-4.81-1.68l-.91-2.9-1.81-5.79-1.82-5.79c-.32-1-.56-1.94-.95-2.89a30.74,30.74,0,0,1,3-4.13"/><path class="c" d="M1106.6,210.61a30.69,30.69,0,0,1,4.85,1.66c.23,1,.58,1.94.87,2.91l1.81,5.79,1.81,5.79.91,2.9a36.59,36.59,0,0,1-3,4.12,36.46,36.46,0,0,1-4.81-1.68l-.91-2.9-1.81-5.79-1.82-5.79c-.32-1-.56-1.94-.95-2.89a30.54,30.54,0,0,1,3-4.13"/><path class="c" d="M899.56,221.54a30.69,30.69,0,0,1,4.85,1.66c.23,1,.58,1.94.87,2.91l1.81,5.79,1.81,5.79.91,2.9a36.59,36.59,0,0,1-3,4.12A36.1,36.1,0,0,1,902,243l-.91-2.9-1.81-5.79-1.82-5.79c-.32-1-.56-1.94-.95-2.89a30.74,30.74,0,0,1,3-4.13"/><path class="c" d="M1041.66,235.22a30.52,30.52,0,0,1-3.74-3.59c.2-1,.27-2.07.4-3.1l.73-6.21.73-6.21.36-3.1a37,37,0,0,1,4.42-2.63,36.74,36.74,0,0,1,3.7,3.58l-.37,3.1-.73,6.21-.73,6.21c-.1,1-.28,2.07-.32,3.11a30.79,30.79,0,0,1-4.47,2.62"/><path class="c" d="M360.54,555.61a30.63,30.63,0,0,1,2.25,4.42c-.52.76-.92,1.59-1.39,2.37l-2.7,4.79L356,572l-1.35,2.39a36.55,36.55,0,0,1-4.91.39,36.61,36.61,0,0,1-2.21-4.4l1.35-2.4,2.7-4.79,2.7-4.79c.44-.81.94-1.58,1.32-2.41a30.39,30.39,0,0,1,4.95-.37"/><path class="c" d="M545.92,518.51a30.68,30.68,0,0,1,4.85,1.66c.23,1,.58,1.94.87,2.91l1.81,5.79,1.81,5.79.91,2.9a36.6,36.6,0,0,1-3,4.12,36.1,36.1,0,0,1-4.81-1.68l-.91-2.9-1.81-5.79-1.82-5.79c-.32-1-.56-1.94-.95-2.89a30.54,30.54,0,0,1,3-4.13"/><path class="c" d="M491.18,543.18a30.53,30.53,0,0,1-3.74-3.59c.2-1,.27-2.07.4-3.1l.73-6.21.73-6.21.36-3.1a37.14,37.14,0,0,1,4.42-2.63,37,37,0,0,1,3.7,3.58l-.37,3.1-.73,6.21-.73,6.21c-.1,1-.28,2.07-.32,3.11a30.79,30.79,0,0,1-4.47,2.62"/><path class="c" d="M678.93,373.33a30.63,30.63,0,0,1,2.25,4.42c-.52.76-.92,1.59-1.39,2.37l-2.7,4.79-2.7,4.79L673,392.1a36.55,36.55,0,0,1-4.91.39,36.51,36.51,0,0,1-2.21-4.4l1.35-2.39,2.7-4.79,2.7-4.79c.44-.81.94-1.58,1.32-2.41a30.39,30.39,0,0,1,4.95-.37"/><path class="c" d="M566.3,432.27a30.56,30.56,0,0,1,2.25,4.42c-.52.76-.92,1.58-1.39,2.37l-2.7,4.79-2.7,4.79L560.41,451a36.12,36.12,0,0,1-4.91.39,36.19,36.19,0,0,1-2.21-4.4l1.35-2.4,2.7-4.79,2.7-4.79c.44-.81.94-1.58,1.32-2.41a30.39,30.39,0,0,1,4.95-.37"/><path class="c" d="M575,323.93a30.47,30.47,0,0,1,2.25,4.42c-.52.76-.92,1.58-1.39,2.37l-2.7,4.79-2.7,4.79-1.35,2.39a36.12,36.12,0,0,1-4.91.39,36.61,36.61,0,0,1-2.21-4.4l1.35-2.4,2.7-4.79,2.7-4.79c.44-.81.94-1.58,1.32-2.41a30.39,30.39,0,0,1,4.95-.37"/><path class="c" d="M709.88,432.75a30.56,30.56,0,0,1,2.25,4.42c-.52.76-.92,1.58-1.39,2.37l-2.7,4.79-2.7,4.79L704,451.52a36.12,36.12,0,0,1-4.91.39,36.61,36.61,0,0,1-2.21-4.4l1.35-2.4,2.7-4.79,2.7-4.79c.44-.81.94-1.58,1.32-2.41a30.39,30.39,0,0,1,4.95-.37"/><path class="c" d="M675.59,502.64a30.56,30.56,0,0,1,2.25,4.42c-.52.76-.92,1.58-1.39,2.37l-2.7,4.79-2.7,4.79-1.35,2.39a36.52,36.52,0,0,1-4.91.39,36.77,36.77,0,0,1-2.21-4.4l1.35-2.4,2.7-4.79,2.7-4.79c.44-.81.94-1.58,1.32-2.41a30.39,30.39,0,0,1,4.95-.37"/><path class="c" d="M930.6,358.58a30.57,30.57,0,0,1,2.25,4.42c-.52.76-.92,1.58-1.39,2.37l-2.7,4.79-2.7,4.79-1.35,2.39a36.12,36.12,0,0,1-4.91.39,36.61,36.61,0,0,1-2.21-4.4l1.35-2.4,2.7-4.79,2.7-4.79c.44-.81.94-1.58,1.32-2.41a30.39,30.39,0,0,1,4.95-.37"/><path class="c" d="M986.15,379.13a30.57,30.57,0,0,1,2.25,4.42c-.52.76-.92,1.58-1.39,2.37l-2.7,4.79-2.7,4.79-1.35,2.39a36.12,36.12,0,0,1-4.91.39,36.61,36.61,0,0,1-2.21-4.4l1.35-2.4,2.7-4.79,2.7-4.79c.44-.81.94-1.58,1.32-2.41a30.39,30.39,0,0,1,4.95-.37"/><path class="c" d="M1077.54,420.13a30.48,30.48,0,0,1,2.25,4.42c-.52.76-.92,1.58-1.39,2.37l-2.7,4.79-2.7,4.79-1.35,2.39a36.55,36.55,0,0,1-4.91.39,36.51,36.51,0,0,1-2.21-4.4l1.35-2.39,2.7-4.79,2.7-4.79c.44-.81.94-1.58,1.32-2.41a30.39,30.39,0,0,1,4.95-.37"/><path class="c" d="M1163.85,402.2a30.68,30.68,0,0,1,4.85,1.66c.23,1,.58,1.94.87,2.91l1.81,5.79,1.81,5.79.91,2.9a36.59,36.59,0,0,1-3,4.12,36.46,36.46,0,0,1-4.81-1.68l-.91-2.9-1.81-5.79-1.82-5.79c-.32-1-.56-1.94-.95-2.89a30.74,30.74,0,0,1,3-4.13"/><path class="c" d="M1007.46,433.16a30.68,30.68,0,0,1,4.85,1.66c.23,1,.58,1.94.87,2.91l1.81,5.79,1.81,5.79.91,2.9a36.59,36.59,0,0,1-3,4.12,36.46,36.46,0,0,1-4.81-1.68l-.91-2.9-1.81-5.79-1.82-5.79c-.32-1-.56-1.94-.95-2.89a30.54,30.54,0,0,1,3-4.13"/><path class="c" d="M751.26,393a30.68,30.68,0,0,1,4.85,1.66c.23,1,.58,1.94.87,2.91l1.81,5.79,1.81,5.79.91,2.9a36.6,36.6,0,0,1-3,4.12,36.1,36.1,0,0,1-4.81-1.68l-.91-2.9L751,405.77,749.17,400c-.32-1-.56-1.94-.95-2.89a30.74,30.74,0,0,1,3-4.13"/><path class="c" d="M695.67,305.15a30.68,30.68,0,0,1,4.85,1.66c.22,1,.58,1.94.87,2.91l1.81,5.79,1.81,5.79.91,2.9a36.36,36.36,0,0,1-3,4.12,36.25,36.25,0,0,1-4.81-1.68l-.91-2.9L695.4,318l-1.81-5.79c-.32-1-.56-1.94-.95-2.89a30.54,30.54,0,0,1,3-4.13"/><path class="c" d="M611.22,339.77a30.68,30.68,0,0,1,4.85,1.66c.23,1,.58,1.94.87,2.91l1.81,5.79,1.81,5.79.91,2.9a36.36,36.36,0,0,1-3,4.12,36.25,36.25,0,0,1-4.81-1.68l-.91-2.9-1.81-5.79-1.82-5.79c-.32-1-.56-1.94-.95-2.89a30.74,30.74,0,0,1,3-4.13"/><path class="c" d="M619.48,414.38a30.68,30.68,0,0,1,4.85,1.66c.22,1,.58,1.94.87,2.91l1.81,5.79,1.81,5.79.91,2.9a36.36,36.36,0,0,1-3,4.12,36.25,36.25,0,0,1-4.81-1.68L621,433l-1.81-5.79-1.82-5.79c-.32-1-.56-1.94-.95-2.89a30.54,30.54,0,0,1,3-4.13"/><path class="c" d="M922.73,417.22a30.68,30.68,0,0,1,4.85,1.66c.23,1,.58,1.94.87,2.91l1.81,5.79,1.81,5.79.91,2.9a36.59,36.59,0,0,1-3,4.12,36.46,36.46,0,0,1-4.81-1.68l-.91-2.9L922.45,430l-1.81-5.79c-.32-1-.56-1.94-.95-2.89a30.54,30.54,0,0,1,3-4.13"/><path class="c" d="M809.58,470.53a30.68,30.68,0,0,1,4.85,1.66c.23,1,.58,1.94.87,2.91l1.81,5.79,1.81,5.79.91,2.9a36.36,36.36,0,0,1-3,4.12A36.61,36.61,0,0,1,812,492l-.91-2.9-1.81-5.79-1.82-5.79c-.32-1-.56-1.94-.95-2.89a30.54,30.54,0,0,1,3-4.13"/><path class="c" d="M864.31,336.22a30.69,30.69,0,0,1,4.85,1.66c.23,1,.58,1.94.87,2.91l1.81,5.79,1.81,5.79.91,2.9a36.59,36.59,0,0,1-3,4.12,36.46,36.46,0,0,1-4.81-1.68l-.91-2.9L864,349l-1.82-5.79c-.32-1-.56-1.94-.95-2.89a30.74,30.74,0,0,1,3-4.13"/><path class="c" d="M966.57,472.73a30.68,30.68,0,0,1,4.85,1.66c.23,1,.58,1.94.87,2.91l1.81,5.79,1.81,5.79.91,2.9a36.59,36.59,0,0,1-3,4.12,36.46,36.46,0,0,1-4.81-1.68l-.91-2.9-1.81-5.79-1.82-5.79c-.32-1-.56-1.94-.95-2.89a30.54,30.54,0,0,1,3-4.13"/><path class="c" d="M602.54,481.46a30.68,30.68,0,0,1,4.85,1.66c.23,1,.58,1.94.87,2.91l1.81,5.79,1.81,5.79.91,2.9a36.6,36.6,0,0,1-3,4.12A36.46,36.46,0,0,1,605,503l-.91-2.9-1.81-5.79-1.82-5.79c-.32-1-.56-1.94-.95-2.89a30.54,30.54,0,0,1,3-4.13"/><path class="c" d="M809.57,360.9a30.53,30.53,0,0,1-3.74-3.59c.2-1,.27-2.07.4-3.1L807,348l.73-6.21.36-3.1a36.38,36.38,0,0,1,4.42-2.63,36.75,36.75,0,0,1,3.7,3.58l-.37,3.1-.73,6.21-.73,6.21c-.1,1-.28,2.07-.33,3.11a30.52,30.52,0,0,1-4.47,2.62"/><path class="c" d="M830.65,428.77a30.53,30.53,0,0,1-3.74-3.59c.2-1,.27-2.07.4-3.1l.73-6.21.73-6.21.36-3.1a37,37,0,0,1,4.42-2.63,37,37,0,0,1,3.7,3.58l-.37,3.1-.73,6.21-.73,6.21c-.1,1-.28,2.07-.32,3.11a30.79,30.79,0,0,1-4.47,2.62"/><path class="c" d="M170.21,414.88a30.68,30.68,0,0,1,4.85,1.66c.22,1,.58,1.94.87,2.91l1.82,5.79,1.81,5.79.91,2.9a36.36,36.36,0,0,1-3,4.12,36.61,36.61,0,0,1-4.81-1.68l-.91-2.9-1.82-5.79-1.81-5.79c-.32-1-.57-1.94-.95-2.89a30.54,30.54,0,0,1,3-4.13"/><path class="c" d="M269.54,317a30.56,30.56,0,0,1,2.25,4.42c-.52.76-.92,1.58-1.39,2.37l-2.7,4.79-2.7,4.79-1.35,2.39a36.12,36.12,0,0,1-4.91.39,36.61,36.61,0,0,1-2.21-4.4l1.35-2.4,2.7-4.79,2.7-4.79c.44-.81.94-1.58,1.32-2.41a30.39,30.39,0,0,1,4.95-.37"/><path class="c" d="M390.09,504.42a30.63,30.63,0,0,1,2.25,4.42c-.52.76-.92,1.59-1.39,2.37l-2.7,4.79-2.7,4.79-1.35,2.39a36.55,36.55,0,0,1-4.91.39,36.61,36.61,0,0,1-2.21-4.4l1.35-2.4,2.7-4.79,2.7-4.79c.44-.81.94-1.58,1.32-2.41a30.39,30.39,0,0,1,4.95-.37"/><path class="c" d="M471,402.52a30.63,30.63,0,0,1,2.25,4.42c-.52.76-.92,1.59-1.39,2.37l-2.7,4.79-2.7,4.79-1.35,2.39a36.12,36.12,0,0,1-4.91.39,36.61,36.61,0,0,1-2.21-4.4l1.35-2.4,2.7-4.79,2.7-4.79c.44-.81.94-1.58,1.32-2.41a30.39,30.39,0,0,1,4.95-.37"/><path class="c" d="M235.25,386.9a30.56,30.56,0,0,1,2.25,4.42c-.52.76-.92,1.58-1.39,2.37l-2.7,4.79-2.7,4.79-1.35,2.39a36.12,36.12,0,0,1-4.91.39,36.61,36.61,0,0,1-2.21-4.4l1.35-2.4,2.7-4.79,2.7-4.79c.44-.81.94-1.58,1.32-2.41a30.39,30.39,0,0,1,4.95-.37"/><path class="c" d="M775.1,250.47a30.63,30.63,0,0,1,2.25,4.42c-.52.76-.92,1.59-1.39,2.37l-2.7,4.79-2.7,4.79-1.35,2.39a36.55,36.55,0,0,1-4.91.39,36.61,36.61,0,0,1-2.21-4.4l1.35-2.4,2.7-4.79,2.7-4.79c.44-.81.94-1.58,1.32-2.41a30.39,30.39,0,0,1,4.95-.37"/><path class="c" d="M740.15,343.17a30.56,30.56,0,0,1,2.25,4.42c-.52.76-.92,1.58-1.39,2.37l-2.7,4.79-2.7,4.79-1.35,2.39a36.12,36.12,0,0,1-4.91.39,36.61,36.61,0,0,1-2.21-4.4l1.35-2.4,2.7-4.79,2.7-4.79c.44-.81.94-1.58,1.32-2.41a30.39,30.39,0,0,1,4.95-.37"/><path class="c" d="M266.39,416.47a30.68,30.68,0,0,1,4.85,1.66c.23,1,.58,1.94.87,2.91l1.81,5.79,1.81,5.79.91,2.9a36.36,36.36,0,0,1-3,4.12,36.61,36.61,0,0,1-4.81-1.68l-.91-2.9-1.81-5.79-1.82-5.79c-.32-1-.56-1.94-.95-2.89a30.54,30.54,0,0,1,3-4.13"/><path class="c" d="M324.56,508.12a30.68,30.68,0,0,1,4.85,1.66c.23,1,.58,1.94.87,2.91l1.81,5.79,1.81,5.79.91,2.9a36.6,36.6,0,0,1-3,4.12,36.1,36.1,0,0,1-4.81-1.68l-.91-2.9-1.81-5.79-1.82-5.79c-.32-1-.56-1.94-.95-2.89a30.74,30.74,0,0,1,3-4.13"/><path class="c" d="M257.19,479a30.68,30.68,0,0,1,4.85,1.66c.23,1,.58,1.94.87,2.91l1.81,5.79,1.81,5.79.91,2.9a36.6,36.6,0,0,1-3,4.12,36.46,36.46,0,0,1-4.81-1.68l-.91-2.9-1.81-5.79-1.82-5.79c-.32-1-.56-1.94-.95-2.89a30.74,30.74,0,0,1,3-4.13"/><path class="c" d="M335.71,429.74a30.68,30.68,0,0,1,4.85,1.66c.23,1,.58,1.94.87,2.91l1.81,5.79,1.81,5.79.91,2.9a36.36,36.36,0,0,1-3,4.12,36.61,36.61,0,0,1-4.81-1.68l-.91-2.9-1.81-5.79-1.82-5.79c-.32-1-.56-1.94-.95-2.89a30.74,30.74,0,0,1,3-4.13"/><path class="c" d="M405.91,430.51a30.68,30.68,0,0,1,4.85,1.66c.23,1,.58,1.94.87,2.91l1.81,5.79,1.81,5.79.91,2.9a36.6,36.6,0,0,1-3,4.12,36.46,36.46,0,0,1-4.81-1.68l-.91-2.9-1.81-5.79-1.82-5.79c-.32-1-.56-1.94-.95-2.89a30.54,30.54,0,0,1,3-4.13"/><path class="c" d="M482.38,301.48a30.68,30.68,0,0,1,4.85,1.66c.23,1,.58,1.94.87,2.91l1.81,5.79,1.81,5.79.91,2.9a36.6,36.6,0,0,1-3,4.12,36.46,36.46,0,0,1-4.81-1.68l-.91-2.9-1.81-5.79-1.82-5.79c-.32-1-.56-1.94-.95-2.89a30.74,30.74,0,0,1,3-4.13"/><path class="c" d="M450,487.72a30.68,30.68,0,0,1,4.85,1.66c.23,1,.58,1.94.87,2.91l1.81,5.79,1.81,5.79.91,2.9a36.6,36.6,0,0,1-3,4.12,36.1,36.1,0,0,1-4.81-1.68l-.91-2.9-1.81-5.79-1.82-5.79c-.32-1-.56-1.94-.95-2.89a30.54,30.54,0,0,1,3-4.13"/><path class="c" d="M502.78,426.94a30.68,30.68,0,0,1,4.85,1.66c.23,1,.58,1.94.87,2.91l1.81,5.79,1.81,5.79L513,446a36.6,36.6,0,0,1-3,4.12,36.46,36.46,0,0,1-4.81-1.68l-.91-2.9-1.81-5.79L500.69,434c-.32-1-.56-1.94-.95-2.89a30.74,30.74,0,0,1,3-4.13"/><path class="c" d="M369.24,354.79a30.68,30.68,0,0,1,4.85,1.66c.23,1,.58,1.94.87,2.91l1.81,5.79,1.81,5.79.91,2.9a36.36,36.36,0,0,1-3,4.12,36.61,36.61,0,0,1-4.81-1.68l-.91-2.9L369,367.61l-1.82-5.79c-.32-1-.56-1.94-.95-2.89a30.74,30.74,0,0,1,3-4.13"/><path class="c" d="M526.22,357a30.68,30.68,0,0,1,4.85,1.66c.23,1,.58,1.94.87,2.91l1.81,5.79,1.81,5.79.91,2.9a36.6,36.6,0,0,1-3,4.12,36.46,36.46,0,0,1-4.81-1.68l-.91-2.9-1.81-5.79L524.13,364c-.32-1-.56-1.94-.95-2.89a30.74,30.74,0,0,1,3-4.13"/><path class="c" d="M162.2,365.72a30.68,30.68,0,0,1,4.85,1.66c.23,1,.58,1.94.87,2.91l1.81,5.79,1.81,5.79.91,2.9a36.36,36.36,0,0,1-3,4.12,36.61,36.61,0,0,1-4.81-1.68l-.91-2.9-1.81-5.79-1.82-5.79c-.32-1-.56-1.94-.95-2.89a30.54,30.54,0,0,1,3-4.13"/><path class="c" d="M213,572.64a30.68,30.68,0,0,1,4.85,1.66c.23,1,.58,1.94.87,2.91l1.81,5.79,1.81,5.79.91,2.9a36.6,36.6,0,0,1-3,4.12,36.11,36.11,0,0,1-4.81-1.68l-.91-2.9-1.81-5.79-1.82-5.79c-.32-1-.56-1.94-.95-2.89a30.74,30.74,0,0,1,3-4.13"/><path class="c" d="M212.9,498.1a30.68,30.68,0,0,1,4.85,1.66c.23,1,.58,1.94.87,2.91l1.81,5.79,1.81,5.79.91,2.9a36.6,36.6,0,0,1-3,4.12,36.46,36.46,0,0,1-4.81-1.68l-.91-2.9-1.81-5.79-1.82-5.79c-.32-1-.56-1.94-.95-2.89a30.74,30.74,0,0,1,3-4.13"/><path class="c" d="M427.42,348.7a30.68,30.68,0,0,1,4.85,1.66c.23,1,.58,1.94.87,2.91l1.81,5.8,1.81,5.79.91,2.9a36.6,36.6,0,0,1-3,4.12,36.1,36.1,0,0,1-4.81-1.68l-.91-2.9-1.81-5.79-1.82-5.79c-.32-1-.56-1.94-.95-2.89a30.54,30.54,0,0,1,3-4.13"/><path class="c" d="M304.3,379.4a30.53,30.53,0,0,1-3.74-3.59c.2-1,.27-2.07.4-3.1l.73-6.21.73-6.21.36-3.1a36.61,36.61,0,0,1,4.42-2.63,36.75,36.75,0,0,1,3.7,3.58l-.37,3.1-.73,6.21-.73,6.21c-.1,1-.28,2.07-.32,3.11a30.79,30.79,0,0,1-4.47,2.62"/><path class="c" d="M390.3,313a30.53,30.53,0,0,1-3.74-3.59c.2-1,.27-2.07.4-3.1l.73-6.21.73-6.21.36-3.1a36.24,36.24,0,0,1,4.42-2.63,36.39,36.39,0,0,1,3.69,3.58l-.36,3.1-.73,6.21-.73,6.21c-.1,1-.28,2.07-.32,3.11A30.79,30.79,0,0,1,390.3,313"/><path class="c" d="M688.47,77a30.64,30.64,0,0,1,2.25,4.42c-.52.76-.92,1.59-1.39,2.37l-2.7,4.79-2.7,4.79-1.35,2.39a36.55,36.55,0,0,1-4.91.39,36.61,36.61,0,0,1-2.21-4.4l1.35-2.4,2.7-4.79,2.7-4.79c.44-.81.94-1.58,1.32-2.41a30.39,30.39,0,0,1,4.95-.37"/><path class="c" d="M622.95,80.72a30.68,30.68,0,0,1,4.85,1.66c.23,1,.58,1.94.87,2.91l1.81,5.79,1.81,5.79.91,2.9a36.36,36.36,0,0,1-3,4.12,36.25,36.25,0,0,1-4.81-1.68l-.91-2.9-1.81-5.79-1.82-5.79c-.32-1-.56-1.94-.95-2.89a30.54,30.54,0,0,1,3-4.13"/><path class="c" d="M555.57,51.64a30.68,30.68,0,0,1,4.85,1.66c.22,1,.58,1.94.87,2.91L563.1,62l1.81,5.79.91,2.9a36.36,36.36,0,0,1-3,4.12A36.61,36.61,0,0,1,558,73.15l-.91-2.9-1.81-5.79-1.82-5.79c-.32-1-.56-1.94-.95-2.89a30.54,30.54,0,0,1,3-4.13"/><path class="c" d="M494.8,73.64a30.68,30.68,0,0,1,4.85,1.66c.23,1,.58,1.94.87,2.91L502.33,84l1.81,5.79.91,2.9a36.6,36.6,0,0,1-3,4.12,36.46,36.46,0,0,1-4.81-1.68l-.91-2.9-1.81-5.79-1.82-5.79c-.32-1-.56-1.94-.95-2.89a30.54,30.54,0,0,1,3-4.13"/><path class="c" d="M443.51,76.83a30.68,30.68,0,0,1,4.85,1.66c.23,1,.58,1.94.87,2.91L451,87.2,452.85,93l.91,2.9a36.36,36.36,0,0,1-3,4.12A36.61,36.61,0,0,1,446,98.33l-.91-2.9-1.81-5.79-1.82-5.79c-.32-1-.56-1.94-.95-2.89a30.74,30.74,0,0,1,3-4.13"/><path class="c" d="M704.29,3.1a30.69,30.69,0,0,1,4.85,1.66c.23,1,.58,1.94.87,2.91l1.81,5.8,1.81,5.79.91,2.9a36.59,36.59,0,0,1-3,4.12,36.46,36.46,0,0,1-4.81-1.68l-.91-2.9L704,15.91l-1.82-5.79c-.32-1-.56-1.94-.95-2.89a30.74,30.74,0,0,1,3-4.13"/><path class="c" d="M748.41,60.32A30.69,30.69,0,0,1,753.25,62c.23,1,.58,1.94.87,2.91l1.81,5.79,1.81,5.79.91,2.9a36.59,36.59,0,0,1-3,4.12,36.1,36.1,0,0,1-4.81-1.68l-.91-2.9-1.81-5.79-1.82-5.79c-.32-1-.56-1.94-.95-2.89a30.74,30.74,0,0,1,3-4.13"/><path class="c" d="M968.29,149.86a30.45,30.45,0,0,1,2.25,4.42c-.52.76-.92,1.59-1.39,2.37l-2.7,4.79-2.7,4.79-1.35,2.39a36.55,36.55,0,0,1-4.91.39,36.51,36.51,0,0,1-2.21-4.4l1.35-2.39,2.7-4.79,2.7-4.79c.44-.81.94-1.58,1.32-2.41a30.39,30.39,0,0,1,4.95-.37"/><path class="c" d="M813.45,32.34a30.48,30.48,0,0,1,2.25,4.42c-.52.76-.92,1.58-1.39,2.37l-2.7,4.79-2.7,4.79-1.35,2.39a36.12,36.12,0,0,1-4.91.39,36.19,36.19,0,0,1-2.21-4.4l1.35-2.4,2.7-4.79,2.7-4.79c.44-.81.94-1.58,1.32-2.41a30.39,30.39,0,0,1,4.95-.37"/><path class="c" d="M844.59,61.91a30.69,30.69,0,0,1,4.85,1.66c.23,1,.58,1.94.87,2.91l1.81,5.79,1.81,5.79.91,2.9a36.59,36.59,0,0,1-3,4.12A36.1,36.1,0,0,1,847,83.41l-.91-2.9-1.81-5.79-1.82-5.79c-.32-1-.56-1.94-.95-2.89a30.54,30.54,0,0,1,3-4.13"/><path class="c" d="M902.76,153.55a30.69,30.69,0,0,1,4.85,1.66c.23,1,.58,1.94.87,2.91l1.81,5.79,1.81,5.79.91,2.9a36.35,36.35,0,0,1-3,4.12,36.61,36.61,0,0,1-4.81-1.68l-.91-2.9-1.81-5.79-1.82-5.79c-.32-1-.56-1.94-.95-2.89a30.54,30.54,0,0,1,3-4.13"/><path class="c" d="M835.39,124.48a30.69,30.69,0,0,1,4.85,1.66c.23,1,.58,1.94.87,2.91l1.81,5.79,1.81,5.79.91,2.9a36.35,36.35,0,0,1-3,4.12,36.61,36.61,0,0,1-4.81-1.68l-.91-2.9-1.81-5.79-1.82-5.79c-.32-1-.56-1.94-.95-2.89a30.54,30.54,0,0,1,3-4.13"/><path class="c" d="M913.91,75.17a30.69,30.69,0,0,1,4.85,1.66c.23,1,.58,1.94.87,2.91l1.81,5.79,1.81,5.79.91,2.9a36.59,36.59,0,0,1-3,4.12,36.1,36.1,0,0,1-4.81-1.68l-.91-2.9L913.64,88l-1.82-5.79c-.32-1-.56-1.94-.95-2.89a30.74,30.74,0,0,1,3-4.13"/><path class="c" d="M947.44.23a30.69,30.69,0,0,1,4.85,1.66c.23,1,.58,1.94.87,2.91L955,10.6l1.81,5.79.91,2.9a36.59,36.59,0,0,1-3,4.12,36.46,36.46,0,0,1-4.81-1.68l-.91-2.9L947.16,13l-1.82-5.79c-.32-1-.56-1.94-.95-2.89a30.54,30.54,0,0,1,3-4.13"/><path class="c" d="M740.4,11.16a30.69,30.69,0,0,1,4.85,1.66c.23,1,.58,1.94.87,2.91l1.81,5.79,1.81,5.79.91,2.9a36.59,36.59,0,0,1-3,4.12,36.1,36.1,0,0,1-4.81-1.68l-.91-2.9L740.12,24l-1.82-5.79c-.32-1-.56-1.94-.95-2.89a30.74,30.74,0,0,1,3-4.13"/><path class="c" d="M882.5,24.84a30.52,30.52,0,0,1-3.74-3.59c.2-1,.27-2.07.4-3.1l.73-6.21.73-6.21.36-3.1A37,37,0,0,1,885.42,0a36.74,36.74,0,0,1,3.7,3.58l-.37,3.1L888,12.9l-.73,6.21c-.1,1-.28,2.07-.32,3.11a30.79,30.79,0,0,1-4.47,2.62"/><path class="c" d="M201.37,345.23a30.63,30.63,0,0,1,2.25,4.42c-.52.76-.92,1.59-1.39,2.37l-2.7,4.79-2.7,4.79L195.48,364a36.55,36.55,0,0,1-4.91.39,36.61,36.61,0,0,1-2.21-4.4l1.35-2.4,2.7-4.79,2.7-4.79c.44-.81.94-1.58,1.32-2.41a30.39,30.39,0,0,1,4.95-.37"/><path class="c" d="M332,332.8a30.53,30.53,0,0,1-3.74-3.59c.2-1,.27-2.07.4-3.1l.73-6.21.73-6.21.36-3.1a37.14,37.14,0,0,1,4.42-2.63,37,37,0,0,1,3.7,3.58l-.37,3.1-.73,6.21-.73,6.21c-.1,1-.28,2.07-.32,3.11A30.79,30.79,0,0,1,332,332.8"/><path class="c" d="M519.77,162.94a30.63,30.63,0,0,1,2.25,4.42c-.52.76-.92,1.59-1.39,2.37l-2.7,4.79-2.7,4.79-1.35,2.39a36.55,36.55,0,0,1-4.91.39,36.51,36.51,0,0,1-2.21-4.4l1.35-2.39,2.7-4.79,2.7-4.79c.44-.81.94-1.58,1.32-2.41a30.39,30.39,0,0,1,4.95-.37"/><path class="c" d="M407.14,221.89a30.56,30.56,0,0,1,2.25,4.42c-.52.76-.92,1.58-1.39,2.37l-2.7,4.79-2.7,4.79-1.35,2.39a36.12,36.12,0,0,1-4.91.39,36.19,36.19,0,0,1-2.21-4.4l1.35-2.4,2.7-4.79,2.7-4.79c.44-.81.94-1.58,1.32-2.41a30.39,30.39,0,0,1,4.95-.37"/><path class="c" d="M415.87,113.55a30.47,30.47,0,0,1,2.25,4.42c-.52.76-.92,1.58-1.39,2.37l-2.7,4.79-2.7,4.79L410,132.32a36.12,36.12,0,0,1-4.91.39,36.61,36.61,0,0,1-2.21-4.4l1.35-2.4,2.7-4.79,2.7-4.79c.44-.81.94-1.58,1.32-2.41a30.39,30.39,0,0,1,4.95-.37"/><path class="c" d="M550.72,222.37a30.56,30.56,0,0,1,2.25,4.42c-.52.76-.92,1.58-1.39,2.37l-2.7,4.79-2.7,4.79-1.35,2.39a36.12,36.12,0,0,1-4.91.39,36.61,36.61,0,0,1-2.21-4.4l1.35-2.4,2.7-4.79,2.7-4.79c.44-.81.94-1.58,1.32-2.41a30.39,30.39,0,0,1,4.95-.37"/><path class="c" d="M516.43,292.26a30.56,30.56,0,0,1,2.25,4.42c-.52.76-.92,1.58-1.39,2.37l-2.7,4.79-2.7,4.79L510.54,311a36.52,36.52,0,0,1-4.91.39,36.77,36.77,0,0,1-2.21-4.4l1.35-2.4,2.7-4.79,2.7-4.79c.44-.81.94-1.58,1.32-2.41a30.39,30.39,0,0,1,4.95-.37"/><path class="c" d="M771.44,148.2a30.57,30.57,0,0,1,2.25,4.42c-.52.76-.92,1.58-1.39,2.37l-2.7,4.79-2.7,4.79L765.54,167a36.12,36.12,0,0,1-4.91.39,36.61,36.61,0,0,1-2.21-4.4l1.35-2.4,2.7-4.79,2.7-4.79c.44-.81.94-1.58,1.32-2.41a30.39,30.39,0,0,1,4.95-.37"/><path class="c" d="M827,168.75a30.57,30.57,0,0,1,2.25,4.42c-.52.76-.92,1.58-1.39,2.37l-2.7,4.79-2.7,4.79-1.35,2.39a36.12,36.12,0,0,1-4.91.39,36.61,36.61,0,0,1-2.21-4.4l1.35-2.4,2.7-4.79,2.7-4.79c.44-.81.94-1.58,1.32-2.41a30.39,30.39,0,0,1,4.95-.37"/><path class="c" d="M592.1,182.58a30.68,30.68,0,0,1,4.85,1.66c.23,1,.58,1.94.87,2.91l1.81,5.79,1.81,5.79.91,2.9a36.6,36.6,0,0,1-3,4.12,36.1,36.1,0,0,1-4.81-1.68l-.91-2.9-1.81-5.79L590,189.59c-.32-1-.56-1.94-.95-2.89a30.74,30.74,0,0,1,3-4.13"/><path class="c" d="M536.51,94.77a30.68,30.68,0,0,1,4.85,1.66c.22,1,.58,1.94.87,2.91l1.81,5.79,1.81,5.79.91,2.9a36.36,36.36,0,0,1-3,4.12,36.25,36.25,0,0,1-4.81-1.68l-.91-2.9-1.82-5.79-1.81-5.79c-.32-1-.56-1.94-.95-2.89a30.54,30.54,0,0,1,3-4.13"/><path class="c" d="M452.05,129.39a30.68,30.68,0,0,1,4.85,1.66c.23,1,.58,1.94.87,2.91l1.81,5.79,1.81,5.79.91,2.9a36.36,36.36,0,0,1-3,4.12,36.25,36.25,0,0,1-4.81-1.68l-.91-2.9-1.81-5.79L450,136.4c-.32-1-.56-1.94-.95-2.89a30.74,30.74,0,0,1,3-4.13"/><path class="c" d="M460.32,204a30.68,30.68,0,0,1,4.85,1.66c.22,1,.58,1.94.87,2.91l1.81,5.79,1.81,5.79.91,2.9a36.36,36.36,0,0,1-3,4.12,36.25,36.25,0,0,1-4.81-1.68l-.91-2.9L460,216.81,458.23,211c-.32-1-.56-1.94-.95-2.89a30.54,30.54,0,0,1,3-4.13"/><path class="c" d="M763.56,206.84a30.68,30.68,0,0,1,4.85,1.66c.23,1,.58,1.94.87,2.91l1.81,5.79,1.81,5.79.91,2.9a36.59,36.59,0,0,1-3,4.12,36.46,36.46,0,0,1-4.81-1.68l-.91-2.9-1.82-5.79-1.81-5.79c-.32-1-.56-1.94-.95-2.89a30.54,30.54,0,0,1,3-4.13"/><path class="c" d="M650.42,260.15a30.68,30.68,0,0,1,4.85,1.66c.23,1,.58,1.94.87,2.91l1.81,5.79,1.81,5.79.91,2.9a36.36,36.36,0,0,1-3,4.12,36.61,36.61,0,0,1-4.81-1.68l-.91-2.9L650.15,273l-1.82-5.79c-.32-1-.56-1.94-.95-2.89a30.54,30.54,0,0,1,3-4.13"/><path class="c" d="M705.15,125.84a30.69,30.69,0,0,1,4.85,1.66c.23,1,.58,1.94.87,2.91l1.81,5.79,1.81,5.79.91,2.9a36.59,36.59,0,0,1-3,4.12,36.46,36.46,0,0,1-4.81-1.68l-.91-2.9-1.81-5.79-1.82-5.79c-.32-1-.56-1.94-.95-2.89a30.74,30.74,0,0,1,3-4.13"/><path class="c" d="M807.4,262.35a30.68,30.68,0,0,1,4.85,1.66c.23,1,.58,1.94.87,2.91l1.81,5.79,1.81,5.79.91,2.9a36.59,36.59,0,0,1-3,4.12,36.46,36.46,0,0,1-4.81-1.68l-.91-2.9-1.81-5.79-1.82-5.79c-.32-1-.56-1.94-.95-2.89a30.54,30.54,0,0,1,3-4.13"/><path class="c" d="M443.38,271.08a30.68,30.68,0,0,1,4.85,1.66c.23,1,.58,1.94.87,2.91l1.81,5.79,1.81,5.79.91,2.9a36.6,36.6,0,0,1-3,4.12,36.46,36.46,0,0,1-4.81-1.68l-.91-2.9-1.81-5.79-1.82-5.79c-.32-1-.56-1.94-.95-2.89a30.54,30.54,0,0,1,3-4.13"/><path class="c" d="M708.6,254.06a30.68,30.68,0,0,1,4.85,1.66c.23,1,.58,1.94.87,2.91l1.81,5.79,1.81,5.79.91,2.9a36.59,36.59,0,0,1-3,4.12,36.46,36.46,0,0,1-4.81-1.68l-.91-2.9-1.81-5.79-1.82-5.79c-.32-1-.56-1.94-.95-2.89a30.54,30.54,0,0,1,3-4.13"/><path class="c" d="M585.48,284.76a30.53,30.53,0,0,1-3.74-3.59c.2-1,.27-2.07.4-3.1l.73-6.21.73-6.21.36-3.1a36.24,36.24,0,0,1,4.42-2.63,37,37,0,0,1,3.7,3.58l-.37,3.1-.73,6.21-.73,6.21c-.1,1-.28,2.07-.32,3.11a30.79,30.79,0,0,1-4.47,2.62"/><path class="c" d="M650.41,150.52a30.53,30.53,0,0,1-3.74-3.59c.2-1,.27-2.07.4-3.1l.73-6.21.73-6.21.36-3.1a36.38,36.38,0,0,1,4.42-2.63,36.75,36.75,0,0,1,3.7,3.58l-.37,3.1-.73,6.21-.73,6.21c-.1,1-.28,2.07-.33,3.11a30.52,30.52,0,0,1-4.47,2.62"/><path class="c" d="M671.49,218.39a30.53,30.53,0,0,1-3.74-3.59c.2-1,.27-2.07.4-3.1l.73-6.21.73-6.21.36-3.1a37,37,0,0,1,4.42-2.63,37,37,0,0,1,3.7,3.58l-.37,3.1-.73,6.21-.73,6.21c-.1,1-.28,2.07-.32,3.11a30.79,30.79,0,0,1-4.47,2.62"/><path class="c" d="M11,204.5a30.68,30.68,0,0,1,4.85,1.66c.22,1,.58,1.94.87,2.91l1.82,5.79,1.81,5.79.91,2.9a36.36,36.36,0,0,1-3,4.12A36.61,36.61,0,0,1,13.49,226l-.91-2.9-1.82-5.79L9,211.52c-.32-1-.57-1.94-.95-2.89a30.54,30.54,0,0,1,3-4.13"/><path class="c" d="M46.45,113.4a30.68,30.68,0,0,1,4.85,1.66c.23,1,.58,1.94.87,2.91L54,123.77l1.81,5.79.91,2.9a36.36,36.36,0,0,1-3,4.12,36.61,36.61,0,0,1-4.81-1.68L48,132l-1.81-5.8-1.82-5.79c-.32-1-.56-1.94-.95-2.89a30.74,30.74,0,0,1,3-4.13"/><path class="c" d="M110.37,106.63a30.56,30.56,0,0,1,2.25,4.42c-.52.76-.92,1.58-1.39,2.37l-2.7,4.79-2.7,4.79-1.35,2.39a36.12,36.12,0,0,1-4.91.39,36.61,36.61,0,0,1-2.21-4.4l1.35-2.4,2.7-4.79,2.7-4.79c.44-.81.94-1.58,1.32-2.41a30.39,30.39,0,0,1,4.95-.37"/><path class="c" d="M230.93,294a30.63,30.63,0,0,1,2.25,4.42c-.52.76-.92,1.59-1.39,2.37l-2.7,4.79-2.7,4.79L225,312.82a36.55,36.55,0,0,1-4.91.39,36.61,36.61,0,0,1-2.21-4.4l1.35-2.4,2.7-4.79,2.7-4.79c.44-.81.94-1.58,1.32-2.41a30.39,30.39,0,0,1,4.95-.37"/><path class="c" d="M311.81,192.14a30.63,30.63,0,0,1,2.25,4.42c-.52.76-.92,1.59-1.39,2.37l-2.7,4.79-2.7,4.79-1.35,2.39a36.12,36.12,0,0,1-4.91.39,36.61,36.61,0,0,1-2.21-4.4l1.35-2.4,2.7-4.79,2.7-4.79c.44-.81.94-1.58,1.32-2.41a30.39,30.39,0,0,1,4.95-.37"/><path class="c" d="M76.09,176.52a30.56,30.56,0,0,1,2.25,4.42c-.52.76-.92,1.58-1.39,2.37l-2.7,4.79-2.7,4.79-1.35,2.39a36.12,36.12,0,0,1-4.91.39,36.61,36.61,0,0,1-2.21-4.4l1.35-2.4,2.7-4.79,2.7-4.79c.44-.81.94-1.58,1.32-2.41a30.39,30.39,0,0,1,4.95-.37"/><path class="c" d="M615.94,40.09a30.63,30.63,0,0,1,2.25,4.42c-.52.76-.92,1.59-1.39,2.37l-2.7,4.79-2.7,4.79L610,58.86a36.55,36.55,0,0,1-4.91.39,36.61,36.61,0,0,1-2.21-4.4l1.35-2.4,2.7-4.79,2.7-4.79c.44-.81.94-1.58,1.32-2.41a30.39,30.39,0,0,1,4.95-.37"/><path class="c" d="M581,132.79a30.56,30.56,0,0,1,2.25,4.42c-.52.76-.92,1.58-1.39,2.37l-2.7,4.79-2.7,4.79-1.35,2.39a36.12,36.12,0,0,1-4.91.39,36.61,36.61,0,0,1-2.21-4.4l1.35-2.4,2.7-4.79,2.7-4.79c.44-.81.94-1.58,1.32-2.41a30.39,30.39,0,0,1,4.95-.37"/><path class="c" d="M107.23,206.09a30.68,30.68,0,0,1,4.85,1.66c.23,1,.58,1.94.87,2.91l1.81,5.79,1.81,5.79.91,2.9a36.36,36.36,0,0,1-3,4.12,36.61,36.61,0,0,1-4.81-1.68l-.91-2.9L107,218.9l-1.82-5.79c-.32-1-.56-1.94-.95-2.89a30.54,30.54,0,0,1,3-4.13"/><path class="c" d="M165.4,297.74a30.68,30.68,0,0,1,4.85,1.66c.23,1,.58,1.94.87,2.91l1.81,5.79,1.81,5.79.91,2.9a36.6,36.6,0,0,1-3,4.12,36.1,36.1,0,0,1-4.81-1.68l-.91-2.9-1.81-5.79-1.82-5.79c-.32-1-.56-1.94-.95-2.89a30.74,30.74,0,0,1,3-4.13"/><path class="c" d="M98,268.67a30.68,30.68,0,0,1,4.85,1.66c.23,1,.58,1.94.87,2.91l1.81,5.79,1.81,5.79.91,2.9a36.6,36.6,0,0,1-3,4.12,36.46,36.46,0,0,1-4.81-1.68l-.91-2.9-1.81-5.79-1.82-5.79c-.32-1-.56-1.94-.95-2.89a30.74,30.74,0,0,1,3-4.13"/><path class="c" d="M176.55,219.36A30.68,30.68,0,0,1,181.4,221c.23,1,.58,1.94.87,2.91l1.81,5.79,1.81,5.79.91,2.9a36.36,36.36,0,0,1-3,4.12,36.61,36.61,0,0,1-4.81-1.68l-.91-2.9-1.81-5.79-1.82-5.79c-.32-1-.56-1.94-.95-2.89a30.74,30.74,0,0,1,3-4.13"/><path class="c" d="M246.75,220.12a30.68,30.68,0,0,1,4.85,1.66c.23,1,.58,1.94.87,2.91l1.81,5.79,1.81,5.79.91,2.9a36.6,36.6,0,0,1-3,4.12,36.46,36.46,0,0,1-4.81-1.68l-.91-2.9-1.81-5.79-1.82-5.79c-.32-1-.56-1.94-.95-2.89a30.54,30.54,0,0,1,3-4.13"/><path class="c" d="M323.22,91.1a30.68,30.68,0,0,1,4.85,1.66c.23,1,.58,1.94.87,2.91l1.81,5.79,1.81,5.79.91,2.9a36.6,36.6,0,0,1-3,4.12,36.46,36.46,0,0,1-4.81-1.68l-.91-2.9-1.81-5.79-1.82-5.79c-.32-1-.56-1.94-.95-2.89a30.74,30.74,0,0,1,3-4.13"/><path class="c" d="M290.86,277.34a30.68,30.68,0,0,1,4.85,1.66c.23,1,.58,1.94.87,2.91l1.81,5.79,1.81,5.79.91,2.9a36.6,36.6,0,0,1-3,4.12,36.1,36.1,0,0,1-4.81-1.68l-.91-2.9-1.81-5.79-1.82-5.79c-.32-1-.56-1.94-.95-2.89a30.54,30.54,0,0,1,3-4.13"/><path class="c" d="M343.62,216.56a30.68,30.68,0,0,1,4.85,1.66c.23,1,.58,1.94.87,2.91l1.81,5.79,1.81,5.79.91,2.9a36.6,36.6,0,0,1-3,4.12,36.46,36.46,0,0,1-4.81-1.68l-.91-2.9-1.81-5.79-1.82-5.79c-.32-1-.56-1.94-.95-2.89a30.74,30.74,0,0,1,3-4.13"/><path class="c" d="M210.07,144.41a30.68,30.68,0,0,1,4.85,1.66c.23,1,.58,1.94.87,2.91l1.81,5.79,1.81,5.79.91,2.9a36.36,36.36,0,0,1-3,4.12,36.61,36.61,0,0,1-4.81-1.68l-.91-2.9-1.81-5.79L208,151.43c-.32-1-.56-1.94-.95-2.89a30.74,30.74,0,0,1,3-4.13"/><path class="c" d="M367.06,146.62a30.68,30.68,0,0,1,4.85,1.66c.23,1,.58,1.94.87,2.91l1.81,5.79,1.81,5.79.91,2.9a36.6,36.6,0,0,1-3,4.12,36.46,36.46,0,0,1-4.81-1.68l-.91-2.9-1.81-5.79L365,153.63c-.32-1-.56-1.94-.95-2.89a30.74,30.74,0,0,1,3-4.13"/><path class="c" d="M3,155.34A30.68,30.68,0,0,1,7.88,157c.23,1,.58,1.94.87,2.91l1.81,5.79,1.81,5.79.91,2.9a36.36,36.36,0,0,1-3,4.12,36.61,36.61,0,0,1-4.81-1.68l-.91-2.9-1.81-5.79L.95,162.36c-.32-1-.56-1.94-.95-2.89a30.54,30.54,0,0,1,3-4.13"/><path class="c" d="M110.34,344.37a30.54,30.54,0,0,1,2.25,4.42c-.52.76-.92,1.59-1.39,2.37l-2.7,4.79-2.7,4.79-1.35,2.39a36.55,36.55,0,0,1-4.91.39,36.51,36.51,0,0,1-2.21-4.4l1.35-2.39,2.7-4.79,2.7-4.79c.44-.81.94-1.58,1.32-2.41a30.39,30.39,0,0,1,4.95-.37"/><path class="c" d="M53.84,362.26a30.68,30.68,0,0,1,4.85,1.66c.23,1,.58,1.94.87,2.91l1.81,5.79,1.81,5.79.91,2.9a36.6,36.6,0,0,1-3,4.12,36.11,36.11,0,0,1-4.81-1.68l-.91-2.9-1.81-5.79-1.82-5.79c-.32-1-.56-1.94-.95-2.89a30.74,30.74,0,0,1,3-4.13"/><path class="c" d="M53.74,287.72a30.68,30.68,0,0,1,4.85,1.66c.23,1,.58,1.94.87,2.91l1.81,5.79,1.81,5.79.91,2.9a36.6,36.6,0,0,1-3,4.12,36.46,36.46,0,0,1-4.81-1.68l-.91-2.9-1.81-5.79-1.82-5.79c-.32-1-.56-1.94-.95-2.89a30.74,30.74,0,0,1,3-4.13"/><path class="c" d="M268.26,138.32a30.68,30.68,0,0,1,4.85,1.66c.23,1,.58,1.94.87,2.91l1.81,5.8,1.81,5.79.91,2.9a36.6,36.6,0,0,1-3,4.12,36.1,36.1,0,0,1-4.81-1.68l-.91-2.9L268,151.13l-1.82-5.79c-.32-1-.56-1.94-.95-2.89a30.54,30.54,0,0,1,3-4.13"/><path class="c" d="M145.14,169a30.53,30.53,0,0,1-3.74-3.59c.2-1,.27-2.07.4-3.1l.73-6.21.73-6.21.36-3.1a36.61,36.61,0,0,1,4.42-2.63,36.75,36.75,0,0,1,3.7,3.58l-.37,3.1-.73,6.21-.73,6.21c-.1,1-.28,2.07-.32,3.11a30.79,30.79,0,0,1-4.47,2.62"/><path class="c" d="M231.14,102.66a30.53,30.53,0,0,1-3.74-3.59c.2-1,.27-2.07.4-3.1l.73-6.21.73-6.21.36-3.1a36.24,36.24,0,0,1,4.42-2.63,36.39,36.39,0,0,1,3.69,3.58l-.36,3.1-.73,6.21-.73,6.21c-.1,1-.28,2.07-.32,3.11a30.79,30.79,0,0,1-4.47,2.62"/><path class="c" d="M879.66,528.95a30.64,30.64,0,0,1,2.25,4.42c-.52.76-.92,1.59-1.39,2.37l-2.7,4.79-2.7,4.79-1.35,2.39a36.55,36.55,0,0,1-4.91.39,36.61,36.61,0,0,1-2.21-4.4l1.35-2.4,2.7-4.79,2.7-4.79c.44-.81.94-1.58,1.32-2.41a30.39,30.39,0,0,1,4.95-.37"/><path class="c" d="M814.13,532.64A30.68,30.68,0,0,1,819,534.3c.23,1,.58,1.94.87,2.91l1.81,5.79,1.81,5.79.91,2.9a36.36,36.36,0,0,1-3,4.12,36.25,36.25,0,0,1-4.81-1.68l-.91-2.9-1.81-5.79L812,539.66c-.32-1-.56-1.94-.95-2.89a30.54,30.54,0,0,1,3-4.13"/><path class="c" d="M746.76,503.57a30.68,30.68,0,0,1,4.85,1.66c.22,1,.58,1.94.87,2.91l1.81,5.79,1.81,5.79.91,2.9a36.36,36.36,0,0,1-3,4.12,36.61,36.61,0,0,1-4.81-1.68l-.91-2.9-1.81-5.79-1.82-5.79c-.32-1-.56-1.94-.95-2.89a30.54,30.54,0,0,1,3-4.13"/><path class="c" d="M895.48,455a30.69,30.69,0,0,1,4.85,1.66c.23,1,.58,1.94.87,2.91l1.81,5.8,1.81,5.79.91,2.9a36.59,36.59,0,0,1-3,4.12,36.46,36.46,0,0,1-4.81-1.68l-.91-2.9-1.81-5.79L893.39,462c-.32-1-.56-1.94-.95-2.89a30.74,30.74,0,0,1,3-4.13"/><path class="c" d="M939.59,512.24a30.69,30.69,0,0,1,4.85,1.66c.23,1,.58,1.94.87,2.91l1.81,5.79,1.81,5.79.91,2.9a36.59,36.59,0,0,1-3,4.12,36.1,36.1,0,0,1-4.81-1.68l-.91-2.9-1.81-5.79-1.82-5.79c-.32-1-.56-1.94-.95-2.89a30.74,30.74,0,0,1,3-4.13"/><path class="c" d="M1159.48,601.78a30.45,30.45,0,0,1,2.25,4.42c-.52.76-.92,1.59-1.39,2.37l-2.7,4.79-2.7,4.79-1.35,2.39a36.55,36.55,0,0,1-4.91.39,36.51,36.51,0,0,1-2.21-4.4l1.35-2.39,2.7-4.79,2.7-4.79c.44-.81.94-1.58,1.32-2.41a30.39,30.39,0,0,1,4.95-.37"/><path class="c" d="M1004.63,484.26a30.48,30.48,0,0,1,2.25,4.42c-.52.76-.92,1.58-1.39,2.37l-2.7,4.79-2.7,4.79L998.74,503a36.12,36.12,0,0,1-4.91.39,36.19,36.19,0,0,1-2.21-4.4l1.35-2.4,2.7-4.79,2.7-4.79c.44-.81.94-1.58,1.32-2.41a30.39,30.39,0,0,1,4.95-.37"/><path class="c" d="M1035.78,513.83a30.69,30.69,0,0,1,4.85,1.66c.23,1,.58,1.94.87,2.91l1.81,5.79,1.81,5.79.91,2.9a36.59,36.59,0,0,1-3,4.12,36.1,36.1,0,0,1-4.81-1.68l-.91-2.9-1.81-5.79-1.82-5.79c-.32-1-.56-1.94-.95-2.89a30.54,30.54,0,0,1,3-4.13"/><path class="c" d="M1094,605.48a30.69,30.69,0,0,1,4.85,1.66c.23,1,.58,1.94.87,2.91l1.81,5.79,1.81,5.79.91,2.9a36.35,36.35,0,0,1-3,4.12,36.61,36.61,0,0,1-4.81-1.68l-.91-2.9-1.81-5.79-1.82-5.79c-.32-1-.56-1.94-.95-2.89a30.54,30.54,0,0,1,3-4.13"/><path class="c" d="M1026.58,576.41a30.69,30.69,0,0,1,4.85,1.66c.23,1,.58,1.94.87,2.91l1.81,5.79,1.81,5.79.91,2.9a36.35,36.35,0,0,1-3,4.12,36.61,36.61,0,0,1-4.81-1.68l-.91-2.9-1.81-5.79-1.82-5.79c-.32-1-.56-1.94-.95-2.89a30.54,30.54,0,0,1,3-4.13"/><path class="c" d="M1105.1,527.1a30.69,30.69,0,0,1,4.85,1.66c.23,1,.58,1.94.87,2.91l1.81,5.79,1.81,5.79.91,2.9a36.59,36.59,0,0,1-3,4.12,36.1,36.1,0,0,1-4.81-1.68l-.91-2.9-1.81-5.79-1.82-5.79c-.32-1-.56-1.94-.95-2.89a30.74,30.74,0,0,1,3-4.13"/><path class="c" d="M1138.62,452.15a30.69,30.69,0,0,1,4.85,1.66c.23,1,.58,1.94.87,2.91l1.81,5.79,1.81,5.79.91,2.9a36.59,36.59,0,0,1-3,4.12,36.46,36.46,0,0,1-4.81-1.68l-.91-2.9-1.81-5.79-1.82-5.79c-.32-1-.56-1.94-.95-2.89a30.54,30.54,0,0,1,3-4.13"/><path class="c" d="M931.58,463.08a30.69,30.69,0,0,1,4.85,1.66c.23,1,.58,1.94.87,2.91l1.81,5.79,1.81,5.79.91,2.9a36.59,36.59,0,0,1-3,4.12,36.1,36.1,0,0,1-4.81-1.68l-.91-2.9-1.81-5.79-1.82-5.79c-.32-1-.56-1.94-.95-2.89a30.74,30.74,0,0,1,3-4.13"/><path class="c" d="M1073.69,476.76a30.52,30.52,0,0,1-3.74-3.59c.2-1,.27-2.07.4-3.1l.73-6.21.73-6.21.36-3.1a37,37,0,0,1,4.42-2.63,36.74,36.74,0,0,1,3.7,3.58l-.37,3.1-.73,6.21-.73,6.21c-.1,1-.28,2.07-.32,3.11a30.79,30.79,0,0,1-4.47,2.62"/><path class="c" d="M392.56,797.15a30.63,30.63,0,0,1,2.25,4.42c-.52.76-.92,1.59-1.39,2.37l-2.7,4.79-2.7,4.79-1.35,2.39a36.55,36.55,0,0,1-4.91.39,36.61,36.61,0,0,1-2.21-4.4l1.35-2.4,2.7-4.79,2.7-4.79c.44-.81.94-1.58,1.32-2.41a30.39,30.39,0,0,1,4.95-.37"/><path class="c" d="M577.94,760.05a30.68,30.68,0,0,1,4.85,1.66c.23,1,.58,1.94.87,2.91l1.81,5.79,1.81,5.79.91,2.9a36.6,36.6,0,0,1-3,4.12,36.1,36.1,0,0,1-4.81-1.68l-.91-2.9-1.81-5.79-1.82-5.79c-.32-1-.56-1.94-.95-2.89a30.54,30.54,0,0,1,3-4.13"/><path class="c" d="M523.2,784.73a30.53,30.53,0,0,1-3.74-3.59c.2-1,.27-2.07.4-3.1l.73-6.21.73-6.21.36-3.1a37.14,37.14,0,0,1,4.42-2.63,37,37,0,0,1,3.7,3.58l-.37,3.1-.73,6.21L528,779c-.1,1-.28,2.07-.32,3.11a30.79,30.79,0,0,1-4.47,2.62"/><path class="c" d="M711,614.87a30.63,30.63,0,0,1,2.25,4.42c-.52.76-.92,1.59-1.39,2.37l-2.7,4.79-2.7,4.79-1.35,2.39a36.55,36.55,0,0,1-4.91.39,36.51,36.51,0,0,1-2.21-4.4l1.35-2.39,2.7-4.79,2.7-4.79c.44-.81.94-1.58,1.32-2.41a30.39,30.39,0,0,1,4.95-.37"/><path class="c" d="M598.33,673.81a30.56,30.56,0,0,1,2.25,4.42c-.52.76-.92,1.58-1.39,2.37l-2.7,4.79-2.7,4.79-1.35,2.39a36.12,36.12,0,0,1-4.91.39,36.19,36.19,0,0,1-2.21-4.4l1.35-2.4,2.7-4.79,2.7-4.79c.44-.81.94-1.58,1.32-2.41a30.39,30.39,0,0,1,4.95-.37"/><path class="c" d="M741.9,674.29a30.56,30.56,0,0,1,2.25,4.42c-.52.76-.92,1.58-1.39,2.37l-2.7,4.79-2.7,4.79L736,693.06a36.12,36.12,0,0,1-4.91.39,36.61,36.61,0,0,1-2.21-4.4l1.35-2.4,2.7-4.79,2.7-4.79c.44-.81.94-1.58,1.32-2.41a30.39,30.39,0,0,1,4.95-.37"/><path class="c" d="M707.62,744.18a30.56,30.56,0,0,1,2.25,4.42c-.52.76-.92,1.58-1.39,2.37l-2.7,4.79-2.7,4.79L701.72,763a36.52,36.52,0,0,1-4.91.39,36.77,36.77,0,0,1-2.21-4.4l1.35-2.4,2.7-4.79,2.7-4.79c.44-.81.94-1.58,1.32-2.41a30.39,30.39,0,0,1,4.95-.37"/><path class="c" d="M962.63,600.12a30.57,30.57,0,0,1,2.25,4.42c-.52.76-.92,1.58-1.39,2.37l-2.7,4.79-2.7,4.79-1.35,2.39a36.12,36.12,0,0,1-4.91.39,36.61,36.61,0,0,1-2.21-4.4l1.35-2.4,2.7-4.79,2.7-4.79c.44-.81.94-1.58,1.32-2.41a30.39,30.39,0,0,1,4.95-.37"/><path class="c" d="M1018.17,620.67a30.57,30.57,0,0,1,2.25,4.42c-.52.76-.92,1.58-1.39,2.37l-2.7,4.79-2.7,4.79-1.35,2.39a36.12,36.12,0,0,1-4.91.39,36.61,36.61,0,0,1-2.21-4.4l1.35-2.4,2.7-4.79,2.7-4.79c.44-.81.94-1.58,1.32-2.41a30.39,30.39,0,0,1,4.95-.37"/><path class="c" d="M1109.56,661.68a30.48,30.48,0,0,1,2.25,4.42c-.52.76-.92,1.58-1.39,2.37l-2.7,4.79-2.7,4.79-1.35,2.39a36.55,36.55,0,0,1-4.91.39,36.51,36.51,0,0,1-2.21-4.4l1.35-2.39,2.7-4.79,2.7-4.79c.44-.81.94-1.58,1.32-2.41a30.39,30.39,0,0,1,4.95-.37"/><path class="c" d="M1039.48,674.7a30.68,30.68,0,0,1,4.85,1.66c.23,1,.58,1.94.87,2.91l1.81,5.79,1.81,5.79.91,2.9a36.59,36.59,0,0,1-3,4.12,36.46,36.46,0,0,1-4.81-1.68l-.91-2.9-1.81-5.79-1.82-5.79c-.32-1-.56-1.94-.95-2.89a30.54,30.54,0,0,1,3-4.13"/><path class="c" d="M783.28,634.5a30.68,30.68,0,0,1,4.85,1.66c.23,1,.58,1.94.87,2.91l1.81,5.79,1.81,5.79.91,2.9a36.6,36.6,0,0,1-3,4.12,36.1,36.1,0,0,1-4.81-1.68l-.91-2.9L783,647.31l-1.82-5.79c-.32-1-.56-1.94-.95-2.89a30.74,30.74,0,0,1,3-4.13"/><path class="c" d="M727.7,546.69a30.68,30.68,0,0,1,4.85,1.66c.22,1,.58,1.94.87,2.91l1.81,5.79,1.81,5.79.91,2.9a36.36,36.36,0,0,1-3,4.12,36.25,36.25,0,0,1-4.81-1.68l-.91-2.9-1.82-5.79-1.81-5.79c-.32-1-.56-1.94-.95-2.89a30.54,30.54,0,0,1,3-4.13"/><path class="c" d="M643.24,581.31a30.68,30.68,0,0,1,4.85,1.66c.23,1,.58,1.94.87,2.91l1.81,5.79,1.81,5.79.91,2.9a36.36,36.36,0,0,1-3,4.12,36.25,36.25,0,0,1-4.81-1.68l-.91-2.9L643,594.12l-1.82-5.79c-.32-1-.56-1.94-.95-2.89a30.74,30.74,0,0,1,3-4.13"/><path class="c" d="M651.5,655.93a30.68,30.68,0,0,1,4.85,1.66c.22,1,.58,1.94.87,2.91L659,666.3l1.81,5.79.91,2.9a36.36,36.36,0,0,1-3,4.12,36.25,36.25,0,0,1-4.81-1.68l-.91-2.9-1.81-5.79-1.82-5.79c-.32-1-.56-1.94-.95-2.89a30.54,30.54,0,0,1,3-4.13"/><path class="c" d="M954.75,658.76a30.68,30.68,0,0,1,4.85,1.66c.23,1,.58,1.94.87,2.91l1.81,5.79,1.81,5.79.91,2.9a36.59,36.59,0,0,1-3,4.12,36.46,36.46,0,0,1-4.81-1.68l-.91-2.9-1.82-5.79-1.81-5.79c-.32-1-.56-1.94-.95-2.89a30.54,30.54,0,0,1,3-4.13"/><path class="c" d="M841.61,712.08a30.68,30.68,0,0,1,4.85,1.66c.23,1,.58,1.94.87,2.91l1.81,5.79,1.81,5.79.91,2.9a36.36,36.36,0,0,1-3,4.12,36.61,36.61,0,0,1-4.81-1.68l-.91-2.9-1.81-5.79-1.82-5.79c-.32-1-.56-1.94-.95-2.89a30.54,30.54,0,0,1,3-4.13"/><path class="c" d="M896.34,577.77a30.69,30.69,0,0,1,4.85,1.66c.23,1,.58,1.94.87,2.91l1.81,5.79,1.81,5.79.91,2.9a36.59,36.59,0,0,1-3,4.12,36.46,36.46,0,0,1-4.81-1.68l-.91-2.9-1.81-5.79-1.82-5.79c-.32-1-.56-1.94-.95-2.89a30.74,30.74,0,0,1,3-4.13"/><path class="c" d="M998.59,714.28a30.68,30.68,0,0,1,4.85,1.66c.23,1,.58,1.94.87,2.91l1.81,5.79,1.81,5.79.91,2.9a36.59,36.59,0,0,1-3,4.12,36.46,36.46,0,0,1-4.81-1.68l-.91-2.9-1.81-5.79-1.82-5.79c-.32-1-.56-1.94-.95-2.89a30.54,30.54,0,0,1,3-4.13"/><path class="c" d="M634.56,723a30.68,30.68,0,0,1,4.85,1.66c.23,1,.58,1.94.87,2.91l1.81,5.79,1.81,5.79.91,2.9a36.6,36.6,0,0,1-3,4.12,36.46,36.46,0,0,1-4.81-1.68l-.91-2.9-1.81-5.79L632.48,730c-.32-1-.56-1.94-.95-2.89a30.54,30.54,0,0,1,3-4.13"/><path class="c" d="M899.79,706a30.68,30.68,0,0,1,4.85,1.66c.23,1,.58,1.94.87,2.91l1.81,5.79,1.81,5.79L910,725a36.59,36.59,0,0,1-3,4.12,36.46,36.46,0,0,1-4.81-1.68l-.91-2.9-1.81-5.79L897.7,713c-.32-1-.56-1.94-.95-2.89a30.54,30.54,0,0,1,3-4.13"/><path class="c" d="M776.67,736.68a30.53,30.53,0,0,1-3.74-3.59c.2-1,.27-2.07.4-3.1l.73-6.21.73-6.21.36-3.1a36.24,36.24,0,0,1,4.42-2.63,37,37,0,0,1,3.7,3.58l-.37,3.1-.73,6.21-.73,6.21c-.1,1-.28,2.07-.32,3.11a30.79,30.79,0,0,1-4.47,2.62"/><path class="c" d="M841.6,602.44a30.53,30.53,0,0,1-3.74-3.59c.2-1,.27-2.07.4-3.1l.73-6.21.73-6.21.36-3.1a36.38,36.38,0,0,1,4.42-2.63,36.75,36.75,0,0,1,3.7,3.58l-.37,3.1-.73,6.21-.73,6.21c-.1,1-.28,2.07-.33,3.11a30.52,30.52,0,0,1-4.47,2.62"/><path class="c" d="M862.67,670.32a30.53,30.53,0,0,1-3.74-3.59c.2-1,.27-2.07.4-3.1l.73-6.21.73-6.21.36-3.1a37,37,0,0,1,4.42-2.63,37,37,0,0,1,3.7,3.58l-.37,3.1-.73,6.21-.73,6.21c-.1,1-.28,2.07-.32,3.11a30.79,30.79,0,0,1-4.47,2.62"/><path class="c" d="M202.23,656.42a30.68,30.68,0,0,1,4.85,1.66c.22,1,.58,1.94.87,2.91l1.82,5.79,1.81,5.79.91,2.9a36.36,36.36,0,0,1-3,4.12,36.61,36.61,0,0,1-4.81-1.68l-.91-2.9L202,669.24l-1.81-5.79c-.32-1-.57-1.94-.95-2.89a30.54,30.54,0,0,1,3-4.13"/><path class="c" d="M237.63,565.33a30.68,30.68,0,0,1,4.85,1.66c.23,1,.58,1.94.87,2.91l1.81,5.79,1.81,5.79.91,2.9a36.36,36.36,0,0,1-3,4.12,36.61,36.61,0,0,1-4.81-1.68l-.91-2.9-1.81-5.8-1.82-5.79c-.32-1-.56-1.94-.95-2.89a30.74,30.74,0,0,1,3-4.13"/><path class="c" d="M301.56,558.55A30.56,30.56,0,0,1,303.8,563c-.52.76-.92,1.58-1.39,2.37l-2.7,4.79-2.7,4.79-1.35,2.39a36.12,36.12,0,0,1-4.91.39,36.61,36.61,0,0,1-2.21-4.4l1.35-2.4,2.7-4.79,2.7-4.79c.44-.81.94-1.58,1.32-2.41a30.39,30.39,0,0,1,4.95-.37"/><path class="c" d="M422.12,746a30.63,30.63,0,0,1,2.25,4.42c-.52.76-.92,1.59-1.39,2.37l-2.7,4.79-2.7,4.79-1.35,2.39a36.55,36.55,0,0,1-4.91.39,36.61,36.61,0,0,1-2.21-4.4l1.35-2.4,2.7-4.79,2.7-4.79c.44-.81.94-1.58,1.32-2.41a30.39,30.39,0,0,1,4.95-.37"/><path class="c" d="M503,644.07a30.63,30.63,0,0,1,2.25,4.42c-.52.76-.92,1.59-1.39,2.37l-2.7,4.79-2.7,4.79-1.35,2.39a36.12,36.12,0,0,1-4.91.39,36.61,36.61,0,0,1-2.21-4.4l1.35-2.4,2.7-4.79,2.7-4.79c.44-.81.94-1.58,1.32-2.41a30.39,30.39,0,0,1,4.95-.37"/><path class="c" d="M267.27,628.45a30.56,30.56,0,0,1,2.25,4.42c-.52.76-.92,1.58-1.39,2.37l-2.7,4.79-2.7,4.79-1.35,2.39a36.12,36.12,0,0,1-4.91.39,36.61,36.61,0,0,1-2.21-4.4l1.35-2.4,2.7-4.79,2.7-4.79c.44-.81.94-1.58,1.32-2.41a30.39,30.39,0,0,1,4.95-.37"/><path class="c" d="M772.17,584.71a30.56,30.56,0,0,1,2.25,4.42c-.52.76-.92,1.58-1.39,2.37l-2.7,4.79-2.7,4.79-1.35,2.39a36.12,36.12,0,0,1-4.91.39,36.61,36.61,0,0,1-2.21-4.4l1.35-2.4,2.7-4.79,2.7-4.79c.44-.81.94-1.58,1.32-2.41a30.39,30.39,0,0,1,4.95-.37"/><path class="c" d="M298.42,658a30.68,30.68,0,0,1,4.85,1.66c.23,1,.58,1.94.87,2.91l1.81,5.79,1.81,5.79.91,2.9a36.36,36.36,0,0,1-3,4.12,36.61,36.61,0,0,1-4.81-1.68l-.91-2.9-1.81-5.79L296.33,665c-.32-1-.56-1.94-.95-2.89a30.54,30.54,0,0,1,3-4.13"/><path class="c" d="M356.59,749.66a30.68,30.68,0,0,1,4.85,1.66c.23,1,.58,1.94.87,2.91l1.81,5.79,1.81,5.79.91,2.9a36.6,36.6,0,0,1-3,4.12,36.1,36.1,0,0,1-4.81-1.68l-.91-2.9-1.81-5.79-1.82-5.79c-.32-1-.56-1.94-.95-2.89a30.74,30.74,0,0,1,3-4.13"/><path class="c" d="M289.21,720.59a30.68,30.68,0,0,1,4.85,1.66c.23,1,.58,1.94.87,2.91l1.81,5.79,1.81,5.79.91,2.9a36.6,36.6,0,0,1-3,4.12,36.46,36.46,0,0,1-4.81-1.68l-.91-2.9-1.81-5.79-1.82-5.79c-.32-1-.56-1.94-.95-2.89a30.74,30.74,0,0,1,3-4.13"/><path class="c" d="M367.74,671.28a30.68,30.68,0,0,1,4.85,1.66c.23,1,.58,1.94.87,2.91l1.81,5.79,1.81,5.79.91,2.9a36.36,36.36,0,0,1-3,4.12,36.61,36.61,0,0,1-4.81-1.68l-.91-2.9-1.81-5.79-1.82-5.79c-.32-1-.56-1.94-.95-2.89a30.74,30.74,0,0,1,3-4.13"/><path class="c" d="M437.94,672a30.68,30.68,0,0,1,4.85,1.66c.23,1,.58,1.94.87,2.91l1.81,5.79,1.81,5.79.91,2.9a36.6,36.6,0,0,1-3,4.12,36.46,36.46,0,0,1-4.81-1.68l-.91-2.9-1.81-5.79-1.82-5.79c-.32-1-.56-1.94-.95-2.89a30.54,30.54,0,0,1,3-4.13"/><path class="c" d="M514.41,543a30.68,30.68,0,0,1,4.85,1.66c.23,1,.58,1.94.87,2.91l1.81,5.79,1.81,5.79.91,2.9a36.6,36.6,0,0,1-3,4.12,36.46,36.46,0,0,1-4.81-1.68l-.91-2.9-1.81-5.79L512.32,550c-.32-1-.56-1.94-.95-2.89a30.74,30.74,0,0,1,3-4.13"/><path class="c" d="M482,729.26a30.68,30.68,0,0,1,4.85,1.66c.23,1,.58,1.94.87,2.91l1.81,5.79,1.81,5.79.91,2.9a36.6,36.6,0,0,1-3,4.12,36.1,36.1,0,0,1-4.81-1.68l-.91-2.9-1.81-5.79L480,736.28c-.32-1-.56-1.94-.95-2.89a30.54,30.54,0,0,1,3-4.13"/><path class="c" d="M534.8,668.48a30.68,30.68,0,0,1,4.85,1.66c.23,1,.58,1.94.87,2.91l1.81,5.79,1.81,5.79.91,2.9a36.6,36.6,0,0,1-3,4.12,36.46,36.46,0,0,1-4.81-1.68l-.91-2.9-1.81-5.79-1.82-5.79c-.32-1-.56-1.94-.95-2.89a30.74,30.74,0,0,1,3-4.13"/><path class="c" d="M401.26,596.34a30.68,30.68,0,0,1,4.85,1.66c.23,1,.58,1.94.87,2.91l1.81,5.79,1.81,5.79.91,2.9a36.36,36.36,0,0,1-3,4.12,36.61,36.61,0,0,1-4.81-1.68l-.91-2.9L401,609.15l-1.82-5.79c-.32-1-.56-1.94-.95-2.89a30.74,30.74,0,0,1,3-4.13"/><path class="c" d="M558.24,598.54a30.68,30.68,0,0,1,4.85,1.66c.23,1,.58,1.94.87,2.91l1.81,5.79,1.81,5.79.91,2.9a36.6,36.6,0,0,1-3,4.12,36.46,36.46,0,0,1-4.81-1.68l-.91-2.9L558,611.35l-1.82-5.79c-.32-1-.56-1.94-.95-2.89a30.74,30.74,0,0,1,3-4.13"/><path class="c" d="M194.22,607.26a30.68,30.68,0,0,1,4.85,1.66c.23,1,.58,1.94.87,2.91l1.81,5.79,1.81,5.79.91,2.9a36.36,36.36,0,0,1-3,4.12,36.61,36.61,0,0,1-4.81-1.68l-.91-2.9-1.81-5.79-1.82-5.79c-.32-1-.56-1.94-.95-2.89a30.54,30.54,0,0,1,3-4.13"/><path class="c" d="M301.52,796.29a30.54,30.54,0,0,1,2.25,4.42c-.52.76-.92,1.59-1.39,2.37l-2.7,4.79-2.7,4.79-1.35,2.39a36.55,36.55,0,0,1-4.91.39,36.51,36.51,0,0,1-2.21-4.4l1.35-2.39,2.7-4.79,2.7-4.79c.44-.81.94-1.58,1.32-2.41a30.39,30.39,0,0,1,4.95-.37"/><path class="c" d="M245,814.18a30.68,30.68,0,0,1,4.85,1.66c.23,1,.58,1.94.87,2.91l1.81,5.79,1.81,5.79.91,2.9a36.6,36.6,0,0,1-3,4.12,36.11,36.11,0,0,1-4.81-1.68l-.91-2.9L244.75,827l-1.82-5.79c-.32-1-.56-1.94-.95-2.89a30.74,30.74,0,0,1,3-4.13"/><path class="c" d="M244.92,739.64a30.68,30.68,0,0,1,4.85,1.66c.23,1,.58,1.94.87,2.91l1.81,5.79,1.81,5.79.91,2.9a36.6,36.6,0,0,1-3,4.12,36.46,36.46,0,0,1-4.81-1.68l-.91-2.9-1.81-5.79-1.82-5.79c-.32-1-.56-1.94-.95-2.89a30.74,30.74,0,0,1,3-4.13"/><path class="c" d="M459.44,590.24a30.68,30.68,0,0,1,4.85,1.66c.23,1,.58,1.94.87,2.91l1.81,5.8,1.81,5.79.91,2.9a36.6,36.6,0,0,1-3,4.12,36.1,36.1,0,0,1-4.81-1.68l-.91-2.9-1.81-5.79-1.82-5.79c-.32-1-.56-1.94-.95-2.89a30.54,30.54,0,0,1,3-4.13"/><path class="c" d="M336.32,620.95a30.53,30.53,0,0,1-3.74-3.59c.2-1,.27-2.07.4-3.1l.73-6.21.73-6.21.36-3.1a36.61,36.61,0,0,1,4.42-2.63,36.75,36.75,0,0,1,3.7,3.58l-.37,3.1-.73,6.21-.73,6.21c-.1,1-.28,2.07-.32,3.11a30.79,30.79,0,0,1-4.47,2.62"/><path class="c" d="M422.33,554.58a30.53,30.53,0,0,1-3.74-3.59c.2-1,.27-2.07.4-3.1l.73-6.21.73-6.21.36-3.1a36.24,36.24,0,0,1,4.42-2.63,36.39,36.39,0,0,1,3.69,3.58l-.36,3.1-.73,6.21-.73,6.21c-.1,1-.28,2.07-.32,3.11a30.79,30.79,0,0,1-4.47,2.62"/></g></svg>