<svg xmlns="http://www.w3.org/2000/svg" xmlns:xlink="http://www.w3.org/1999/xlink" viewBox="0 0 1133.73 773.34"><defs><style>.a{fill:none;}.b{clip-path:url(#a);}.c{fill:#fff3e9;}</style><clipPath id="a" transform="translate(0 -0.74)"><path class="a" d="M383.29,6.43c348.32,97.05,567-37.62,630.37,328.81,29,167.43-138.72,149.58-285.77,293.75C478.23,873.77,19.06,538.06,43,346.14,86,2.45,303.49-15.81,383.29,6.43Z"/></clipPath></defs><title>Deco5_1</title><g class="b"><path class="c" d="M307.84,300.32a30.64,30.64,0,0,0-1.69,4.66c.61.69,1.11,1.46,1.66,2.19l3.26,4.43,3.26,4.43,1.63,2.21a36.55,36.55,0,0,0,4.92-.21,36.61,36.61,0,0,0,1.66-4.64l-1.63-2.21-3.26-4.43-3.26-4.43c-.53-.75-1.12-1.45-1.6-2.24a30.39,30.39,0,0,0-5,.23" transform="translate(0 -0.74)"/><path class="c" d="M373.33,296a30.68,30.68,0,0,0-4.61,2.24c-.1,1-.34,2-.51,3l-1.1,6-1.1,6-.55,3a36.36,36.36,0,0,0,3.47,3.73,36.25,36.25,0,0,0,4.57-2.25l.55-3,1.1-6,1.1-6c.2-1,.32-2,.59-3a30.54,30.54,0,0,0-3.51-3.73" transform="translate(0 -0.74)"/><path class="c" d="M436.69,259a30.68,30.68,0,0,0-4.61,2.24c-.1,1-.34,2-.51,3l-1.1,6-1.1,6-.55,3a36.36,36.36,0,0,0,3.47,3.73,36.61,36.61,0,0,0,4.57-2.25l.55-3,1.1-6,1.1-6c.2-1,.32-2,.59-3a30.54,30.54,0,0,0-3.51-3.73" transform="translate(0 -0.74)"/><path class="c" d="M551,270.44a30.68,30.68,0,0,0-4.61,2.24c-.1,1-.34,2-.51,3l-1.1,6-1.1,6-.55,3a36.36,36.36,0,0,0,3.47,3.73,36.61,36.61,0,0,0,4.57-2.25l.55-3,1.1-6,1.1-6c.2-1,.32-2,.59-3a30.74,30.74,0,0,0-3.51-3.73" transform="translate(0 -0.74)"/><path class="c" d="M283.18,228.86a30.69,30.69,0,0,0-4.61,2.24c-.1,1-.35,2-.51,3l-1.1,6-1.1,6-.55,3a36.59,36.59,0,0,0,3.47,3.73,36.46,36.46,0,0,0,4.57-2.25l.55-3,1.1-6,1.1-6c.2-1,.32-2,.59-3a30.74,30.74,0,0,0-3.51-3.73" transform="translate(0 -0.74)"/><path class="c" d="M246.33,291a30.69,30.69,0,0,0-4.61,2.24c-.1,1-.34,2-.51,3l-1.1,6-1.1,6-.55,3a36.59,36.59,0,0,0,3.47,3.73,36.1,36.1,0,0,0,4.57-2.25l.55-3,1.1-6,1.1-6c.2-1,.32-2,.59-3a30.74,30.74,0,0,0-3.51-3.73" transform="translate(0 -0.74)"/><path class="c" d="M38.91,406.52a30.45,30.45,0,0,0-1.69,4.66c.61.69,1.11,1.46,1.66,2.19l3.26,4.43,3.26,4.43L47,424.44a36.55,36.55,0,0,0,4.92-.21,36.51,36.51,0,0,0,1.66-4.64L52,417.38,48.72,413l-3.26-4.43c-.53-.75-1.12-1.45-1.6-2.24a30.39,30.39,0,0,0-5,.23" transform="translate(0 -0.74)"/><path class="c" d="M178.37,271.11a30.48,30.48,0,0,0-1.69,4.66c.61.69,1.11,1.46,1.66,2.19l3.26,4.43,3.26,4.43L186.5,289a36.12,36.12,0,0,0,4.92-.21,36.19,36.19,0,0,0,1.66-4.64L191.45,282l-3.26-4.43-3.26-4.43c-.53-.75-1.12-1.45-1.6-2.24a30.39,30.39,0,0,0-5,.23" transform="translate(0 -0.74)"/><path class="c" d="M151,304.23a30.69,30.69,0,0,0-4.61,2.24c-.1,1-.35,2-.51,3l-1.1,6-1.1,6-.55,3a36.59,36.59,0,0,0,3.47,3.73,36.1,36.1,0,0,0,4.57-2.25l.55-3,1.1-6,1.1-6c.2-1,.32-2,.59-3a30.54,30.54,0,0,0-3.51-3.73" transform="translate(0 -0.74)"/><path class="c" d="M104.4,402.25a30.69,30.69,0,0,0-4.61,2.24c-.1,1-.34,2-.51,3l-1.1,6-1.1,6-.55,3a36.35,36.35,0,0,0,3.47,3.73,36.61,36.61,0,0,0,4.57-2.25l.55-3,1.1-6,1.1-6c.2-1,.32-2,.59-3a30.54,30.54,0,0,0-3.51-3.73" transform="translate(0 -0.74)"/><path class="c" d="M167.76,365.23a30.69,30.69,0,0,0-4.61,2.24c-.1,1-.34,2-.51,3l-1.1,6-1.1,6-.55,3a36.35,36.35,0,0,0,3.47,3.73,36.61,36.61,0,0,0,4.57-2.25l.55-3,1.1-6,1.1-6c.2-1,.32-2,.59-3a30.54,30.54,0,0,0-3.51-3.73" transform="translate(0 -0.74)"/><path class="c" d="M83.84,325.8A30.69,30.69,0,0,0,79.23,328c-.1,1-.35,2-.51,3l-1.1,6-1.1,6L76,346a36.59,36.59,0,0,0,3.47,3.73A36.1,36.1,0,0,0,84,347.44l.55-3,1.1-6,1.1-6c.2-1,.32-2,.59-3a30.74,30.74,0,0,0-3.51-3.73" transform="translate(0 -0.74)"/><path class="c" d="M14.25,335.07a30.69,30.69,0,0,0-4.61,2.24c-.1,1-.35,2-.51,3l-1.1,6-1.1,6-.55,3A36.59,36.59,0,0,0,9.85,359a36.46,36.46,0,0,0,4.57-2.25l.55-3,1.1-6,1.1-6c.2-1,.32-2,.59-3a30.74,30.74,0,0,0-3.51-3.73" transform="translate(0 -0.74)"/><path class="c" d="M41.48,255.47a30.69,30.69,0,0,0-4.61,2.24c-.1,1-.35,2-.51,3l-1.1,6-1.1,6-.55,3a36.59,36.59,0,0,0,3.47,3.73,36.46,36.46,0,0,0,4.57-2.25l.55-3,1.1-6,1.1-6c.2-1,.32-2,.59-3a30.54,30.54,0,0,0-3.51-3.73" transform="translate(0 -0.74)"/><path class="c" d="M248.32,241.23a30.69,30.69,0,0,0-4.61,2.24c-.1,1-.35,2-.51,3l-1.1,6-1.1,6-.55,3a36.59,36.59,0,0,0,3.47,3.73,36.1,36.1,0,0,0,4.57-2.25l.55-3,1.1-6,1.1-6c.2-1,.32-2,.59-3a30.74,30.74,0,0,0-3.51-3.73" transform="translate(0 -0.74)"/><path class="c" d="M108.92,272a30.52,30.52,0,0,0,3.27-4c-.33-1-.51-2-.78-3l-1.48-6.07-1.48-6.08-.74-3a37,37,0,0,0-4.71-2.07,36.74,36.74,0,0,0-3.24,4l.74,3,1.48,6.08,1.47,6.07c.23,1,.53,2,.7,3a30.79,30.79,0,0,0,4.75,2.06" transform="translate(0 -0.74)"/><path class="c" d="M823.85,507.53a30.63,30.63,0,0,0-1.69,4.66c.61.69,1.11,1.46,1.66,2.19l3.26,4.43,3.26,4.43,1.63,2.21a36.55,36.55,0,0,0,4.92-.21,36.61,36.61,0,0,0,1.66-4.64l-1.63-2.21L833.66,514l-3.26-4.43c-.53-.75-1.12-1.45-1.6-2.24a30.39,30.39,0,0,0-5,.23" transform="translate(0 -0.74)"/><path class="c" d="M635.34,493.16a30.68,30.68,0,0,0-4.61,2.24c-.1,1-.34,2-.51,3l-1.1,6-1.1,6-.55,3a36.6,36.6,0,0,0,3.47,3.73,36.1,36.1,0,0,0,4.57-2.25l.55-3,1.1-6,1.1-6c.2-1,.32-2,.59-3a30.54,30.54,0,0,0-3.51-3.73" transform="translate(0 -0.74)"/><path class="c" d="M692.66,511a30.53,30.53,0,0,0,3.27-4c-.33-1-.51-2-.78-3l-1.48-6.07-1.48-6.08-.74-3a37.14,37.14,0,0,0-4.71-2.07,37,37,0,0,0-3.24,4l.74,3,1.48,6.08,1.47,6.07c.23,1,.53,2,.7,3a30.79,30.79,0,0,0,4.75,2.06" transform="translate(0 -0.74)"/><path class="c" d="M485.71,365.17a30.63,30.63,0,0,0-1.69,4.66c.61.69,1.11,1.46,1.66,2.19l3.26,4.43,3.26,4.43,1.63,2.21a36.55,36.55,0,0,0,4.92-.21,36.51,36.51,0,0,0,1.66-4.64L498.79,376l-3.26-4.43-3.26-4.43c-.53-.75-1.12-1.45-1.6-2.24a30.39,30.39,0,0,0-5,.23" transform="translate(0 -0.74)"/><path class="c" d="M604.65,410a30.56,30.56,0,0,0-1.69,4.66c.61.69,1.11,1.46,1.66,2.19l3.26,4.43,3.26,4.43,1.63,2.21a36.12,36.12,0,0,0,4.92-.21,36.19,36.19,0,0,0,1.66-4.64l-1.63-2.21-3.26-4.43L611.21,412c-.53-.75-1.12-1.45-1.6-2.24a30.39,30.39,0,0,0-5,.23" transform="translate(0 -0.74)"/><path class="c" d="M582.86,303.54a30.47,30.47,0,0,0-1.69,4.66c.61.69,1.11,1.46,1.66,2.19l3.26,4.43,3.26,4.43,1.63,2.21a36.12,36.12,0,0,0,4.92-.21,36.61,36.61,0,0,0,1.66-4.64l-1.63-2.21L592.67,310l-3.26-4.43c-.53-.75-1.12-1.45-1.6-2.24a30.39,30.39,0,0,0-5,.23" transform="translate(0 -0.74)"/><path class="c" d="M462.19,427.9a30.56,30.56,0,0,0-1.69,4.66c.61.69,1.11,1.46,1.66,2.19l3.26,4.43,3.26,4.43,1.63,2.21a36.12,36.12,0,0,0,4.92-.21A36.61,36.61,0,0,0,476.9,441l-1.63-2.21L472,434.33l-3.26-4.43c-.53-.75-1.12-1.45-1.6-2.24a30.39,30.39,0,0,0-5,.23" transform="translate(0 -0.74)"/><path class="c" d="M504.69,493.12a30.56,30.56,0,0,0-1.69,4.66c.61.69,1.11,1.46,1.66,2.19l3.26,4.43,3.26,4.43,1.63,2.21a36.52,36.52,0,0,0,4.92-.21,36.77,36.77,0,0,0,1.66-4.64L517.77,504l-3.26-4.43-3.26-4.43c-.53-.75-1.12-1.45-1.6-2.24a30.39,30.39,0,0,0-5,.23" transform="translate(0 -0.74)"/><path class="c" d="M234.11,381a30.57,30.57,0,0,0-1.69,4.66c.61.69,1.11,1.46,1.66,2.19l3.26,4.43,3.26,4.43,1.63,2.21a36.12,36.12,0,0,0,4.92-.21,36.61,36.61,0,0,0,1.66-4.64l-1.63-2.21-3.26-4.43L240.66,383c-.53-.75-1.12-1.45-1.6-2.24a30.39,30.39,0,0,0-5,.23" transform="translate(0 -0.74)"/><path class="c" d="M181.46,408.15a30.57,30.57,0,0,0-1.69,4.66c.61.69,1.11,1.46,1.66,2.19l3.26,4.43,3.26,4.43,1.63,2.21a36.12,36.12,0,0,0,4.92-.21,36.61,36.61,0,0,0,1.66-4.64L194.54,419l-3.26-4.43L188,410.15c-.53-.75-1.12-1.45-1.6-2.24a30.39,30.39,0,0,0-5,.23" transform="translate(0 -0.74)"/><path class="c" d="M95.71,459.93A30.48,30.48,0,0,0,94,464.59c.61.69,1.11,1.46,1.66,2.19l3.26,4.43,3.26,4.43,1.63,2.21a36.55,36.55,0,0,0,4.92-.21,36.51,36.51,0,0,0,1.66-4.64l-1.63-2.21-3.26-4.43-3.26-4.43c-.53-.75-1.12-1.45-1.6-2.24a30.39,30.39,0,0,0-5,.23" transform="translate(0 -0.74)"/><path class="c" d="M7.87,452.58a30.68,30.68,0,0,0-4.61,2.24c-.1,1-.34,2-.51,3l-1.1,6-1.1,6-.55,3a36.59,36.59,0,0,0,3.47,3.73A36.46,36.46,0,0,0,8,474.23l.55-3,1.1-6,1.1-6c.2-1,.32-2,.59-3a30.74,30.74,0,0,0-3.51-3.73" transform="translate(0 -0.74)"/><path class="c" d="M166.85,464.37a30.68,30.68,0,0,0-4.61,2.24c-.1,1-.34,2-.51,3l-1.1,6-1.1,6-.55,3a36.59,36.59,0,0,0,3.47,3.73A36.46,36.46,0,0,0,167,486l.55-3,1.1-6,1.1-6c.2-1,.32-2,.59-3a30.54,30.54,0,0,0-3.51-3.73" transform="translate(0 -0.74)"/><path class="c" d="M416.3,393.42a30.68,30.68,0,0,0-4.61,2.24c-.1,1-.34,2-.51,3l-1.1,6-1.1,6-.55,3a36.6,36.6,0,0,0,3.47,3.73,36.1,36.1,0,0,0,4.57-2.25l.55-3,1.1-6,1.1-6c.2-1,.32-2,.59-3a30.74,30.74,0,0,0-3.51-3.73" transform="translate(0 -0.74)"/><path class="c" d="M460.83,299.52a30.68,30.68,0,0,0-4.61,2.24c-.1,1-.34,2-.51,3l-1.1,6-1.1,6-.55,3a36.36,36.36,0,0,0,3.47,3.73,36.25,36.25,0,0,0,4.57-2.25l.55-3,1.1-6,1.1-6c.2-1,.32-2,.59-3a30.54,30.54,0,0,0-3.51-3.73" transform="translate(0 -0.74)"/><path class="c" d="M548.86,323.65a30.68,30.68,0,0,0-4.61,2.24c-.1,1-.34,2-.51,3l-1.1,6-1.1,6-.55,3a36.36,36.36,0,0,0,3.47,3.73,36.25,36.25,0,0,0,4.57-2.25l.55-3,1.1-6,1.1-6c.2-1,.32-2,.59-3a30.74,30.74,0,0,0-3.51-3.73" transform="translate(0 -0.74)"/><path class="c" d="M549.7,398.72a30.68,30.68,0,0,0-4.61,2.24c-.1,1-.34,2-.51,3l-1.1,6-1.1,6-.55,3a36.36,36.36,0,0,0,3.47,3.73,36.25,36.25,0,0,0,4.57-2.25l.55-3,1.1-6,1.1-6c.2-1,.32-2,.59-3a30.54,30.54,0,0,0-3.51-3.73" transform="translate(0 -0.74)"/><path class="c" d="M249,438.27a30.68,30.68,0,0,0-4.61,2.24c-.1,1-.34,2-.51,3l-1.1,6-1.1,6-.55,3a36.59,36.59,0,0,0,3.47,3.73,36.46,36.46,0,0,0,4.57-2.25l.55-3,1.1-6,1.1-6c.2-1,.32-2,.59-3a30.54,30.54,0,0,0-3.51-3.73" transform="translate(0 -0.74)"/><path class="c" d="M367.8,477.49a30.68,30.68,0,0,0-4.61,2.24c-.1,1-.34,2-.51,3l-1.1,6-1.1,6-.55,3a36.36,36.36,0,0,0,3.47,3.73,36.61,36.61,0,0,0,4.57-2.25l.55-3,1.1-6,1.1-6c.2-1,.32-2,.59-3a30.54,30.54,0,0,0-3.51-3.73" transform="translate(0 -0.74)"/><path class="c" d="M297.2,350.8a30.69,30.69,0,0,0-4.61,2.24c-.1,1-.35,2-.51,3l-1.1,6-1.1,6-.55,3a36.59,36.59,0,0,0,3.47,3.73,36.46,36.46,0,0,0,4.57-2.25l.55-3,1.1-6,1.1-6c.2-1,.32-2,.59-3a30.74,30.74,0,0,0-3.51-3.73" transform="translate(0 -0.74)"/><path class="c" d="M212.24,498.69a30.68,30.68,0,0,0-4.61,2.24c-.1,1-.34,2-.51,3l-1.1,6-1.1,6-.55,3a36.59,36.59,0,0,0,3.47,3.73,36.46,36.46,0,0,0,4.57-2.25l.55-3,1.1-6,1.1-6c.2-1,.32-2,.59-3a30.54,30.54,0,0,0-3.51-3.73" transform="translate(0 -0.74)"/><path class="c" d="M574.64,463.24a30.68,30.68,0,0,0-4.61,2.24c-.1,1-.34,2-.51,3l-1.1,6-1.1,6-.55,3a36.6,36.6,0,0,0,3.47,3.73,36.46,36.46,0,0,0,4.57-2.25l.55-3,1.1-6,1.1-6c.2-1,.32-2,.59-3a30.54,30.54,0,0,0-3.51-3.73" transform="translate(0 -0.74)"/><path class="c" d="M354.53,368.66a30.53,30.53,0,0,0,3.27-4c-.33-1-.51-2-.78-3l-1.48-6.08-1.48-6.07-.74-3a36.38,36.38,0,0,0-4.71-2.07,36.75,36.75,0,0,0-3.24,4l.74,3,1.48,6.08,1.47,6.07c.23,1,.53,2,.7,3a30.52,30.52,0,0,0,4.75,2.06" transform="translate(0 -0.74)"/><path class="c" d="M341.83,438.59a30.53,30.53,0,0,0,3.27-4c-.33-1-.51-2-.78-3l-1.48-6.07-1.48-6.08-.74-3a37,37,0,0,0-4.71-2.07,37,37,0,0,0-3.24,4l.74,3,1.48,6.08,1.48,6.07c.23,1,.53,2,.7,3a30.79,30.79,0,0,0,4.75,2.06" transform="translate(0 -0.74)"/><path class="c" d="M995.72,344.77a30.68,30.68,0,0,0-4.61,2.24c-.1,1-.34,2-.51,3l-1.1,6-1.1,6-.55,3a36.36,36.36,0,0,0,3.47,3.73,36.61,36.61,0,0,0,4.57-2.25l.55-3,1.1-6,1.1-6c.2-1,.33-2,.59-3a30.54,30.54,0,0,0-3.51-3.73" transform="translate(0 -0.74)"/><path class="c" d="M885.27,259.66a30.56,30.56,0,0,0-1.69,4.66c.61.69,1.11,1.46,1.66,2.19l3.26,4.43,3.26,4.43,1.63,2.21a36.12,36.12,0,0,0,4.92-.21,36.61,36.61,0,0,0,1.66-4.64l-1.63-2.21-3.26-4.43-3.26-4.43c-.53-.75-1.12-1.45-1.6-2.24a30.39,30.39,0,0,0-5,.23" transform="translate(0 -0.74)"/><path class="c" d="M788.31,460.3a30.63,30.63,0,0,0-1.69,4.66c.61.69,1.11,1.46,1.66,2.19l3.26,4.43L794.8,476l1.63,2.21a36.55,36.55,0,0,0,4.92-.21,36.61,36.61,0,0,0,1.66-4.64l-1.63-2.21-3.26-4.43-3.26-4.43c-.53-.75-1.12-1.45-1.6-2.24a30.39,30.39,0,0,0-5,.23" transform="translate(0 -0.74)"/><path class="c" d="M695.67,369a30.63,30.63,0,0,0-1.69,4.66c.61.69,1.11,1.46,1.66,2.19l3.26,4.43,3.26,4.43,1.63,2.21a36.12,36.12,0,0,0,4.92-.21,36.61,36.61,0,0,0,1.66-4.64l-1.63-2.21-3.26-4.43L702.23,371c-.53-.75-1.12-1.45-1.6-2.24a30.39,30.39,0,0,0-5,.23" transform="translate(0 -0.74)"/><path class="c" d="M927.77,324.88a30.56,30.56,0,0,0-1.69,4.66c.61.69,1.11,1.46,1.66,2.19l3.26,4.43,3.26,4.43,1.63,2.21a36.12,36.12,0,0,0,4.92-.21,36.61,36.61,0,0,0,1.66-4.64l-1.63-2.21-3.26-4.43-3.26-4.43c-.53-.75-1.12-1.45-1.6-2.24a30.39,30.39,0,0,0-5,.23" transform="translate(0 -0.74)"/><path class="c" d="M375.37,254.87a30.63,30.63,0,0,0-1.69,4.66c.61.69,1.11,1.46,1.66,2.19l3.26,4.43,3.26,4.43,1.63,2.21a36.55,36.55,0,0,0,4.92-.21,36.61,36.61,0,0,0,1.66-4.64l-1.63-2.21-3.26-4.43-3.26-4.43c-.53-.75-1.12-1.45-1.6-2.24a30.39,30.39,0,0,0-5,.23" transform="translate(0 -0.74)"/><path class="c" d="M421.29,342.65a30.56,30.56,0,0,0-1.69,4.66c.61.69,1.11,1.46,1.66,2.19l3.26,4.43,3.26,4.43,1.63,2.21a36.12,36.12,0,0,0,4.92-.21,36.61,36.61,0,0,0,1.66-4.64l-1.63-2.21-3.26-4.43-3.26-4.43c-.53-.75-1.12-1.45-1.6-2.24a30.39,30.39,0,0,0-5,.23" transform="translate(0 -0.74)"/><path class="c" d="M900.44,358a30.68,30.68,0,0,0-4.61,2.24c-.1,1-.34,2-.51,3l-1.1,6-1.1,6-.55,3A36.36,36.36,0,0,0,896,381.9a36.61,36.61,0,0,0,4.57-2.25l.55-3,1.1-6,1.1-6c.2-1,.32-2,.59-3a30.54,30.54,0,0,0-3.51-3.73" transform="translate(0 -0.74)"/><path class="c" d="M853.8,456a30.68,30.68,0,0,0-4.61,2.24c-.1,1-.35,2-.51,3l-1.1,6-1.1,6-.55,3a36.6,36.6,0,0,0,3.47,3.73,36.1,36.1,0,0,0,4.57-2.25l.55-3,1.1-6,1.1-6c.2-1,.32-2,.59-3A30.74,30.74,0,0,0,853.8,456" transform="translate(0 -0.74)"/><path class="c" d="M917.15,419a30.68,30.68,0,0,0-4.61,2.24c-.1,1-.35,2-.51,3l-1.1,6-1.1,6-.55,3a36.6,36.6,0,0,0,3.47,3.73,36.46,36.46,0,0,0,4.57-2.25l.55-3,1.1-6,1.1-6c.2-1,.32-2,.59-3a30.74,30.74,0,0,0-3.51-3.73" transform="translate(0 -0.74)"/><path class="c" d="M833.24,379.58a30.68,30.68,0,0,0-4.61,2.24c-.1,1-.34,2-.51,3l-1.1,6-1.1,6-.55,3a36.36,36.36,0,0,0,3.47,3.73,36.61,36.61,0,0,0,4.57-2.25l.55-3,1.1-6,1.1-6c.2-1,.32-2,.59-3a30.74,30.74,0,0,0-3.51-3.73" transform="translate(0 -0.74)"/><path class="c" d="M763.65,388.84a30.68,30.68,0,0,0-4.61,2.24c-.1,1-.34,2-.51,3l-1.1,6-1.1,6-.55,3a36.6,36.6,0,0,0,3.47,3.73,36.46,36.46,0,0,0,4.57-2.25l.55-3,1.1-6,1.1-6c.2-1,.32-2,.59-3a30.54,30.54,0,0,0-3.51-3.73" transform="translate(0 -0.74)"/><path class="c" d="M672.11,270a30.68,30.68,0,0,0-4.61,2.24c-.1,1-.35,2-.51,3l-1.1,6-1.1,6-.55,3a36.6,36.6,0,0,0,3.47,3.73,36.46,36.46,0,0,0,4.57-2.25l.55-3,1.1-6,1.1-6c.2-1,.32-2,.59-3a30.74,30.74,0,0,0-3.51-3.73" transform="translate(0 -0.74)"/><path class="c" d="M726.79,451a30.68,30.68,0,0,0-4.61,2.24c-.1,1-.34,2-.51,3l-1.1,6-1.1,6-.55,3a36.6,36.6,0,0,0,3.47,3.73,36.1,36.1,0,0,0,4.57-2.25l.55-3,1.1-6,1.1-6c.2-1,.32-2,.59-3a30.54,30.54,0,0,0-3.51-3.73" transform="translate(0 -0.74)"/><path class="c" d="M667.06,397a30.68,30.68,0,0,0-4.61,2.24c-.1,1-.35,2-.51,3l-1.1,6-1.1,6-.55,3a36.6,36.6,0,0,0,3.47,3.73,36.46,36.46,0,0,0,4.57-2.25l.55-3,1.1-6,1.1-6c.2-1,.32-2,.59-3a30.74,30.74,0,0,0-3.51-3.73" transform="translate(0 -0.74)"/><path class="c" d="M790.88,309.25a30.68,30.68,0,0,0-4.61,2.24c-.1,1-.34,2-.51,3l-1.1,6-1.1,6-.55,3a36.36,36.36,0,0,0,3.47,3.73,36.61,36.61,0,0,0,4.57-2.25l.55-3,1.1-6,1.1-6c.2-1,.32-2,.59-3a30.74,30.74,0,0,0-3.51-3.73" transform="translate(0 -0.74)"/><path class="c" d="M635.32,330.45a30.68,30.68,0,0,0-4.61,2.24c-.1,1-.35,2-.51,3l-1.1,6-1.1,6-.55,3a36.6,36.6,0,0,0,3.47,3.73,36.46,36.46,0,0,0,4.57-2.25l.55-3,1.1-6,1.1-6c.2-1,.32-2,.59-3a30.74,30.74,0,0,0-3.51-3.73" transform="translate(0 -0.74)"/><path class="c" d="M997.72,295a30.68,30.68,0,0,0-4.61,2.24c-.1,1-.34,2-.51,3l-1.1,6-1.1,6-.55,3a36.36,36.36,0,0,0,3.47,3.73,36.61,36.61,0,0,0,4.57-2.25l.55-3,1.1-6,1.1-6c.2-1,.32-2,.59-3a30.54,30.54,0,0,0-3.51-3.73" transform="translate(0 -0.74)"/><path class="c" d="M972.36,506.55a30.68,30.68,0,0,0-4.61,2.24c-.1,1-.35,2-.51,3l-1.1,6-1.1,6-.55,3a36.6,36.6,0,0,0,3.47,3.73,36.11,36.11,0,0,0,4.57-2.25l.55-3,1.1-6,1.1-6c.2-1,.32-2,.59-3a30.74,30.74,0,0,0-3.51-3.73" transform="translate(0 -0.74)"/><path class="c" d="M963.43,432.55a30.68,30.68,0,0,0-4.61,2.24c-.1,1-.34,2-.51,3l-1.1,6-1.1,6-.55,3a36.6,36.6,0,0,0,3.47,3.73,36.46,36.46,0,0,0,4.57-2.25l.55-3,1.1-6,1.1-6c.2-1,.32-2,.59-3a30.74,30.74,0,0,0-3.51-3.73" transform="translate(0 -0.74)"/><path class="c" d="M732.39,310.25a30.68,30.68,0,0,0-4.61,2.24c-.1,1-.34,2-.51,3l-1.1,6-1.1,6-.55,3a36.6,36.6,0,0,0,3.47,3.73,36.1,36.1,0,0,0,4.57-2.25l.55-3,1.1-6,1.1-6c.2-1,.32-2,.59-3a30.54,30.54,0,0,0-3.51-3.73" transform="translate(0 -0.74)"/><path class="c" d="M858.32,325.8a30.53,30.53,0,0,0,3.27-4c-.33-1-.51-2-.78-3l-1.48-6.08-1.48-6.07-.74-3a36.61,36.61,0,0,0-4.71-2.07,36.75,36.75,0,0,0-3.24,4l.74,3,1.48,6.08,1.47,6.07c.23,1,.53,2,.7,3a30.79,30.79,0,0,0,4.75,2.06" transform="translate(0 -0.74)"/><path class="c" d="M764.91,270.35a30.53,30.53,0,0,0,3.27-4c-.33-1-.51-2-.78-3l-1.48-6.08-1.48-6.07-.74-3A36.24,36.24,0,0,0,759,246a36.39,36.39,0,0,0-3.23,4l.74,3,1.48,6.08,1.48,6.07c.23,1,.53,2,.7,3a30.79,30.79,0,0,0,4.75,2.06" transform="translate(0 -0.74)"/><path class="c" d="M440.34,72.2a30.64,30.64,0,0,0-1.69,4.66c.61.69,1.11,1.46,1.66,2.19l3.26,4.43,3.26,4.43,1.63,2.21a36.55,36.55,0,0,0,4.92-.21A36.61,36.61,0,0,0,455,85.27l-1.63-2.21-3.26-4.43-3.26-4.43c-.53-.75-1.12-1.45-1.6-2.24a30.39,30.39,0,0,0-5,.23" transform="translate(0 -0.74)"/><path class="c" d="M505.83,67.93a30.68,30.68,0,0,0-4.61,2.24c-.1,1-.34,2-.51,3l-1.1,6-1.1,6-.55,3a36.36,36.36,0,0,0,3.47,3.73A36.25,36.25,0,0,0,506,89.57l.55-3,1.1-6,1.1-6c.2-1,.32-2,.59-3a30.54,30.54,0,0,0-3.51-3.73" transform="translate(0 -0.74)"/><path class="c" d="M569.18,30.91a30.68,30.68,0,0,0-4.61,2.24c-.1,1-.34,2-.51,3l-1.1,6-1.1,6-.55,3a36.36,36.36,0,0,0,3.47,3.73,36.61,36.61,0,0,0,4.57-2.25l.55-3,1.1-6,1.1-6c.2-1,.32-2,.59-3a30.54,30.54,0,0,0-3.51-3.73" transform="translate(0 -0.74)"/><path class="c" d="M632.17,45.38a30.68,30.68,0,0,0-4.61,2.24c-.1,1-.34,2-.51,3l-1.1,6-1.1,6-.55,3a36.6,36.6,0,0,0,3.47,3.73A36.46,36.46,0,0,0,632.35,67l.55-3,1.1-6,1.1-6c.2-1,.32-2,.59-3a30.54,30.54,0,0,0-3.51-3.73" transform="translate(0 -0.74)"/><path class="c" d="M683.47,42.33a30.68,30.68,0,0,0-4.61,2.24c-.1,1-.34,2-.51,3l-1.1,6-1.1,6-.55,3a36.36,36.36,0,0,0,3.47,3.73A36.61,36.61,0,0,0,683.65,64l.55-3,1.1-6,1.1-6c.2-1,.32-2,.59-3a30.74,30.74,0,0,0-3.51-3.73" transform="translate(0 -0.74)"/><path class="c" d="M415.68.74A30.69,30.69,0,0,0,411.07,3c-.1,1-.35,2-.51,3l-1.1,6-1.1,6-.55,3a36.59,36.59,0,0,0,3.47,3.73,36.46,36.46,0,0,0,4.57-2.25l.55-3,1.1-6,1.1-6c.2-1,.32-2,.59-3A30.74,30.74,0,0,0,415.68.74" transform="translate(0 -0.74)"/><path class="c" d="M378.82,62.88a30.69,30.69,0,0,0-4.61,2.24c-.1,1-.34,2-.51,3l-1.1,6-1.1,6L371,83a36.59,36.59,0,0,0,3.47,3.73A36.1,36.1,0,0,0,379,84.52l.55-3,1.1-6,1.1-6c.2-1,.32-2,.59-3a30.74,30.74,0,0,0-3.51-3.73" transform="translate(0 -0.74)"/><path class="c" d="M171.41,178.41a30.45,30.45,0,0,0-1.69,4.66c.61.69,1.11,1.46,1.66,2.19l3.26,4.43,3.26,4.43,1.63,2.21a36.55,36.55,0,0,0,4.92-.21,36.51,36.51,0,0,0,1.66-4.64l-1.63-2.21-3.26-4.43L178,180.41c-.53-.75-1.12-1.45-1.6-2.24a30.39,30.39,0,0,0-5,.23" transform="translate(0 -0.74)"/><path class="c" d="M310.87,43a30.48,30.48,0,0,0-1.69,4.66c.61.69,1.11,1.46,1.66,2.19l3.26,4.43,3.26,4.43L319,60.91a36.12,36.12,0,0,0,4.92-.21,36.19,36.19,0,0,0,1.66-4.64l-1.63-2.21-3.26-4.43L317.42,45c-.53-.75-1.12-1.45-1.6-2.24a30.39,30.39,0,0,0-5,.23" transform="translate(0 -0.74)"/><path class="c" d="M283.54,76.12a30.69,30.69,0,0,0-4.61,2.24c-.1,1-.35,2-.51,3l-1.1,6-1.1,6-.55,3a36.59,36.59,0,0,0,3.47,3.73,36.1,36.1,0,0,0,4.57-2.25l.55-3,1.1-6,1.1-6c.2-1,.32-2,.59-3a30.54,30.54,0,0,0-3.51-3.73" transform="translate(0 -0.74)"/><path class="c" d="M236.9,174.14a30.69,30.69,0,0,0-4.61,2.24c-.1,1-.34,2-.51,3l-1.1,6-1.1,6-.55,3A36.35,36.35,0,0,0,232.5,198a36.61,36.61,0,0,0,4.57-2.25l.55-3,1.1-6,1.1-6c.2-1,.32-2,.59-3a30.54,30.54,0,0,0-3.51-3.73" transform="translate(0 -0.74)"/><path class="c" d="M300.25,137.12a30.69,30.69,0,0,0-4.61,2.24c-.1,1-.34,2-.51,3l-1.1,6-1.1,6-.55,3a36.35,36.35,0,0,0,3.47,3.73,36.61,36.61,0,0,0,4.57-2.25l.55-3,1.1-6,1.1-6c.2-1,.32-2,.59-3a30.54,30.54,0,0,0-3.51-3.73" transform="translate(0 -0.74)"/><path class="c" d="M216.34,97.68a30.69,30.69,0,0,0-4.61,2.24c-.1,1-.35,2-.51,3l-1.1,6-1.1,6-.55,3a36.59,36.59,0,0,0,3.47,3.73,36.1,36.1,0,0,0,4.57-2.25l.55-3,1.1-6,1.1-6c.2-1,.32-2,.59-3a30.74,30.74,0,0,0-3.51-3.73" transform="translate(0 -0.74)"/><path class="c" d="M174,27.35a30.69,30.69,0,0,0-4.61,2.24c-.1,1-.35,2-.51,3l-1.1,6-1.1,6-.55,3a36.59,36.59,0,0,0,3.47,3.73A36.46,36.46,0,0,0,174.15,49l.55-3,1.1-6,1.1-6c.2-1,.32-2,.59-3A30.54,30.54,0,0,0,174,27.35" transform="translate(0 -0.74)"/><path class="c" d="M380.82,13.11a30.69,30.69,0,0,0-4.61,2.24c-.1,1-.35,2-.51,3l-1.1,6-1.1,6-.55,3A36.59,36.59,0,0,0,376.42,37,36.1,36.1,0,0,0,381,34.75l.55-3,1.1-6,1.1-6c.2-1,.32-2,.59-3a30.74,30.74,0,0,0-3.51-3.73" transform="translate(0 -0.74)"/><path class="c" d="M241.42,43.91a30.52,30.52,0,0,0,3.27-4c-.33-1-.51-2-.78-3l-1.48-6.07L241,24.72l-.74-3a37,37,0,0,0-4.71-2.07,36.74,36.74,0,0,0-3.24,4l.74,3,1.48,6.08L236,38.8c.23,1,.53,2,.7,3a30.79,30.79,0,0,0,4.75,2.06" transform="translate(0 -0.74)"/><path class="c" d="M956.35,279.41a30.63,30.63,0,0,0-1.69,4.66c.61.69,1.11,1.46,1.66,2.19l3.26,4.43,3.26,4.43,1.63,2.21a36.55,36.55,0,0,0,4.92-.21,36.61,36.61,0,0,0,1.66-4.64l-1.63-2.21-3.26-4.43-3.26-4.43c-.53-.75-1.12-1.45-1.6-2.24a30.39,30.39,0,0,0-5,.23" transform="translate(0 -0.74)"/><path class="c" d="M825.16,282.91a30.53,30.53,0,0,0,3.27-4c-.33-1-.51-2-.78-3l-1.48-6.07-1.48-6.08-.74-3a37.14,37.14,0,0,0-4.71-2.07,37,37,0,0,0-3.24,4l.74,3,1.48,6.08,1.47,6.07c.23,1,.53,2,.7,3a30.79,30.79,0,0,0,4.75,2.06" transform="translate(0 -0.74)"/><path class="c" d="M618.21,137a30.63,30.63,0,0,0-1.69,4.66c.61.69,1.11,1.46,1.66,2.19l3.26,4.43,3.26,4.43,1.63,2.21a36.55,36.55,0,0,0,4.92-.21,36.51,36.51,0,0,0,1.66-4.64l-1.63-2.21L628,143.48l-3.26-4.43c-.53-.75-1.12-1.45-1.6-2.24a30.39,30.39,0,0,0-5,.23" transform="translate(0 -0.74)"/><path class="c" d="M737.15,181.91a30.56,30.56,0,0,0-1.69,4.66c.61.69,1.11,1.46,1.66,2.19l3.26,4.43,3.26,4.43,1.63,2.21a36.12,36.12,0,0,0,4.92-.21,36.19,36.19,0,0,0,1.66-4.64l-1.63-2.21L747,188.34l-3.26-4.43c-.53-.75-1.12-1.45-1.6-2.24a30.39,30.39,0,0,0-5,.23" transform="translate(0 -0.74)"/><path class="c" d="M715.36,75.43a30.47,30.47,0,0,0-1.69,4.66c.61.69,1.11,1.46,1.66,2.19l3.26,4.43,3.26,4.43,1.63,2.21a36.12,36.12,0,0,0,4.92-.21,36.61,36.61,0,0,0,1.66-4.64l-1.63-2.21-3.26-4.43-3.26-4.43c-.53-.75-1.12-1.45-1.6-2.24a30.39,30.39,0,0,0-5,.23" transform="translate(0 -0.74)"/><path class="c" d="M594.69,199.78a30.56,30.56,0,0,0-1.69,4.66c.61.69,1.11,1.46,1.66,2.19l3.26,4.43,3.26,4.43,1.63,2.21a36.12,36.12,0,0,0,4.92-.21,36.61,36.61,0,0,0,1.66-4.64l-1.63-2.21-3.26-4.43-3.26-4.43c-.53-.75-1.12-1.45-1.6-2.24a30.39,30.39,0,0,0-5,.23" transform="translate(0 -0.74)"/><path class="c" d="M637.19,265a30.56,30.56,0,0,0-1.69,4.66c.61.69,1.11,1.46,1.66,2.19l3.26,4.43,3.26,4.43,1.63,2.21a36.52,36.52,0,0,0,4.92-.21,36.77,36.77,0,0,0,1.66-4.64l-1.63-2.21L647,271.44,643.74,267c-.53-.75-1.12-1.45-1.6-2.24a30.39,30.39,0,0,0-5,.23" transform="translate(0 -0.74)"/><path class="c" d="M366.6,152.9a30.57,30.57,0,0,0-1.69,4.66c.61.69,1.11,1.46,1.66,2.19l3.26,4.43,3.26,4.43,1.63,2.21a36.12,36.12,0,0,0,4.92-.21,36.61,36.61,0,0,0,1.66-4.64l-1.63-2.21-3.26-4.43-3.26-4.43c-.53-.75-1.12-1.45-1.6-2.24a30.39,30.39,0,0,0-5,.23" transform="translate(0 -0.74)"/><path class="c" d="M314,180a30.57,30.57,0,0,0-1.69,4.66c.61.69,1.11,1.46,1.66,2.19l3.26,4.43,3.26,4.43,1.63,2.21a36.12,36.12,0,0,0,4.92-.21,36.61,36.61,0,0,0,1.66-4.64L327,190.89l-3.26-4.43L320.51,182c-.53-.75-1.12-1.45-1.6-2.24a30.39,30.39,0,0,0-5,.23" transform="translate(0 -0.74)"/><path class="c" d="M548.79,165.3a30.68,30.68,0,0,0-4.61,2.24c-.1,1-.34,2-.51,3l-1.1,6-1.1,6-.55,3a36.6,36.6,0,0,0,3.47,3.73,36.1,36.1,0,0,0,4.57-2.25l.55-3,1.1-6,1.1-6c.2-1,.32-2,.59-3a30.74,30.74,0,0,0-3.51-3.73" transform="translate(0 -0.74)"/><path class="c" d="M593.33,71.41a30.68,30.68,0,0,0-4.61,2.24c-.1,1-.34,2-.51,3l-1.1,6-1.1,6-.55,3a36.36,36.36,0,0,0,3.47,3.73A36.25,36.25,0,0,0,593.5,93l.55-3,1.1-6,1.1-6c.2-1,.32-2,.59-3a30.54,30.54,0,0,0-3.51-3.73" transform="translate(0 -0.74)"/><path class="c" d="M681.36,95.53a30.68,30.68,0,0,0-4.61,2.24c-.1,1-.34,2-.51,3l-1.1,6-1.1,6-.55,3a36.36,36.36,0,0,0,3.47,3.73,36.25,36.25,0,0,0,4.57-2.25l.55-3,1.1-6,1.1-6c.2-1,.32-2,.59-3a30.74,30.74,0,0,0-3.51-3.73" transform="translate(0 -0.74)"/><path class="c" d="M682.2,170.6a30.68,30.68,0,0,0-4.61,2.24c-.1,1-.34,2-.51,3l-1.1,6-1.1,6-.55,3a36.36,36.36,0,0,0,3.47,3.73,36.25,36.25,0,0,0,4.57-2.25l.55-3,1.1-6,1.1-6c.2-1,.32-2,.59-3a30.54,30.54,0,0,0-3.51-3.73" transform="translate(0 -0.74)"/><path class="c" d="M381.53,210.16a30.68,30.68,0,0,0-4.61,2.24c-.1,1-.34,2-.51,3l-1.1,6-1.1,6-.55,3a36.59,36.59,0,0,0,3.47,3.73,36.46,36.46,0,0,0,4.57-2.25l.55-3,1.1-6,1.1-6c.2-1,.32-2,.59-3a30.54,30.54,0,0,0-3.51-3.73" transform="translate(0 -0.74)"/><path class="c" d="M500.3,249.37a30.68,30.68,0,0,0-4.61,2.24c-.1,1-.34,2-.51,3l-1.1,6-1.1,6-.55,3a36.36,36.36,0,0,0,3.47,3.73,36.61,36.61,0,0,0,4.57-2.25l.55-3,1.1-6,1.1-6c.2-1,.32-2,.59-3a30.54,30.54,0,0,0-3.51-3.73" transform="translate(0 -0.74)"/><path class="c" d="M429.7,122.68a30.69,30.69,0,0,0-4.61,2.24c-.1,1-.35,2-.51,3l-1.1,6-1.1,6-.55,3a36.59,36.59,0,0,0,3.47,3.73,36.46,36.46,0,0,0,4.57-2.25l.55-3,1.1-6,1.1-6c.2-1,.32-2,.59-3a30.74,30.74,0,0,0-3.51-3.73" transform="translate(0 -0.74)"/><path class="c" d="M344.74,270.58a30.68,30.68,0,0,0-4.61,2.24c-.1,1-.34,2-.51,3l-1.1,6-1.1,6-.55,3a36.59,36.59,0,0,0,3.47,3.73,36.46,36.46,0,0,0,4.57-2.25l.55-3,1.1-6,1.1-6c.2-1,.32-2,.59-3a30.54,30.54,0,0,0-3.51-3.73" transform="translate(0 -0.74)"/><path class="c" d="M707.14,235.13a30.68,30.68,0,0,0-4.61,2.24c-.1,1-.34,2-.51,3l-1.1,6-1.1,6-.55,3a36.6,36.6,0,0,0,3.47,3.73,36.46,36.46,0,0,0,4.57-2.25l.55-3,1.1-6,1.1-6c.2-1,.32-2,.59-3a30.54,30.54,0,0,0-3.51-3.73" transform="translate(0 -0.74)"/><path class="c" d="M441.81,250.37a30.68,30.68,0,0,0-4.61,2.24c-.1,1-.34,2-.51,3l-1.1,6-1.1,6-.55,3a36.59,36.59,0,0,0,3.47,3.73A36.46,36.46,0,0,0,442,272l.55-3,1.1-6,1.1-6c.2-1,.32-2,.59-3a30.54,30.54,0,0,0-3.51-3.73" transform="translate(0 -0.74)"/><path class="c" d="M567.74,265.93a30.53,30.53,0,0,0,3.27-4c-.33-1-.51-2-.78-3l-1.48-6.08-1.48-6.07-.74-3a36.24,36.24,0,0,0-4.71-2.07,37,37,0,0,0-3.24,4l.74,3,1.48,6.08,1.47,6.07c.23,1,.53,2,.7,3a30.79,30.79,0,0,0,4.75,2.06" transform="translate(0 -0.74)"/><path class="c" d="M487,140.55a30.53,30.53,0,0,0,3.27-4c-.33-1-.51-2-.78-3L488,127.43l-1.48-6.07-.74-3a36.38,36.38,0,0,0-4.71-2.07,36.75,36.75,0,0,0-3.24,4l.74,3,1.48,6.08,1.47,6.07c.23,1,.53,2,.7,3a30.52,30.52,0,0,0,4.75,2.06" transform="translate(0 -0.74)"/><path class="c" d="M474.33,210.47a30.53,30.53,0,0,0,3.27-4c-.33-1-.51-2-.78-3l-1.48-6.07-1.48-6.08-.74-3a37,37,0,0,0-4.71-2.07,37,37,0,0,0-3.24,4l.74,3,1.48,6.08,1.48,6.07c.23,1,.53,2,.7,3a30.79,30.79,0,0,0,4.75,2.06" transform="translate(0 -0.74)"/><path class="c" d="M1128.22,116.66a30.68,30.68,0,0,0-4.61,2.24c-.1,1-.34,2-.51,3l-1.1,6-1.1,6-.55,3a36.36,36.36,0,0,0,3.47,3.73,36.61,36.61,0,0,0,4.57-2.25l.55-3,1.1-6,1.1-6c.2-1,.33-2,.59-3a30.54,30.54,0,0,0-3.51-3.73" transform="translate(0 -0.74)"/><path class="c" d="M1082,30.52a30.68,30.68,0,0,0-4.61,2.24c-.1,1-.34,2-.51,3l-1.1,6-1.1,6-.55,3a36.36,36.36,0,0,0,3.47,3.73,36.61,36.61,0,0,0,4.57-2.25l.55-3,1.1-6,1.1-6c.2-1,.32-2,.59-3a30.74,30.74,0,0,0-3.51-3.73" transform="translate(0 -0.74)"/><path class="c" d="M1017.76,31.54a30.56,30.56,0,0,0-1.69,4.66c.61.69,1.11,1.46,1.66,2.19l3.26,4.43,3.26,4.43,1.63,2.21a36.12,36.12,0,0,0,4.92-.21,36.61,36.61,0,0,0,1.66-4.64l-1.63-2.21L1027.58,38l-3.26-4.43c-.53-.75-1.12-1.45-1.6-2.24a30.39,30.39,0,0,0-5,.23" transform="translate(0 -0.74)"/><path class="c" d="M920.8,232.19a30.63,30.63,0,0,0-1.69,4.66c.61.69,1.11,1.46,1.66,2.19l3.26,4.43,3.26,4.43,1.63,2.21a36.55,36.55,0,0,0,4.92-.21,36.61,36.61,0,0,0,1.66-4.64L933.88,243l-3.26-4.43-3.26-4.43c-.53-.75-1.12-1.45-1.6-2.24a30.39,30.39,0,0,0-5,.23" transform="translate(0 -0.74)"/><path class="c" d="M828.17,140.84a30.63,30.63,0,0,0-1.69,4.66c.61.69,1.11,1.46,1.66,2.19l3.26,4.43,3.26,4.43,1.63,2.21a36.12,36.12,0,0,0,4.92-.21,36.61,36.61,0,0,0,1.66-4.64l-1.63-2.21L838,147.27l-3.26-4.43c-.53-.75-1.12-1.45-1.6-2.24a30.39,30.39,0,0,0-5,.23" transform="translate(0 -0.74)"/><path class="c" d="M1060.27,96.77a30.56,30.56,0,0,0-1.69,4.66c.61.69,1.11,1.46,1.66,2.19l3.26,4.43,3.26,4.43,1.63,2.21a36.12,36.12,0,0,0,4.92-.21,36.61,36.61,0,0,0,1.66-4.64l-1.63-2.21-3.26-4.43-3.26-4.43c-.53-.75-1.12-1.45-1.6-2.24a30.39,30.39,0,0,0-5,.23" transform="translate(0 -0.74)"/><path class="c" d="M507.87,26.75a30.63,30.63,0,0,0-1.69,4.66c.61.69,1.11,1.46,1.66,2.19L511.1,38l3.26,4.43L516,44.67a36.55,36.55,0,0,0,4.92-.21,36.61,36.61,0,0,0,1.66-4.64l-1.63-2.21-3.26-4.43-3.26-4.43c-.53-.75-1.12-1.45-1.6-2.24a30.39,30.39,0,0,0-5,.23" transform="translate(0 -0.74)"/><path class="c" d="M553.79,114.53a30.56,30.56,0,0,0-1.69,4.66c.61.69,1.11,1.46,1.66,2.19l3.26,4.43,3.26,4.43,1.63,2.21a36.12,36.12,0,0,0,4.92-.21,36.61,36.61,0,0,0,1.66-4.64l-1.63-2.21L563.6,121l-3.26-4.43c-.53-.75-1.12-1.45-1.6-2.24a30.39,30.39,0,0,0-5,.23" transform="translate(0 -0.74)"/><path class="c" d="M1032.93,129.89a30.68,30.68,0,0,0-4.61,2.24c-.1,1-.34,2-.51,3l-1.1,6-1.1,6-.55,3a36.36,36.36,0,0,0,3.47,3.73,36.61,36.61,0,0,0,4.57-2.25l.55-3,1.1-6,1.1-6c.2-1,.32-2,.59-3a30.54,30.54,0,0,0-3.51-3.73" transform="translate(0 -0.74)"/><path class="c" d="M986.3,227.91a30.68,30.68,0,0,0-4.61,2.24c-.1,1-.35,2-.51,3l-1.1,6-1.1,6-.55,3a36.6,36.6,0,0,0,3.47,3.73,36.1,36.1,0,0,0,4.57-2.25l.55-3,1.1-6,1.1-6c.2-1,.32-2,.59-3a30.74,30.74,0,0,0-3.51-3.73" transform="translate(0 -0.74)"/><path class="c" d="M1049.65,190.89a30.68,30.68,0,0,0-4.61,2.24c-.1,1-.35,2-.51,3l-1.1,6-1.1,6-.55,3a36.6,36.6,0,0,0,3.47,3.73,36.46,36.46,0,0,0,4.57-2.25l.55-3,1.1-6,1.1-6c.2-1,.32-2,.59-3a30.74,30.74,0,0,0-3.51-3.73" transform="translate(0 -0.74)"/><path class="c" d="M965.74,151.46a30.68,30.68,0,0,0-4.61,2.24c-.1,1-.34,2-.51,3l-1.1,6-1.1,6-.55,3a36.36,36.36,0,0,0,3.47,3.73,36.61,36.61,0,0,0,4.57-2.25l.55-3,1.1-6,1.1-6c.2-1,.32-2,.59-3a30.74,30.74,0,0,0-3.51-3.73" transform="translate(0 -0.74)"/><path class="c" d="M896.14,160.73a30.68,30.68,0,0,0-4.61,2.24c-.1,1-.34,2-.51,3l-1.1,6-1.1,6-.55,3a36.6,36.6,0,0,0,3.47,3.73,36.46,36.46,0,0,0,4.57-2.25l.55-3,1.1-6,1.1-6c.2-1,.32-2,.59-3a30.54,30.54,0,0,0-3.51-3.73" transform="translate(0 -0.74)"/><path class="c" d="M804.61,41.92A30.68,30.68,0,0,0,800,44.16c-.1,1-.35,2-.51,3l-1.1,6-1.1,6-.55,3a36.6,36.6,0,0,0,3.47,3.73,36.46,36.46,0,0,0,4.57-2.25l.55-3,1.1-6,1.1-6c.2-1,.32-2,.59-3a30.74,30.74,0,0,0-3.51-3.73" transform="translate(0 -0.74)"/><path class="c" d="M859.29,222.87a30.68,30.68,0,0,0-4.61,2.24c-.1,1-.34,2-.51,3l-1.1,6-1.1,6-.55,3a36.6,36.6,0,0,0,3.47,3.73,36.1,36.1,0,0,0,4.57-2.25l.55-3,1.1-6,1.1-6c.2-1,.32-2,.59-3a30.54,30.54,0,0,0-3.51-3.73" transform="translate(0 -0.74)"/><path class="c" d="M799.56,168.92a30.68,30.68,0,0,0-4.61,2.24c-.1,1-.35,2-.51,3l-1.1,6-1.1,6-.55,3a36.6,36.6,0,0,0,3.47,3.73,36.46,36.46,0,0,0,4.57-2.25l.55-3,1.1-6,1.1-6c.2-1,.32-2,.59-3a30.74,30.74,0,0,0-3.51-3.73" transform="translate(0 -0.74)"/><path class="c" d="M923.38,81.13a30.68,30.68,0,0,0-4.61,2.24c-.1,1-.34,2-.51,3l-1.1,6-1.1,6-.55,3A36.36,36.36,0,0,0,919,105a36.61,36.61,0,0,0,4.57-2.25l.55-3,1.1-6,1.1-6c.2-1,.32-2,.59-3a30.74,30.74,0,0,0-3.51-3.73" transform="translate(0 -0.74)"/><path class="c" d="M767.82,102.34a30.68,30.68,0,0,0-4.61,2.24c-.1,1-.35,2-.51,3l-1.1,6-1.1,6-.55,3a36.6,36.6,0,0,0,3.47,3.73A36.46,36.46,0,0,0,768,124l.55-3,1.1-6,1.1-6c.2-1,.32-2,.59-3a30.74,30.74,0,0,0-3.51-3.73" transform="translate(0 -0.74)"/><path class="c" d="M1130.22,66.89a30.68,30.68,0,0,0-4.61,2.24c-.1,1-.34,2-.51,3l-1.1,6-1.1,6-.55,3a36.36,36.36,0,0,0,3.47,3.73,36.61,36.61,0,0,0,4.57-2.25l.55-3,1.1-6,1.1-6c.2-1,.32-2,.59-3a30.54,30.54,0,0,0-3.51-3.73" transform="translate(0 -0.74)"/><path class="c" d="M1046.61,267.53a30.54,30.54,0,0,0-1.69,4.66c.61.69,1.11,1.46,1.66,2.19l3.26,4.43,3.26,4.43,1.63,2.21a36.55,36.55,0,0,0,4.92-.21,36.51,36.51,0,0,0,1.66-4.64l-1.63-2.21-3.26-4.43-3.26-4.43c-.53-.75-1.12-1.45-1.6-2.24a30.39,30.39,0,0,0-5,.23" transform="translate(0 -0.74)"/><path class="c" d="M1104.86,278.44a30.68,30.68,0,0,0-4.61,2.24c-.1,1-.35,2-.51,3l-1.1,6-1.1,6-.55,3a36.6,36.6,0,0,0,3.47,3.73,36.11,36.11,0,0,0,4.57-2.25l.55-3,1.1-6,1.1-6c.2-1,.32-2,.59-3a30.74,30.74,0,0,0-3.51-3.73" transform="translate(0 -0.74)"/><path class="c" d="M1095.92,204.43a30.68,30.68,0,0,0-4.61,2.24c-.1,1-.34,2-.51,3l-1.1,6-1.1,6-.55,3a36.6,36.6,0,0,0,3.47,3.73,36.46,36.46,0,0,0,4.57-2.25l.55-3,1.1-6,1.1-6c.2-1,.32-2,.59-3a30.74,30.74,0,0,0-3.51-3.73" transform="translate(0 -0.74)"/><path class="c" d="M864.88,82.13a30.68,30.68,0,0,0-4.61,2.24c-.1,1-.34,2-.51,3l-1.1,6-1.1,6-.55,3a36.6,36.6,0,0,0,3.47,3.73,36.1,36.1,0,0,0,4.57-2.25l.55-3,1.1-6,1.1-6c.2-1,.32-2,.59-3a30.54,30.54,0,0,0-3.51-3.73" transform="translate(0 -0.74)"/><path class="c" d="M990.82,97.69a30.53,30.53,0,0,0,3.27-4c-.33-1-.51-2-.78-3l-1.48-6.08-1.48-6.07-.74-3a36.61,36.61,0,0,0-4.71-2.07,36.75,36.75,0,0,0-3.24,4l.74,3,1.48,6.08,1.47,6.07c.23,1,.53,2,.7,3a30.79,30.79,0,0,0,4.75,2.06" transform="translate(0 -0.74)"/><path class="c" d="M897.41,42.23a30.53,30.53,0,0,0,3.27-4c-.33-1-.51-2-.78-3l-1.48-6.08L896.95,23l-.74-3a36.24,36.24,0,0,0-4.71-2.07,36.39,36.39,0,0,0-3.23,4l.74,3L890.48,31,892,37.12c.23,1,.53,2,.7,3a30.79,30.79,0,0,0,4.75,2.06" transform="translate(0 -0.74)"/><path class="c" d="M305.32,544a30.64,30.64,0,0,0-1.69,4.66c.61.69,1.11,1.46,1.66,2.19l3.26,4.43,3.26,4.43,1.63,2.21a36.55,36.55,0,0,0,4.92-.21A36.61,36.61,0,0,0,320,557l-1.63-2.21-3.26-4.43L311.87,546c-.53-.75-1.12-1.45-1.6-2.24a30.39,30.39,0,0,0-5,.23" transform="translate(0 -0.74)"/><path class="c" d="M370.81,539.69a30.68,30.68,0,0,0-4.61,2.24c-.1,1-.34,2-.51,3l-1.1,6-1.1,6-.55,3a36.36,36.36,0,0,0,3.47,3.73,36.25,36.25,0,0,0,4.57-2.25l.55-3,1.1-6,1.1-6c.2-1,.32-2,.59-3a30.54,30.54,0,0,0-3.51-3.73" transform="translate(0 -0.74)"/><path class="c" d="M434.16,502.67a30.68,30.68,0,0,0-4.61,2.24c-.1,1-.34,2-.51,3l-1.1,6-1.1,6-.55,3a36.36,36.36,0,0,0,3.47,3.73,36.61,36.61,0,0,0,4.57-2.25l.55-3,1.1-6,1.1-6c.2-1,.32-2,.59-3a30.54,30.54,0,0,0-3.51-3.73" transform="translate(0 -0.74)"/><path class="c" d="M280.66,472.5a30.69,30.69,0,0,0-4.61,2.24c-.1,1-.35,2-.51,3l-1.1,6-1.1,6-.55,3a36.59,36.59,0,0,0,3.47,3.73,36.46,36.46,0,0,0,4.57-2.25l.55-3,1.1-6,1.1-6c.2-1,.32-2,.59-3a30.74,30.74,0,0,0-3.51-3.73" transform="translate(0 -0.74)"/><path class="c" d="M243.8,534.64a30.69,30.69,0,0,0-4.61,2.24c-.1,1-.34,2-.51,3l-1.1,6-1.1,6-.55,3a36.59,36.59,0,0,0,3.47,3.73,36.1,36.1,0,0,0,4.57-2.25l.55-3,1.1-6,1.1-6c.2-1,.32-2,.59-3a30.74,30.74,0,0,0-3.51-3.73" transform="translate(0 -0.74)"/><path class="c" d="M36.39,650.17a30.45,30.45,0,0,0-1.69,4.66c.61.69,1.11,1.46,1.66,2.19l3.26,4.43,3.26,4.43,1.63,2.21a36.55,36.55,0,0,0,4.92-.21,36.51,36.51,0,0,0,1.66-4.64L49.47,661,46.2,656.6l-3.26-4.43c-.53-.75-1.12-1.45-1.6-2.24a30.39,30.39,0,0,0-5,.23" transform="translate(0 -0.74)"/><path class="c" d="M175.85,514.75a30.48,30.48,0,0,0-1.69,4.66c.61.69,1.11,1.46,1.66,2.19l3.26,4.43,3.26,4.43,1.63,2.21a36.12,36.12,0,0,0,4.92-.21,36.19,36.19,0,0,0,1.66-4.64l-1.63-2.21-3.26-4.43-3.26-4.43c-.53-.75-1.12-1.45-1.6-2.24a30.39,30.39,0,0,0-5,.23" transform="translate(0 -0.74)"/><path class="c" d="M148.52,547.88a30.69,30.69,0,0,0-4.61,2.24c-.1,1-.35,2-.51,3l-1.1,6-1.1,6-.55,3a36.59,36.59,0,0,0,3.47,3.73,36.1,36.1,0,0,0,4.57-2.25l.55-3,1.1-6,1.1-6c.2-1,.32-2,.59-3a30.54,30.54,0,0,0-3.51-3.73" transform="translate(0 -0.74)"/><path class="c" d="M101.88,645.9a30.69,30.69,0,0,0-4.61,2.24c-.1,1-.34,2-.51,3l-1.1,6-1.1,6-.55,3a36.35,36.35,0,0,0,3.47,3.73,36.61,36.61,0,0,0,4.57-2.25l.55-3,1.1-6,1.1-6c.2-1,.32-2,.59-3a30.54,30.54,0,0,0-3.51-3.73" transform="translate(0 -0.74)"/><path class="c" d="M165.23,608.87a30.69,30.69,0,0,0-4.61,2.24c-.1,1-.34,2-.51,3l-1.1,6-1.1,6-.55,3a36.35,36.35,0,0,0,3.47,3.73,36.61,36.61,0,0,0,4.57-2.25l.55-3,1.1-6,1.1-6c.2-1,.32-2,.59-3a30.54,30.54,0,0,0-3.51-3.73" transform="translate(0 -0.74)"/><path class="c" d="M81.32,569.44a30.69,30.69,0,0,0-4.61,2.24c-.1,1-.35,2-.51,3l-1.1,6-1.1,6-.55,3a36.59,36.59,0,0,0,3.47,3.73,36.1,36.1,0,0,0,4.57-2.25l.55-3,1.1-6,1.1-6c.2-1,.32-2,.59-3a30.74,30.74,0,0,0-3.51-3.73" transform="translate(0 -0.74)"/><path class="c" d="M39,499.11a30.69,30.69,0,0,0-4.61,2.24c-.1,1-.35,2-.51,3l-1.1,6-1.1,6-.55,3A36.59,36.59,0,0,0,34.56,523a36.46,36.46,0,0,0,4.57-2.25l.55-3,1.1-6,1.1-6c.2-1,.32-2,.59-3A30.54,30.54,0,0,0,39,499.11" transform="translate(0 -0.74)"/><path class="c" d="M245.8,484.87a30.69,30.69,0,0,0-4.61,2.24c-.1,1-.35,2-.51,3l-1.1,6-1.1,6-.55,3a36.59,36.59,0,0,0,3.47,3.73,36.1,36.1,0,0,0,4.57-2.25l.55-3,1.1-6,1.1-6c.2-1,.32-2,.59-3a30.74,30.74,0,0,0-3.51-3.73" transform="translate(0 -0.74)"/><path class="c" d="M106.4,515.67a30.52,30.52,0,0,0,3.27-4c-.33-1-.51-2-.78-3l-1.48-6.07-1.48-6.08-.74-3a37,37,0,0,0-4.71-2.07,36.74,36.74,0,0,0-3.24,4l.74,3,1.48,6.08,1.47,6.07c.23,1,.53,2,.7,3a30.79,30.79,0,0,0,4.75,2.06" transform="translate(0 -0.74)"/><path class="c" d="M821.33,751.17a30.63,30.63,0,0,0-1.69,4.66c.61.69,1.11,1.46,1.66,2.19l3.26,4.43,3.26,4.43,1.63,2.21a36.55,36.55,0,0,0,4.92-.21,36.61,36.61,0,0,0,1.66-4.64L834.41,762l-3.26-4.43-3.26-4.43c-.53-.75-1.12-1.45-1.6-2.24a30.39,30.39,0,0,0-5,.23" transform="translate(0 -0.74)"/><path class="c" d="M632.82,736.81a30.68,30.68,0,0,0-4.61,2.24c-.1,1-.34,2-.51,3l-1.1,6-1.1,6-.55,3a36.6,36.6,0,0,0,3.47,3.73,36.1,36.1,0,0,0,4.57-2.25l.55-3,1.1-6,1.1-6c.2-1,.32-2,.59-3a30.54,30.54,0,0,0-3.51-3.73" transform="translate(0 -0.74)"/><path class="c" d="M690.14,754.67a30.53,30.53,0,0,0,3.27-4c-.33-1-.51-2-.78-3l-1.48-6.07-1.48-6.08-.74-3a37.14,37.14,0,0,0-4.71-2.07,37,37,0,0,0-3.24,4l.74,3,1.48,6.08,1.47,6.07c.23,1,.53,2,.7,3a30.79,30.79,0,0,0,4.75,2.06" transform="translate(0 -0.74)"/><path class="c" d="M483.19,608.81a30.63,30.63,0,0,0-1.69,4.66c.61.69,1.11,1.46,1.66,2.19l3.26,4.43,3.26,4.43,1.63,2.21a36.55,36.55,0,0,0,4.92-.21,36.51,36.51,0,0,0,1.66-4.64l-1.63-2.21L493,615.24l-3.26-4.43c-.53-.75-1.12-1.45-1.6-2.24a30.39,30.39,0,0,0-5,.23" transform="translate(0 -0.74)"/><path class="c" d="M602.13,653.67a30.56,30.56,0,0,0-1.69,4.66c.61.69,1.11,1.46,1.66,2.19l3.26,4.43,3.26,4.43,1.63,2.21a36.12,36.12,0,0,0,4.92-.21,36.19,36.19,0,0,0,1.66-4.64l-1.63-2.21-3.26-4.43-3.26-4.43c-.53-.75-1.12-1.45-1.6-2.24a30.39,30.39,0,0,0-5,.23" transform="translate(0 -0.74)"/><path class="c" d="M459.67,671.54a30.56,30.56,0,0,0-1.69,4.66c.61.69,1.11,1.46,1.66,2.19l3.26,4.43,3.26,4.43,1.63,2.21a36.12,36.12,0,0,0,4.92-.21,36.61,36.61,0,0,0,1.66-4.64l-1.63-2.21L469.48,678l-3.26-4.43c-.53-.75-1.12-1.45-1.6-2.24a30.39,30.39,0,0,0-5,.23" transform="translate(0 -0.74)"/><path class="c" d="M502.17,736.77a30.56,30.56,0,0,0-1.69,4.66c.61.69,1.11,1.46,1.66,2.19l3.26,4.43,3.26,4.43,1.63,2.21a36.52,36.52,0,0,0,4.92-.21,36.77,36.77,0,0,0,1.66-4.64l-1.63-2.21L512,743.2l-3.26-4.43c-.53-.75-1.12-1.45-1.6-2.24a30.39,30.39,0,0,0-5,.23" transform="translate(0 -0.74)"/><path class="c" d="M231.59,624.66a30.57,30.57,0,0,0-1.69,4.66c.61.69,1.11,1.46,1.66,2.19l3.26,4.43,3.26,4.43,1.63,2.21a36.12,36.12,0,0,0,4.92-.21,36.61,36.61,0,0,0,1.66-4.64l-1.63-2.21-3.26-4.43-3.26-4.43c-.53-.75-1.12-1.45-1.6-2.24a30.39,30.39,0,0,0-5,.23" transform="translate(0 -0.74)"/><path class="c" d="M178.94,651.79a30.57,30.57,0,0,0-1.69,4.66c.61.69,1.11,1.46,1.66,2.19l3.26,4.43,3.26,4.43,1.63,2.21a36.12,36.12,0,0,0,4.92-.21,36.61,36.61,0,0,0,1.66-4.64L192,662.65l-3.26-4.43-3.26-4.43c-.53-.75-1.12-1.45-1.6-2.24a30.39,30.39,0,0,0-5,.23" transform="translate(0 -0.74)"/><path class="c" d="M93.19,703.57a30.48,30.48,0,0,0-1.69,4.66c.61.69,1.11,1.46,1.66,2.19l3.26,4.43,3.26,4.43,1.63,2.21a36.55,36.55,0,0,0,4.92-.21,36.51,36.51,0,0,0,1.66-4.64l-1.63-2.21L103,710l-3.26-4.43c-.53-.75-1.12-1.45-1.6-2.24a30.39,30.39,0,0,0-5,.23" transform="translate(0 -0.74)"/><path class="c" d="M164.33,708a30.68,30.68,0,0,0-4.61,2.24c-.1,1-.34,2-.51,3l-1.1,6-1.1,6-.55,3a36.59,36.59,0,0,0,3.47,3.73,36.46,36.46,0,0,0,4.57-2.25l.55-3,1.1-6,1.1-6c.2-1,.32-2,.59-3a30.54,30.54,0,0,0-3.51-3.73" transform="translate(0 -0.74)"/><path class="c" d="M413.77,637.06a30.68,30.68,0,0,0-4.61,2.24c-.1,1-.34,2-.51,3l-1.1,6-1.1,6-.55,3a36.6,36.6,0,0,0,3.47,3.73,36.1,36.1,0,0,0,4.57-2.25l.55-3,1.1-6,1.1-6c.2-1,.32-2,.59-3a30.74,30.74,0,0,0-3.51-3.73" transform="translate(0 -0.74)"/><path class="c" d="M458.31,543.16a30.68,30.68,0,0,0-4.61,2.24c-.1,1-.34,2-.51,3l-1.1,6-1.1,6-.55,3a36.36,36.36,0,0,0,3.47,3.73,36.25,36.25,0,0,0,4.57-2.25l.55-3,1.1-6,1.1-6c.2-1,.32-2,.59-3a30.54,30.54,0,0,0-3.51-3.73" transform="translate(0 -0.74)"/><path class="c" d="M546.34,567.29a30.68,30.68,0,0,0-4.61,2.24c-.1,1-.34,2-.51,3l-1.1,6-1.1,6-.55,3a36.36,36.36,0,0,0,3.47,3.73,36.25,36.25,0,0,0,4.57-2.25l.55-3,1.1-6,1.1-6c.2-1,.32-2,.59-3a30.74,30.74,0,0,0-3.51-3.73" transform="translate(0 -0.74)"/><path class="c" d="M547.18,642.36a30.68,30.68,0,0,0-4.61,2.24c-.1,1-.34,2-.51,3l-1.1,6-1.1,6-.55,3a36.36,36.36,0,0,0,3.47,3.73,36.25,36.25,0,0,0,4.57-2.25l.55-3,1.1-6,1.1-6c.2-1,.32-2,.59-3a30.54,30.54,0,0,0-3.51-3.73" transform="translate(0 -0.74)"/><path class="c" d="M246.51,681.92a30.68,30.68,0,0,0-4.61,2.24c-.1,1-.34,2-.51,3l-1.1,6-1.1,6-.55,3a36.59,36.59,0,0,0,3.47,3.73,36.46,36.46,0,0,0,4.57-2.25l.55-3,1.1-6,1.1-6c.2-1,.32-2,.59-3a30.54,30.54,0,0,0-3.51-3.73" transform="translate(0 -0.74)"/><path class="c" d="M365.28,721.13a30.68,30.68,0,0,0-4.61,2.24c-.1,1-.34,2-.51,3l-1.1,6-1.1,6-.55,3a36.36,36.36,0,0,0,3.47,3.73,36.61,36.61,0,0,0,4.57-2.25l.55-3,1.1-6,1.1-6c.2-1,.32-2,.59-3a30.54,30.54,0,0,0-3.51-3.73" transform="translate(0 -0.74)"/><path class="c" d="M294.68,594.44a30.69,30.69,0,0,0-4.61,2.24c-.1,1-.35,2-.51,3l-1.1,6-1.1,6-.55,3a36.59,36.59,0,0,0,3.47,3.73,36.46,36.46,0,0,0,4.57-2.25l.55-3,1.1-6,1.1-6c.2-1,.32-2,.59-3a30.74,30.74,0,0,0-3.51-3.73" transform="translate(0 -0.74)"/><path class="c" d="M209.72,742.34a30.68,30.68,0,0,0-4.61,2.24c-.1,1-.34,2-.51,3l-1.1,6-1.1,6-.55,3a36.59,36.59,0,0,0,3.47,3.73,36.46,36.46,0,0,0,4.57-2.25l.55-3,1.1-6,1.1-6c.2-1,.32-2,.59-3a30.54,30.54,0,0,0-3.51-3.73" transform="translate(0 -0.74)"/><path class="c" d="M572.12,706.89a30.68,30.68,0,0,0-4.61,2.24c-.1,1-.34,2-.51,3l-1.1,6-1.1,6-.55,3a36.6,36.6,0,0,0,3.47,3.73,36.46,36.46,0,0,0,4.57-2.25l.55-3,1.1-6,1.1-6c.2-1,.32-2,.59-3a30.54,30.54,0,0,0-3.51-3.73" transform="translate(0 -0.74)"/><path class="c" d="M306.79,722.13a30.68,30.68,0,0,0-4.61,2.24c-.1,1-.34,2-.51,3l-1.1,6-1.1,6-.55,3a36.59,36.59,0,0,0,3.47,3.73,36.46,36.46,0,0,0,4.57-2.25l.55-3,1.1-6,1.1-6c.2-1,.32-2,.59-3a30.54,30.54,0,0,0-3.51-3.73" transform="translate(0 -0.74)"/><path class="c" d="M432.72,737.69a30.53,30.53,0,0,0,3.27-4c-.33-1-.51-2-.78-3l-1.48-6.08-1.48-6.07-.74-3a36.24,36.24,0,0,0-4.71-2.07,37,37,0,0,0-3.24,4l.74,3,1.48,6.08,1.47,6.07c.23,1,.53,2,.7,3a30.79,30.79,0,0,0,4.75,2.06" transform="translate(0 -0.74)"/><path class="c" d="M352,612.31a30.53,30.53,0,0,0,3.27-4c-.33-1-.51-2-.78-3L353,599.19l-1.48-6.07-.74-3A36.38,36.38,0,0,0,346.1,588a36.75,36.75,0,0,0-3.24,4l.74,3,1.48,6.08,1.47,6.07c.23,1,.53,2,.7,3a30.52,30.52,0,0,0,4.75,2.06" transform="translate(0 -0.74)"/><path class="c" d="M339.31,682.23a30.53,30.53,0,0,0,3.27-4c-.33-1-.51-2-.78-3l-1.48-6.07L338.85,663l-.74-3a37,37,0,0,0-4.71-2.07,37,37,0,0,0-3.24,4l.74,3,1.48,6.08,1.48,6.07c.23,1,.53,2,.7,3a30.79,30.79,0,0,0,4.75,2.06" transform="translate(0 -0.74)"/><path class="c" d="M993.2,588.42a30.68,30.68,0,0,0-4.61,2.24c-.1,1-.34,2-.51,3l-1.1,6-1.1,6-.55,3a36.36,36.36,0,0,0,3.47,3.73,36.61,36.61,0,0,0,4.57-2.25l.55-3,1.1-6,1.1-6c.2-1,.33-2,.59-3a30.54,30.54,0,0,0-3.51-3.73" transform="translate(0 -0.74)"/><path class="c" d="M947,502.28a30.68,30.68,0,0,0-4.61,2.24c-.1,1-.34,2-.51,3l-1.1,6-1.1,6-.55,3a36.36,36.36,0,0,0,3.47,3.73,36.61,36.61,0,0,0,4.57-2.25l.55-3,1.1-6,1.1-6c.2-1,.32-2,.59-3a30.74,30.74,0,0,0-3.51-3.73" transform="translate(0 -0.74)"/><path class="c" d="M882.75,503.3a30.56,30.56,0,0,0-1.69,4.66c.61.69,1.11,1.46,1.66,2.19l3.26,4.43,3.26,4.43,1.63,2.21a36.12,36.12,0,0,0,4.92-.21,36.61,36.61,0,0,0,1.66-4.64l-1.63-2.21-3.26-4.43-3.26-4.43c-.53-.75-1.12-1.45-1.6-2.24a30.39,30.39,0,0,0-5,.23" transform="translate(0 -0.74)"/><path class="c" d="M785.79,703.94a30.63,30.63,0,0,0-1.69,4.66c.61.69,1.11,1.46,1.66,2.19l3.26,4.43,3.26,4.43,1.63,2.21a36.55,36.55,0,0,0,4.92-.21,36.61,36.61,0,0,0,1.66-4.64l-1.63-2.21-3.26-4.43-3.26-4.43c-.53-.75-1.12-1.45-1.6-2.24a30.39,30.39,0,0,0-5,.23" transform="translate(0 -0.74)"/><path class="c" d="M693.15,612.6a30.63,30.63,0,0,0-1.69,4.66c.61.69,1.11,1.46,1.66,2.19l3.26,4.43,3.26,4.43,1.63,2.21a36.12,36.12,0,0,0,4.92-.21,36.61,36.61,0,0,0,1.66-4.64l-1.63-2.21L703,619l-3.26-4.43c-.53-.75-1.12-1.45-1.6-2.24a30.39,30.39,0,0,0-5,.23" transform="translate(0 -0.74)"/><path class="c" d="M925.25,568.53a30.56,30.56,0,0,0-1.69,4.66c.61.69,1.11,1.46,1.66,2.19l3.26,4.43,3.26,4.43,1.63,2.21a36.12,36.12,0,0,0,4.92-.21A36.61,36.61,0,0,0,940,581.6l-1.63-2.21L935.06,575l-3.26-4.43c-.53-.75-1.12-1.45-1.6-2.24a30.39,30.39,0,0,0-5,.23" transform="translate(0 -0.74)"/><path class="c" d="M418.77,586.29a30.56,30.56,0,0,0-1.69,4.66c.61.69,1.11,1.46,1.66,2.19l3.26,4.43,3.26,4.43,1.63,2.21a36.12,36.12,0,0,0,4.92-.21,36.61,36.61,0,0,0,1.66-4.64l-1.63-2.21-3.26-4.43-3.26-4.43c-.53-.75-1.12-1.45-1.6-2.24a30.39,30.39,0,0,0-5,.23" transform="translate(0 -0.74)"/><path class="c" d="M897.92,601.65a30.68,30.68,0,0,0-4.61,2.24c-.1,1-.34,2-.51,3l-1.1,6-1.1,6-.55,3a36.36,36.36,0,0,0,3.47,3.73,36.61,36.61,0,0,0,4.57-2.25l.55-3,1.1-6,1.1-6c.2-1,.32-2,.59-3a30.54,30.54,0,0,0-3.51-3.73" transform="translate(0 -0.74)"/><path class="c" d="M851.28,699.67a30.68,30.68,0,0,0-4.61,2.24c-.1,1-.35,2-.51,3l-1.1,6-1.1,6-.55,3a36.6,36.6,0,0,0,3.47,3.73,36.1,36.1,0,0,0,4.57-2.25l.55-3,1.1-6,1.1-6c.2-1,.32-2,.59-3a30.74,30.74,0,0,0-3.51-3.73" transform="translate(0 -0.74)"/><path class="c" d="M914.63,662.65a30.68,30.68,0,0,0-4.61,2.24c-.1,1-.35,2-.51,3l-1.1,6-1.1,6-.55,3a36.6,36.6,0,0,0,3.47,3.73,36.46,36.46,0,0,0,4.57-2.25l.55-3,1.1-6,1.1-6c.2-1,.32-2,.59-3a30.74,30.74,0,0,0-3.51-3.73" transform="translate(0 -0.74)"/><path class="c" d="M830.72,623.22a30.68,30.68,0,0,0-4.61,2.24c-.1,1-.34,2-.51,3l-1.1,6-1.1,6-.55,3a36.36,36.36,0,0,0,3.47,3.73,36.61,36.61,0,0,0,4.57-2.25l.55-3,1.1-6,1.1-6c.2-1,.32-2,.59-3a30.74,30.74,0,0,0-3.51-3.73" transform="translate(0 -0.74)"/><path class="c" d="M761.13,632.49a30.68,30.68,0,0,0-4.61,2.24c-.1,1-.34,2-.51,3l-1.1,6-1.1,6-.55,3a36.6,36.6,0,0,0,3.47,3.73,36.46,36.46,0,0,0,4.57-2.25l.55-3,1.1-6,1.1-6c.2-1,.32-2,.59-3a30.54,30.54,0,0,0-3.51-3.73" transform="translate(0 -0.74)"/><path class="c" d="M669.59,513.68a30.68,30.68,0,0,0-4.61,2.24c-.1,1-.35,2-.51,3l-1.1,6-1.1,6-.55,3a36.6,36.6,0,0,0,3.47,3.73,36.46,36.46,0,0,0,4.57-2.25l.55-3,1.1-6,1.1-6c.2-1,.32-2,.59-3a30.74,30.74,0,0,0-3.51-3.73" transform="translate(0 -0.74)"/><path class="c" d="M724.27,694.63a30.68,30.68,0,0,0-4.61,2.24c-.1,1-.34,2-.51,3l-1.1,6-1.1,6-.55,3a36.6,36.6,0,0,0,3.47,3.73,36.1,36.1,0,0,0,4.57-2.25l.55-3,1.1-6,1.1-6c.2-1,.32-2,.59-3a30.54,30.54,0,0,0-3.51-3.73" transform="translate(0 -0.74)"/><path class="c" d="M664.54,640.68a30.68,30.68,0,0,0-4.61,2.24c-.1,1-.35,2-.51,3l-1.1,6-1.1,6-.55,3a36.6,36.6,0,0,0,3.47,3.73,36.46,36.46,0,0,0,4.57-2.25l.55-3,1.1-6,1.1-6c.2-1,.32-2,.59-3a30.74,30.74,0,0,0-3.51-3.73" transform="translate(0 -0.74)"/><path class="c" d="M788.36,552.89a30.68,30.68,0,0,0-4.61,2.24c-.1,1-.34,2-.51,3l-1.1,6-1.1,6-.55,3a36.36,36.36,0,0,0,3.47,3.73,36.61,36.61,0,0,0,4.57-2.25l.55-3,1.1-6,1.1-6c.2-1,.32-2,.59-3a30.74,30.74,0,0,0-3.51-3.73" transform="translate(0 -0.74)"/><path class="c" d="M632.8,574.1a30.68,30.68,0,0,0-4.61,2.24c-.1,1-.35,2-.51,3l-1.1,6-1.1,6-.55,3A36.6,36.6,0,0,0,628.4,598a36.46,36.46,0,0,0,4.57-2.25l.55-3,1.1-6,1.1-6c.2-1,.32-2,.59-3a30.74,30.74,0,0,0-3.51-3.73" transform="translate(0 -0.74)"/><path class="c" d="M995.2,538.65a30.68,30.68,0,0,0-4.61,2.24c-.1,1-.34,2-.51,3l-1.1,6-1.1,6-.55,3a36.36,36.36,0,0,0,3.47,3.73,36.61,36.61,0,0,0,4.57-2.25l.55-3,1.1-6,1.1-6c.2-1,.32-2,.59-3a30.54,30.54,0,0,0-3.51-3.73" transform="translate(0 -0.74)"/><path class="c" d="M911.59,739.29a30.54,30.54,0,0,0-1.69,4.66c.61.69,1.11,1.46,1.66,2.19l3.26,4.43,3.26,4.43,1.63,2.21a36.55,36.55,0,0,0,4.92-.21,36.51,36.51,0,0,0,1.66-4.64l-1.63-2.21-3.26-4.43-3.26-4.43c-.53-.75-1.12-1.45-1.6-2.24a30.39,30.39,0,0,0-5,.23" transform="translate(0 -0.74)"/><path class="c" d="M969.84,750.2a30.68,30.68,0,0,0-4.61,2.24c-.1,1-.35,2-.51,3l-1.1,6-1.1,6-.55,3a36.6,36.6,0,0,0,3.47,3.73,36.11,36.11,0,0,0,4.57-2.25l.55-3,1.1-6,1.1-6c.2-1,.32-2,.59-3a30.74,30.74,0,0,0-3.51-3.73" transform="translate(0 -0.74)"/><path class="c" d="M960.9,676.19a30.68,30.68,0,0,0-4.61,2.24c-.1,1-.34,2-.51,3l-1.1,6-1.1,6-.55,3a36.6,36.6,0,0,0,3.47,3.73,36.46,36.46,0,0,0,4.57-2.25l.55-3,1.1-6,1.1-6c.2-1,.32-2,.59-3a30.74,30.74,0,0,0-3.51-3.73" transform="translate(0 -0.74)"/><path class="c" d="M729.86,553.89a30.68,30.68,0,0,0-4.61,2.24c-.1,1-.34,2-.51,3l-1.1,6-1.1,6-.55,3a36.6,36.6,0,0,0,3.47,3.73,36.1,36.1,0,0,0,4.57-2.25l.55-3,1.1-6,1.1-6c.2-1,.32-2,.59-3a30.54,30.54,0,0,0-3.51-3.73" transform="translate(0 -0.74)"/><path class="c" d="M855.8,569.45a30.53,30.53,0,0,0,3.27-4c-.33-1-.51-2-.78-3l-1.48-6.08-1.48-6.07-.74-3a36.61,36.61,0,0,0-4.71-2.07,36.75,36.75,0,0,0-3.24,4l.74,3,1.48,6.08,1.47,6.07c.23,1,.53,2,.7,3a30.79,30.79,0,0,0,4.75,2.06" transform="translate(0 -0.74)"/><path class="c" d="M762.39,514a30.53,30.53,0,0,0,3.27-4c-.33-1-.51-2-.78-3l-1.48-6.08-1.48-6.07-.74-3a36.24,36.24,0,0,0-4.71-2.07,36.39,36.39,0,0,0-3.23,4l.74,3,1.48,6.08,1.48,6.07c.23,1,.53,2,.7,3a30.79,30.79,0,0,0,4.75,2.06" transform="translate(0 -0.74)"/></g></svg>