<svg xmlns="http://www.w3.org/2000/svg" xmlns:xlink="http://www.w3.org/1999/xlink" viewBox="0 0 1920 3035"><defs><style>.a{fill:none;}.b{fill:#fff;}.c{clip-path:url(#a);}.d{fill:#fff3e9;}.e{fill:#ef7e48;}.f{fill:#e5f2ff;}</style><clipPath id="a"><path class="a" d="M1049.68,684.86c-25.58,4.2-52.06,9.58-80.79,16.46-140.18,33.58-169.27,86.85-246.32,94s-196.38,3.1-252.18,41.42c-24.93,17.12-31.63,43.75-27.77,68.11l.12.72c5,29.85,25.77,56.08,48.1,56.89,40.7,1.48,163.7-5,326.11-18,101.24-8.06,210.43-5.88,310.5-18.12l65.73-10.69c36.16-7.58,70.43-18,101.91-32.75,132.85-62.05,149.1-78.19,150.58-118.88l-2.92-18c-12.19-36.51-58-74.6-58-74.6-148.88-1.28-234.26-2.85-332.28,12.94Z"/></clipPath></defs><title>Fond2_5</title><rect class="b" width="1920" height="1080"/><g class="c"><path class="d" d="M1129.38,721.13a30.64,30.64,0,0,1,2.25,4.42c-.52.76-.92,1.59-1.39,2.37l-2.7,4.79-2.7,4.79-1.35,2.39a36.55,36.55,0,0,1-4.91.39,36.61,36.61,0,0,1-2.21-4.4l1.35-2.4,2.7-4.79,2.7-4.79c.44-.81.94-1.58,1.32-2.41a30.39,30.39,0,0,1,4.95-.37"/><path class="d" d="M1063.85,724.82a30.68,30.68,0,0,1,4.85,1.66c.23,1,.58,1.94.87,2.91l1.81,5.79,1.81,5.79.91,2.9a36.36,36.36,0,0,1-3,4.12,36.25,36.25,0,0,1-4.81-1.68l-.91-2.9-1.81-5.79-1.82-5.79c-.32-1-.56-1.94-.95-2.89a30.54,30.54,0,0,1,3-4.13"/><path class="d" d="M996.48,695.75a30.68,30.68,0,0,1,4.85,1.66c.22,1,.58,1.94.87,2.91l1.81,5.79,1.81,5.79.91,2.9a36.36,36.36,0,0,1-3,4.12,36.61,36.61,0,0,1-4.81-1.68l-.91-2.9-1.81-5.79-1.82-5.79c-.32-1-.56-1.94-.95-2.89a30.54,30.54,0,0,1,3-4.13"/><path class="d" d="M935.71,717.75a30.68,30.68,0,0,1,4.85,1.66c.23,1,.58,1.94.87,2.91l1.81,5.79,1.81,5.79.91,2.9a36.6,36.6,0,0,1-3,4.12,36.46,36.46,0,0,1-4.81-1.68l-.91-2.9-1.81-5.79-1.82-5.79c-.32-1-.56-1.94-.95-2.89a30.54,30.54,0,0,1,3-4.13"/><path class="d" d="M884.42,720.94a30.68,30.68,0,0,1,4.85,1.66c.23,1,.58,1.94.87,2.91l1.81,5.8,1.81,5.79.91,2.9a36.36,36.36,0,0,1-3,4.12,36.61,36.61,0,0,1-4.81-1.68l-.91-2.9-1.81-5.79L882.33,728c-.32-1-.56-1.94-.95-2.89a30.74,30.74,0,0,1,3-4.13"/><path class="d" d="M1145.2,647.21a30.69,30.69,0,0,1,4.85,1.66c.23,1,.58,1.94.87,2.91l1.81,5.8,1.81,5.79.91,2.9a36.59,36.59,0,0,1-3,4.12,36.46,36.46,0,0,1-4.81-1.68l-.91-2.9-1.81-5.79-1.82-5.79c-.32-1-.56-1.94-.95-2.89a30.74,30.74,0,0,1,3-4.13"/><path class="d" d="M1189.31,704.42a30.69,30.69,0,0,1,4.85,1.66c.23,1,.58,1.94.87,2.91l1.81,5.79,1.81,5.79.91,2.9a36.59,36.59,0,0,1-3,4.12,36.1,36.1,0,0,1-4.81-1.68l-.91-2.9-1.81-5.79-1.82-5.79c-.32-1-.56-1.94-.95-2.89a30.74,30.74,0,0,1,3-4.13"/><path class="d" d="M1409.2,794a30.45,30.45,0,0,1,2.25,4.42c-.52.76-.92,1.59-1.39,2.37l-2.7,4.79-2.7,4.79-1.35,2.39a36.55,36.55,0,0,1-4.91.39,36.51,36.51,0,0,1-2.21-4.4l1.35-2.39,2.7-4.79,2.7-4.79c.44-.81.94-1.58,1.32-2.41a30.39,30.39,0,0,1,4.95-.37"/><path class="d" d="M1254.36,676.45a30.48,30.48,0,0,1,2.25,4.42c-.52.76-.92,1.58-1.39,2.37l-2.7,4.79-2.7,4.79-1.35,2.39a36.12,36.12,0,0,1-4.91.39,36.19,36.19,0,0,1-2.21-4.4l1.35-2.4,2.7-4.79,2.7-4.79c.44-.81.94-1.58,1.32-2.41a30.39,30.39,0,0,1,4.95-.37"/><path class="d" d="M1285.5,706a30.69,30.69,0,0,1,4.85,1.66c.23,1,.58,1.94.87,2.91l1.81,5.79,1.81,5.79.91,2.9a36.59,36.59,0,0,1-3,4.12,36.1,36.1,0,0,1-4.81-1.68l-.91-2.9-1.81-5.79-1.82-5.79c-.32-1-.56-1.94-.95-2.89a30.54,30.54,0,0,1,3-4.13"/><path class="d" d="M1343.67,797.66a30.69,30.69,0,0,1,4.85,1.66c.23,1,.58,1.94.87,2.91l1.81,5.79,1.81,5.79.91,2.9a36.35,36.35,0,0,1-3,4.12,36.61,36.61,0,0,1-4.81-1.68l-.91-2.9-1.81-5.79-1.82-5.79c-.32-1-.56-1.94-.95-2.89a30.54,30.54,0,0,1,3-4.13"/><path class="d" d="M1276.3,768.59a30.69,30.69,0,0,1,4.85,1.66c.23,1,.58,1.94.87,2.91l1.81,5.79,1.81,5.79.91,2.9a36.35,36.35,0,0,1-3,4.12,36.61,36.61,0,0,1-4.81-1.68l-.91-2.9L1276,781.4l-1.82-5.79c-.32-1-.56-1.94-.95-2.89a30.54,30.54,0,0,1,3-4.13"/><path class="d" d="M1354.82,719.28a30.69,30.69,0,0,1,4.85,1.66c.23,1,.58,1.94.87,2.91l1.81,5.79,1.81,5.79.91,2.9a36.59,36.59,0,0,1-3,4.12,36.1,36.1,0,0,1-4.81-1.68l-.91-2.9-1.81-5.79-1.82-5.79c-.32-1-.56-1.94-.95-2.89a30.74,30.74,0,0,1,3-4.13"/><path class="d" d="M1425,720a30.69,30.69,0,0,1,4.85,1.66c.23,1,.58,1.94.87,2.91l1.81,5.79,1.81,5.79.91,2.9a36.59,36.59,0,0,1-3,4.12,36.46,36.46,0,0,1-4.81-1.68l-.91-2.9-1.81-5.79-1.82-5.79c-.32-1-.56-1.94-.95-2.89a30.74,30.74,0,0,1,3-4.13"/><path class="d" d="M1388.34,644.34a30.69,30.69,0,0,1,4.85,1.66c.23,1,.58,1.94.87,2.91l1.81,5.79,1.81,5.79.91,2.9a36.59,36.59,0,0,1-3,4.12,36.46,36.46,0,0,1-4.81-1.68l-.91-2.9-1.81-5.79-1.82-5.79c-.32-1-.56-1.94-.95-2.89a30.54,30.54,0,0,1,3-4.13"/><path class="d" d="M1181.3,655.26a30.69,30.69,0,0,1,4.85,1.66c.23,1,.58,1.94.87,2.91l1.81,5.79,1.81,5.79.91,2.9a36.59,36.59,0,0,1-3,4.12,36.1,36.1,0,0,1-4.81-1.68l-.91-2.9-1.81-5.79-1.82-5.79c-.32-1-.56-1.94-.95-2.89a30.74,30.74,0,0,1,3-4.13"/><path class="d" d="M1323.41,668.95a30.52,30.52,0,0,1-3.74-3.59c.2-1,.27-2.07.4-3.1l.73-6.21.73-6.21.36-3.1a37,37,0,0,1,4.42-2.63,36.74,36.74,0,0,1,3.7,3.58l-.37,3.1-.73,6.21-.73,6.21c-.1,1-.28,2.07-.32,3.11a30.79,30.79,0,0,1-4.47,2.62"/><path class="d" d="M642.28,989.34a30.63,30.63,0,0,1,2.25,4.42c-.52.76-.92,1.59-1.39,2.37l-2.7,4.79-2.7,4.79-1.35,2.39a36.55,36.55,0,0,1-4.91.39,36.61,36.61,0,0,1-2.21-4.4l1.35-2.4,2.7-4.79,2.7-4.79c.44-.81.94-1.58,1.32-2.41a30.39,30.39,0,0,1,4.95-.37"/><path class="d" d="M827.66,952.24a30.68,30.68,0,0,1,4.85,1.66c.23,1,.58,1.94.87,2.91l1.81,5.79L837,968.4l.91,2.9a36.6,36.6,0,0,1-3,4.12,36.1,36.1,0,0,1-4.81-1.68l-.91-2.9L827.39,965l-1.82-5.79c-.32-1-.56-1.94-.95-2.89a30.54,30.54,0,0,1,3-4.13"/><path class="d" d="M772.92,976.91a30.53,30.53,0,0,1-3.74-3.59c.2-1,.27-2.07.4-3.1l.73-6.21.73-6.21.36-3.1a37.14,37.14,0,0,1,4.42-2.63,37,37,0,0,1,3.7,3.58l-.37,3.1-.73,6.21-.73,6.21c-.1,1-.28,2.07-.32,3.11a30.79,30.79,0,0,1-4.47,2.62"/><path class="d" d="M960.68,807.05a30.63,30.63,0,0,1,2.25,4.42c-.52.76-.92,1.59-1.39,2.37l-2.7,4.79-2.7,4.79-1.35,2.39a36.55,36.55,0,0,1-4.91.39,36.51,36.51,0,0,1-2.21-4.4l1.35-2.39,2.7-4.79,2.7-4.79c.44-.81.94-1.58,1.32-2.41a30.39,30.39,0,0,1,4.95-.37"/><path class="d" d="M848,866a30.56,30.56,0,0,1,2.25,4.42c-.52.76-.92,1.58-1.39,2.37l-2.7,4.79-2.7,4.79-1.35,2.39a36.12,36.12,0,0,1-4.91.39,36.19,36.19,0,0,1-2.21-4.4l1.35-2.4,2.7-4.79,2.7-4.79c.44-.81.94-1.58,1.32-2.41A30.39,30.39,0,0,1,848,866"/><path class="d" d="M856.78,757.66a30.47,30.47,0,0,1,2.25,4.42c-.52.76-.92,1.58-1.39,2.37l-2.7,4.79-2.7,4.79-1.35,2.39a36.12,36.12,0,0,1-4.91.39,36.61,36.61,0,0,1-2.21-4.4l1.35-2.4,2.7-4.79,2.7-4.79c.44-.81.94-1.58,1.32-2.41a30.39,30.39,0,0,1,4.95-.37"/><path class="d" d="M991.63,866.47a30.56,30.56,0,0,1,2.25,4.42c-.52.76-.92,1.58-1.39,2.37l-2.7,4.79-2.7,4.79-1.35,2.39a36.12,36.12,0,0,1-4.91.39,36.61,36.61,0,0,1-2.21-4.4l1.35-2.4,2.7-4.79,2.7-4.79c.44-.81.94-1.58,1.32-2.41a30.39,30.39,0,0,1,4.95-.37"/><path class="d" d="M957.34,936.37a30.56,30.56,0,0,1,2.25,4.42c-.52.76-.92,1.58-1.39,2.37L955.5,948l-2.7,4.79-1.35,2.39a36.52,36.52,0,0,1-4.91.39,36.77,36.77,0,0,1-2.21-4.4l1.35-2.4,2.7-4.79,2.7-4.79c.44-.81.94-1.58,1.32-2.41a30.39,30.39,0,0,1,4.95-.37"/><path class="d" d="M1212.35,792.3a30.57,30.57,0,0,1,2.25,4.42c-.52.76-.92,1.58-1.39,2.37l-2.7,4.79-2.7,4.79-1.35,2.39a36.12,36.12,0,0,1-4.91.39,36.61,36.61,0,0,1-2.21-4.4l1.35-2.4,2.7-4.79,2.7-4.79c.44-.81.94-1.58,1.32-2.41a30.39,30.39,0,0,1,4.95-.37"/><path class="d" d="M1267.9,812.85a30.57,30.57,0,0,1,2.25,4.42c-.52.76-.92,1.58-1.39,2.37l-2.7,4.79-2.7,4.79-1.35,2.39a36.12,36.12,0,0,1-4.91.39,36.61,36.61,0,0,1-2.21-4.4l1.35-2.4,2.7-4.79,2.7-4.79c.44-.81.94-1.58,1.32-2.41a30.39,30.39,0,0,1,4.95-.37"/><path class="d" d="M1359.28,853.86a30.48,30.48,0,0,1,2.25,4.42c-.52.76-.92,1.58-1.39,2.37l-2.7,4.79-2.7,4.79-1.35,2.39a36.55,36.55,0,0,1-4.91.39,36.51,36.51,0,0,1-2.21-4.4l1.35-2.39,2.7-4.79,2.7-4.79c.44-.81.94-1.58,1.32-2.41a30.39,30.39,0,0,1,4.95-.37"/><path class="d" d="M1445.59,835.93a30.68,30.68,0,0,1,4.85,1.66c.23,1,.58,1.94.87,2.91l1.81,5.79,1.81,5.79.91,2.9a36.59,36.59,0,0,1-3,4.12,36.46,36.46,0,0,1-4.81-1.68l-.91-2.9-1.81-5.79-1.82-5.79c-.32-1-.56-1.94-.95-2.89a30.74,30.74,0,0,1,3-4.13"/><path class="d" d="M1289.21,866.89a30.68,30.68,0,0,1,4.85,1.66c.23,1,.58,1.94.87,2.91l1.81,5.79,1.81,5.79.91,2.9a36.59,36.59,0,0,1-3,4.12,36.46,36.46,0,0,1-4.81-1.68l-.91-2.9-1.81-5.79-1.82-5.79c-.32-1-.56-1.94-.95-2.89a30.54,30.54,0,0,1,3-4.13"/><path class="d" d="M1033,826.68a30.68,30.68,0,0,1,4.85,1.66c.23,1,.58,1.94.87,2.91l1.81,5.79,1.81,5.79.91,2.9a36.6,36.6,0,0,1-3,4.12,36.1,36.1,0,0,1-4.81-1.68l-.91-2.9-1.81-5.79-1.82-5.79c-.32-1-.56-1.94-.95-2.89a30.74,30.74,0,0,1,3-4.13"/><path class="d" d="M977.42,738.88a30.68,30.68,0,0,1,4.85,1.66c.22,1,.58,1.94.87,2.91l1.81,5.79,1.81,5.79.91,2.9a36.36,36.36,0,0,1-3,4.12,36.25,36.25,0,0,1-4.81-1.68l-.91-2.9-1.82-5.79-1.81-5.79c-.32-1-.56-1.94-.95-2.89a30.54,30.54,0,0,1,3-4.13"/><path class="d" d="M893,773.49a30.68,30.68,0,0,1,4.85,1.66c.23,1,.58,1.94.87,2.91l1.81,5.79,1.81,5.79.91,2.9a36.36,36.36,0,0,1-3,4.12,36.25,36.25,0,0,1-4.81-1.68l-.91-2.9-1.81-5.79-1.82-5.79c-.32-1-.56-1.94-.95-2.89a30.74,30.74,0,0,1,3-4.13"/><path class="d" d="M901.22,848.11a30.68,30.68,0,0,1,4.85,1.66c.22,1,.58,1.94.87,2.91l1.81,5.79,1.81,5.79.91,2.9a36.36,36.36,0,0,1-3,4.12,36.25,36.25,0,0,1-4.81-1.68l-.91-2.9L901,860.92l-1.82-5.79c-.32-1-.56-1.94-.95-2.89a30.54,30.54,0,0,1,3-4.13"/><path class="d" d="M1204.47,850.94a30.68,30.68,0,0,1,4.85,1.66c.23,1,.58,1.94.87,2.91l1.81,5.79,1.81,5.79.91,2.9a36.59,36.59,0,0,1-3,4.12,36.46,36.46,0,0,1-4.81-1.68l-.91-2.9-1.82-5.79-1.81-5.79c-.32-1-.56-1.94-.95-2.89a30.54,30.54,0,0,1,3-4.13"/><path class="d" d="M1091.33,904.26a30.68,30.68,0,0,1,4.85,1.66c.23,1,.58,1.94.87,2.91l1.81,5.79,1.81,5.79.91,2.9a36.36,36.36,0,0,1-3,4.12,36.61,36.61,0,0,1-4.81-1.68l-.91-2.9-1.81-5.79-1.82-5.79c-.32-1-.56-1.94-.95-2.89a30.54,30.54,0,0,1,3-4.13"/><path class="d" d="M1146.06,770a30.69,30.69,0,0,1,4.85,1.66c.23,1,.58,1.94.87,2.91l1.81,5.79,1.81,5.79.91,2.9a36.59,36.59,0,0,1-3,4.12,36.46,36.46,0,0,1-4.81-1.68l-.91-2.9-1.81-5.79L1144,777c-.32-1-.56-1.94-.95-2.89a30.74,30.74,0,0,1,3-4.13"/><path class="d" d="M1248.31,906.46a30.68,30.68,0,0,1,4.85,1.66c.23,1,.58,1.94.87,2.91l1.81,5.79,1.81,5.79.91,2.9a36.59,36.59,0,0,1-3,4.12,36.46,36.46,0,0,1-4.81-1.68l-.91-2.9-1.81-5.79-1.82-5.79c-.32-1-.56-1.94-.95-2.89a30.54,30.54,0,0,1,3-4.13"/><path class="d" d="M884.29,915.18a30.68,30.68,0,0,1,4.85,1.66c.23,1,.58,1.94.87,2.91l1.81,5.79,1.81,5.79.91,2.9a36.6,36.6,0,0,1-3,4.12,36.46,36.46,0,0,1-4.81-1.68l-.91-2.9L884,928l-1.82-5.79c-.32-1-.56-1.94-.95-2.89a30.54,30.54,0,0,1,3-4.13"/><path class="d" d="M1149.51,898.16a30.68,30.68,0,0,1,4.85,1.66c.23,1,.58,1.94.87,2.91l1.81,5.79,1.81,5.79.91,2.9a36.59,36.59,0,0,1-3,4.12,36.46,36.46,0,0,1-4.81-1.68l-.91-2.9-1.81-5.79-1.82-5.79c-.32-1-.56-1.94-.95-2.89a30.54,30.54,0,0,1,3-4.13"/><path class="d" d="M1026.39,928.87a30.53,30.53,0,0,1-3.74-3.59c.2-1,.27-2.07.4-3.1l.73-6.21.73-6.21.36-3.1a36.24,36.24,0,0,1,4.42-2.63,37,37,0,0,1,3.7,3.58l-.37,3.1-.73,6.21-.73,6.21c-.1,1-.28,2.07-.32,3.11a30.79,30.79,0,0,1-4.47,2.62"/><path class="d" d="M1091.32,794.63a30.53,30.53,0,0,1-3.74-3.59c.2-1,.27-2.07.4-3.1l.73-6.21.73-6.21.36-3.1a36.38,36.38,0,0,1,4.42-2.63,36.75,36.75,0,0,1,3.7,3.58l-.37,3.1-.73,6.21-.73,6.21c-.1,1-.28,2.07-.33,3.11a30.52,30.52,0,0,1-4.47,2.62"/><path class="d" d="M1112.39,862.5a30.53,30.53,0,0,1-3.74-3.59c.2-1,.27-2.07.4-3.1l.73-6.21.73-6.21.36-3.1a37,37,0,0,1,4.42-2.63,37,37,0,0,1,3.7,3.58l-.37,3.1-.73,6.21-.73,6.21c-.1,1-.28,2.07-.32,3.11a30.79,30.79,0,0,1-4.47,2.62"/><path class="d" d="M452,848.61a30.68,30.68,0,0,1,4.85,1.66c.22,1,.58,1.94.87,2.91l1.82,5.79,1.81,5.79.91,2.9a36.36,36.36,0,0,1-3,4.12,36.61,36.61,0,0,1-4.81-1.68l-.91-2.9-1.82-5.79-1.81-5.79c-.32-1-.57-1.94-.95-2.89a30.54,30.54,0,0,1,3-4.13"/><path class="d" d="M487.35,757.51a30.68,30.68,0,0,1,4.85,1.66c.23,1,.58,1.94.87,2.91l1.81,5.79,1.81,5.79.91,2.9a36.36,36.36,0,0,1-3,4.12A36.61,36.61,0,0,1,489.8,779l-.91-2.9-1.81-5.8-1.82-5.79c-.32-1-.56-1.94-.95-2.89a30.74,30.74,0,0,1,3-4.13"/><path class="d" d="M551.28,750.74a30.56,30.56,0,0,1,2.25,4.42c-.52.76-.92,1.58-1.39,2.37l-2.7,4.79-2.7,4.79-1.35,2.39a36.12,36.12,0,0,1-4.91.39,36.61,36.61,0,0,1-2.21-4.4l1.35-2.4,2.7-4.79,2.7-4.79c.44-.81.94-1.58,1.32-2.41a30.39,30.39,0,0,1,4.95-.37"/><path class="d" d="M671.84,938.15a30.63,30.63,0,0,1,2.25,4.42c-.52.76-.92,1.59-1.39,2.37l-2.7,4.79-2.7,4.79-1.35,2.39a36.55,36.55,0,0,1-4.91.39,36.61,36.61,0,0,1-2.21-4.4l1.35-2.4,2.7-4.79,2.7-4.79c.44-.81.94-1.58,1.32-2.41a30.39,30.39,0,0,1,4.95-.37"/><path class="d" d="M752.72,836.25a30.63,30.63,0,0,1,2.25,4.42c-.52.76-.92,1.59-1.39,2.37l-2.7,4.79-2.7,4.79L746.82,855a36.12,36.12,0,0,1-4.91.39,36.61,36.61,0,0,1-2.21-4.4l1.35-2.4,2.7-4.79,2.7-4.79c.44-.81.94-1.58,1.32-2.41a30.39,30.39,0,0,1,4.95-.37"/><path class="d" d="M517,820.63a30.56,30.56,0,0,1,2.25,4.42c-.52.76-.92,1.58-1.39,2.37l-2.7,4.79-2.7,4.79-1.35,2.39a36.12,36.12,0,0,1-4.91.39,36.61,36.61,0,0,1-2.21-4.4l1.35-2.4,2.7-4.79,2.7-4.79c.44-.81.94-1.58,1.32-2.41a30.39,30.39,0,0,1,4.95-.37"/><path class="d" d="M1056.84,684.2a30.63,30.63,0,0,1,2.25,4.42c-.52.76-.92,1.59-1.39,2.37l-2.7,4.79-2.7,4.79-1.35,2.39a36.55,36.55,0,0,1-4.91.39,36.61,36.61,0,0,1-2.21-4.4l1.35-2.4,2.7-4.79,2.7-4.79c.44-.81.94-1.58,1.32-2.41a30.39,30.39,0,0,1,4.95-.37"/><path class="d" d="M1021.89,776.89a30.56,30.56,0,0,1,2.25,4.42c-.52.76-.92,1.58-1.39,2.37l-2.7,4.79-2.7,4.79-1.35,2.39a36.12,36.12,0,0,1-4.91.39,36.61,36.61,0,0,1-2.21-4.4l1.35-2.4,2.7-4.79,2.7-4.79c.44-.81.94-1.58,1.32-2.41a30.39,30.39,0,0,1,4.95-.37"/><path class="d" d="M548.14,850.2a30.68,30.68,0,0,1,4.85,1.66c.23,1,.58,1.94.87,2.91l1.81,5.79,1.81,5.79.91,2.9a36.36,36.36,0,0,1-3,4.12,36.61,36.61,0,0,1-4.81-1.68l-.91-2.9L547.87,863l-1.82-5.79c-.32-1-.56-1.94-.95-2.89a30.54,30.54,0,0,1,3-4.13"/><path class="d" d="M606.31,941.85a30.68,30.68,0,0,1,4.85,1.66c.23,1,.58,1.94.87,2.91l1.81,5.79,1.81,5.79.91,2.9a36.6,36.6,0,0,1-3,4.12,36.1,36.1,0,0,1-4.81-1.68l-.91-2.9L606,954.66l-1.82-5.79c-.32-1-.56-1.94-.95-2.89a30.74,30.74,0,0,1,3-4.13"/><path class="d" d="M538.94,912.77a30.68,30.68,0,0,1,4.85,1.66c.23,1,.58,1.94.87,2.91l1.81,5.79,1.81,5.79.91,2.9a36.6,36.6,0,0,1-3,4.12,36.46,36.46,0,0,1-4.81-1.68l-.91-2.9-1.81-5.79-1.82-5.79c-.32-1-.56-1.94-.95-2.89a30.74,30.74,0,0,1,3-4.13"/><path class="d" d="M617.46,863.47a30.68,30.68,0,0,1,4.85,1.66c.23,1,.58,1.94.87,2.91l1.81,5.79,1.81,5.79.91,2.9a36.36,36.36,0,0,1-3,4.12,36.61,36.61,0,0,1-4.81-1.68l-.91-2.9-1.81-5.79-1.82-5.79c-.32-1-.56-1.94-.95-2.89a30.74,30.74,0,0,1,3-4.13"/><path class="d" d="M687.66,864.23a30.68,30.68,0,0,1,4.85,1.66c.23,1,.58,1.94.87,2.91l1.81,5.79L697,880.4l.91,2.9a36.6,36.6,0,0,1-3,4.12,36.46,36.46,0,0,1-4.81-1.68l-.91-2.9L687.39,877l-1.82-5.79c-.32-1-.56-1.94-.95-2.89a30.54,30.54,0,0,1,3-4.13"/><path class="d" d="M764.13,735.21a30.68,30.68,0,0,1,4.85,1.66c.23,1,.58,1.94.87,2.91l1.81,5.79,1.81,5.79.91,2.9a36.6,36.6,0,0,1-3,4.12,36.46,36.46,0,0,1-4.81-1.68l-.91-2.9L763.86,748,762,742.22c-.32-1-.56-1.94-.95-2.89a30.74,30.74,0,0,1,3-4.13"/><path class="d" d="M731.77,921.45a30.68,30.68,0,0,1,4.85,1.66c.23,1,.58,1.94.87,2.91l1.81,5.79,1.81,5.79.91,2.9a36.6,36.6,0,0,1-3,4.12,36.1,36.1,0,0,1-4.81-1.68l-.91-2.9-1.81-5.79-1.82-5.79c-.32-1-.56-1.94-.95-2.89a30.54,30.54,0,0,1,3-4.13"/><path class="d" d="M784.52,860.66a30.68,30.68,0,0,1,4.85,1.66c.23,1,.58,1.94.87,2.91l1.81,5.79,1.81,5.79.91,2.9a36.6,36.6,0,0,1-3,4.12,36.46,36.46,0,0,1-4.81-1.68l-.91-2.9-1.81-5.79-1.82-5.79c-.32-1-.56-1.94-.95-2.89a30.74,30.74,0,0,1,3-4.13"/><path class="d" d="M651,788.52a30.68,30.68,0,0,1,4.85,1.66c.23,1,.58,1.94.87,2.91l1.81,5.79,1.81,5.79.91,2.9a36.36,36.36,0,0,1-3,4.12,36.61,36.61,0,0,1-4.81-1.68l-.91-2.9-1.81-5.79-1.82-5.79c-.32-1-.56-1.94-.95-2.89a30.74,30.74,0,0,1,3-4.13"/><path class="d" d="M808,790.72a30.68,30.68,0,0,1,4.85,1.66c.23,1,.58,1.94.87,2.91l1.81,5.79,1.81,5.79.91,2.9a36.6,36.6,0,0,1-3,4.12,36.46,36.46,0,0,1-4.81-1.68l-.91-2.9-1.81-5.79-1.82-5.79c-.32-1-.56-1.94-.95-2.89a30.74,30.74,0,0,1,3-4.13"/><path class="d" d="M443.94,799.45a30.68,30.68,0,0,1,4.85,1.66c.23,1,.58,1.94.87,2.91l1.81,5.79,1.81,5.79.91,2.9a36.36,36.36,0,0,1-3,4.12,36.61,36.61,0,0,1-4.81-1.68l-.91-2.9-1.81-5.79-1.82-5.79c-.32-1-.56-1.94-.95-2.89a30.54,30.54,0,0,1,3-4.13"/><path class="d" d="M551.24,988.48a30.54,30.54,0,0,1,2.25,4.42c-.52.76-.92,1.59-1.39,2.37l-2.7,4.79-2.7,4.79-1.35,2.39a36.55,36.55,0,0,1-4.91.39,36.51,36.51,0,0,1-2.21-4.4l1.35-2.39,2.7-4.79,2.7-4.79c.44-.81.94-1.58,1.32-2.41a30.39,30.39,0,0,1,4.95-.37"/><path class="d" d="M494.75,1006.36a30.68,30.68,0,0,1,4.85,1.66c.23,1,.58,1.94.87,2.91l1.81,5.79,1.81,5.79.91,2.9a36.6,36.6,0,0,1-3,4.12,36.11,36.11,0,0,1-4.81-1.68l-.91-2.9-1.81-5.79-1.82-5.79c-.32-1-.56-1.94-.95-2.89a30.74,30.74,0,0,1,3-4.13"/><path class="d" d="M494.65,931.82a30.68,30.68,0,0,1,4.85,1.66c.23,1,.58,1.94.87,2.91l1.81,5.79L504,948l.91,2.9a36.6,36.6,0,0,1-3,4.12,36.46,36.46,0,0,1-4.81-1.68l-.91-2.9-1.81-5.79-1.82-5.79c-.32-1-.56-1.94-.95-2.89a30.74,30.74,0,0,1,3-4.13"/><path class="d" d="M709.17,782.43a30.68,30.68,0,0,1,4.85,1.66c.23,1,.58,1.94.87,2.91l1.81,5.8,1.81,5.79.91,2.9a36.6,36.6,0,0,1-3,4.12,36.1,36.1,0,0,1-4.81-1.68l-.91-2.9-1.81-5.79-1.82-5.79c-.32-1-.56-1.94-.95-2.89a30.54,30.54,0,0,1,3-4.13"/><path class="d" d="M586,813.13a30.53,30.53,0,0,1-3.74-3.59c.2-1,.27-2.07.4-3.1l.73-6.21.73-6.21.36-3.1a36.61,36.61,0,0,1,4.42-2.63,36.75,36.75,0,0,1,3.7,3.58l-.37,3.1-.73,6.21-.73,6.21c-.1,1-.28,2.07-.32,3.11a30.79,30.79,0,0,1-4.47,2.62"/><path class="d" d="M672,746.76a30.53,30.53,0,0,1-3.74-3.59c.2-1,.27-2.07.4-3.1l.73-6.21.73-6.21.36-3.1a36.24,36.24,0,0,1,4.42-2.63,36.39,36.39,0,0,1,3.69,3.58l-.36,3.1-.73,6.21-.73,6.21c-.1,1-.28,2.07-.32,3.11a30.79,30.79,0,0,1-4.47,2.62"/></g><path class="e" d="M499,852c-252,8-331,90-499,154v209l1099,21,131-256S751,844,499,852Z"/><path class="f" d="M1920,626c-135,11.07-284.61-60.53-443-28-224,46-329.82,222.22-596,337-287.6,124-842,65-881,70.52V3035H1920Z"/></svg>