<svg xmlns="http://www.w3.org/2000/svg" xmlns:xlink="http://www.w3.org/1999/xlink" viewBox="0 0 1920 9129"><defs><style>.a{fill:none;}.b{fill:#fff;}.c{clip-path:url(#a);}.d{fill:#fff3e9;}.e{fill:#e5f2ff;}</style><clipPath id="a"><path class="a" d="M898.45,718.44c-35.94,5.9-73.15,13.46-113.52,23.13-197,47.18-237.85,122-346.12,132.07S162.87,878,84.45,931.85c-35,24.06-44.44,61.48-39,95.7l.16,1c7,41.94,36.21,78.8,67.58,79.94,57.19,2.07,230-7.08,458.24-25.24,142.26-11.32,295.69-8.26,436.3-25.47l92.37-15c50.81-10.65,99-25.36,143.2-46,186.68-87.2,209.52-109.86,211.59-167l-4.11-25.28c-17.13-51.3-81.47-104.82-81.47-104.82-209.19-1.8-329.17-4-466.9,18.19Z"/></clipPath></defs><title>ResponsiveBackground_2</title><rect class="b" width="1920" height="1080"/><g class="c"><path class="d" d="M1010.45,769.41a43,43,0,0,1,3.16,6.21c-.73,1.07-1.29,2.23-1.95,3.34l-3.8,6.73-3.79,6.73-1.9,3.36a51.36,51.36,0,0,1-6.9.54,51.45,51.45,0,0,1-3.1-6.18l1.9-3.37,3.8-6.73,3.79-6.73c.61-1.13,1.32-2.22,1.85-3.39a42.71,42.71,0,0,1,6.95-.52"/><path class="d" d="M918.37,774.6a43.11,43.11,0,0,1,6.81,2.34c.32,1.39.82,2.72,1.22,4.09l2.55,8.14,2.55,8.14,1.28,4.07a51.09,51.09,0,0,1-4.21,5.79,50.94,50.94,0,0,1-6.75-2.36l-1.28-4.07L918,792.61l-2.55-8.14c-.45-1.35-.79-2.73-1.33-4.05a42.92,42.92,0,0,1,4.26-5.81"/><path class="d" d="M823.7,733.75a43.11,43.11,0,0,1,6.81,2.34c.31,1.39.82,2.72,1.22,4.09l2.55,8.14,2.55,8.14,1.28,4.07a51.09,51.09,0,0,1-4.21,5.79,51.44,51.44,0,0,1-6.75-2.35l-1.28-4.07-2.55-8.14-2.55-8.14c-.45-1.35-.79-2.73-1.33-4.05a42.92,42.92,0,0,1,4.26-5.81"/><path class="d" d="M738.3,764.66a43.11,43.11,0,0,1,6.81,2.34c.32,1.39.82,2.72,1.22,4.09l2.55,8.14,2.55,8.14,1.28,4.07a51.43,51.43,0,0,1-4.21,5.79,51.23,51.23,0,0,1-6.76-2.35l-1.28-4.07-2.55-8.14-2.55-8.14c-.45-1.35-.79-2.73-1.33-4.05a42.92,42.92,0,0,1,4.26-5.81"/><path class="d" d="M666.23,769.14a43.11,43.11,0,0,1,6.81,2.34c.32,1.39.82,2.72,1.22,4.09l2.55,8.15,2.55,8.14,1.28,4.07a51.09,51.09,0,0,1-4.21,5.79,51.44,51.44,0,0,1-6.75-2.35l-1.28-4.07-2.55-8.14L663.3,779c-.45-1.35-.79-2.73-1.33-4.05a43.2,43.2,0,0,1,4.26-5.81"/><path class="d" d="M1032.68,665.54a43.12,43.12,0,0,1,6.81,2.34c.32,1.39.82,2.72,1.22,4.09l2.55,8.15,2.55,8.14,1.28,4.07a51.42,51.42,0,0,1-4.21,5.79,51.23,51.23,0,0,1-6.76-2.35l-1.28-4.07-2.55-8.14-2.55-8.14c-.45-1.35-.79-2.73-1.33-4.05a43.2,43.2,0,0,1,4.26-5.81"/><path class="d" d="M1094.66,745.94a43.12,43.12,0,0,1,6.81,2.34c.32,1.39.82,2.72,1.22,4.09l2.55,8.14,2.55,8.14,1.28,4.07a51.42,51.42,0,0,1-4.21,5.79,50.73,50.73,0,0,1-6.76-2.36l-1.28-4.07-2.55-8.14-2.55-8.14c-.45-1.35-.79-2.73-1.33-4.05a43.2,43.2,0,0,1,4.26-5.81"/><path class="d" d="M1403.64,871.76a42.79,42.79,0,0,1,3.16,6.21c-.73,1.07-1.29,2.23-1.95,3.34L1401,888l-3.79,6.73-1.9,3.36a51.36,51.36,0,0,1-6.9.54,51.31,51.31,0,0,1-3.11-6.19l1.9-3.36,3.8-6.73,3.79-6.73c.61-1.13,1.32-2.22,1.85-3.39a42.71,42.71,0,0,1,6.95-.52"/><path class="d" d="M1186.06,706.63a42.83,42.83,0,0,1,3.16,6.22c-.73,1.06-1.29,2.23-1.95,3.33l-3.8,6.73-3.79,6.73-1.9,3.36a50.75,50.75,0,0,1-6.9.54,50.86,50.86,0,0,1-3.1-6.18l1.9-3.37,3.8-6.73,3.79-6.73c.61-1.13,1.32-2.21,1.85-3.39a42.71,42.71,0,0,1,6.95-.52"/><path class="d" d="M1229.82,748.18a43.12,43.12,0,0,1,6.81,2.34c.32,1.39.82,2.72,1.22,4.09l2.55,8.14,2.55,8.14,1.28,4.07a51.42,51.42,0,0,1-4.21,5.79,50.73,50.73,0,0,1-6.76-2.36l-1.28-4.07-2.55-8.14-2.55-8.14c-.45-1.35-.79-2.73-1.33-4.05a42.91,42.91,0,0,1,4.26-5.81"/><path class="d" d="M1311.56,877a43.12,43.12,0,0,1,6.81,2.34c.32,1.39.82,2.72,1.22,4.09l2.55,8.14,2.55,8.14,1.28,4.07a51.08,51.08,0,0,1-4.21,5.79,51.44,51.44,0,0,1-6.75-2.35l-1.28-4.07-2.55-8.14-2.55-8.14c-.45-1.35-.79-2.73-1.33-4.05a42.91,42.91,0,0,1,4.26-5.81"/><path class="d" d="M1216.89,836.11a43.12,43.12,0,0,1,6.81,2.34c.32,1.39.82,2.72,1.22,4.09l2.55,8.14,2.55,8.14,1.28,4.07a51.08,51.08,0,0,1-4.21,5.79,51.44,51.44,0,0,1-6.75-2.35l-1.28-4.07-2.55-8.14L1214,846c-.45-1.35-.79-2.73-1.33-4.05a42.91,42.91,0,0,1,4.26-5.81"/><path class="d" d="M1327.22,766.82a43.12,43.12,0,0,1,6.81,2.34c.32,1.39.82,2.72,1.22,4.09l2.55,8.14,2.55,8.14,1.28,4.07a51.42,51.42,0,0,1-4.21,5.79,50.73,50.73,0,0,1-6.76-2.36l-1.28-4.07-2.55-8.14-2.55-8.14c-.45-1.35-.79-2.73-1.33-4.05a43.2,43.2,0,0,1,4.26-5.81"/><path class="d" d="M1425.87,767.9a43.12,43.12,0,0,1,6.81,2.34c.32,1.39.82,2.72,1.22,4.09l2.55,8.14,2.55,8.14,1.28,4.07a51.42,51.42,0,0,1-4.21,5.79,51.23,51.23,0,0,1-6.76-2.35L1428,794l-2.55-8.14-2.55-8.14c-.45-1.35-.79-2.73-1.33-4.05a43.2,43.2,0,0,1,4.26-5.81"/><path class="d" d="M1374.33,661.51a43.12,43.12,0,0,1,6.81,2.34c.32,1.39.82,2.72,1.22,4.09l2.55,8.14,2.55,8.14,1.28,4.07a51.42,51.42,0,0,1-4.21,5.79,51.23,51.23,0,0,1-6.76-2.35l-1.28-4.07-2.55-8.14-2.55-8.14c-.45-1.35-.79-2.73-1.33-4.05a42.91,42.91,0,0,1,4.26-5.81"/><path class="d" d="M1083.41,676.86a43.12,43.12,0,0,1,6.81,2.34c.32,1.39.82,2.72,1.22,4.09l2.55,8.14,2.55,8.14,1.28,4.07a51.42,51.42,0,0,1-4.21,5.79,50.73,50.73,0,0,1-6.76-2.36l-1.28-4.07-2.55-8.14-2.55-8.14c-.45-1.35-.79-2.73-1.33-4.05a43.2,43.2,0,0,1,4.26-5.81"/><path class="d" d="M1283.09,696.09a42.89,42.89,0,0,1-5.25-5c.28-1.44.37-2.9.57-4.36l1-8.72,1-8.73.51-4.36a52,52,0,0,1,6.22-3.69,51.63,51.63,0,0,1,5.2,5l-.51,4.36-1,8.73-1,8.72c-.15,1.46-.4,2.9-.46,4.37a43.26,43.26,0,0,1-6.28,3.68"/><path class="d" d="M326,1146.29a43,43,0,0,1,3.16,6.21c-.73,1.07-1.29,2.23-1.95,3.34l-3.8,6.73-3.79,6.73-1.9,3.36a51.36,51.36,0,0,1-6.9.54,51.45,51.45,0,0,1-3.1-6.18l1.9-3.37,3.8-6.73,3.79-6.73c.61-1.13,1.32-2.22,1.85-3.39a42.7,42.7,0,0,1,6.95-.52"/><path class="d" d="M586.49,1094.15a43.11,43.11,0,0,1,6.81,2.34c.32,1.39.82,2.72,1.22,4.09l2.55,8.14,2.55,8.14,1.28,4.07a51.43,51.43,0,0,1-4.21,5.79,50.73,50.73,0,0,1-6.76-2.36l-1.28-4.07-2.55-8.14-2.55-8.14c-.45-1.35-.79-2.73-1.33-4.05a42.92,42.92,0,0,1,4.26-5.81"/><path class="d" d="M509.57,1128.83a42.91,42.91,0,0,1-5.25-5c.28-1.44.37-2.9.57-4.36l1-8.72,1-8.73.51-4.36a52.19,52.19,0,0,1,6.22-3.69,52,52,0,0,1,5.2,5l-.51,4.36-1,8.73-1,8.72c-.15,1.46-.4,2.9-.46,4.37a43.26,43.26,0,0,1-6.28,3.68"/><path class="d" d="M773.39,890.15a43,43,0,0,1,3.16,6.21c-.73,1.07-1.29,2.23-1.95,3.34l-3.8,6.73L767,913.16l-1.9,3.36a51.36,51.36,0,0,1-6.9.54,51.3,51.3,0,0,1-3.11-6.19l1.9-3.36,3.8-6.73,3.79-6.73c.61-1.13,1.31-2.21,1.85-3.39a42.71,42.71,0,0,1,6.95-.52"/><path class="d" d="M615.13,973a43,43,0,0,1,3.16,6.22c-.73,1.06-1.29,2.23-1.95,3.33l-3.8,6.73L608.75,996l-1.9,3.36a50.75,50.75,0,0,1-6.9.54,50.86,50.86,0,0,1-3.1-6.18l1.9-3.37,3.8-6.73,3.79-6.73c.61-1.13,1.31-2.21,1.85-3.39a42.71,42.71,0,0,1,6.95-.52"/><path class="d" d="M627.4,820.74a42.82,42.82,0,0,1,3.16,6.22c-.73,1.06-1.29,2.23-1.95,3.33l-3.8,6.73L621,843.75l-1.9,3.36a50.75,50.75,0,0,1-6.9.54,51.44,51.44,0,0,1-3.1-6.18l1.9-3.37,3.8-6.73,3.79-6.73c.61-1.13,1.32-2.22,1.85-3.39a42.7,42.7,0,0,1,6.95-.52"/><path class="d" d="M816.88,973.65a43,43,0,0,1,3.16,6.22c-.73,1.06-1.29,2.23-1.95,3.33l-3.8,6.73-3.79,6.73-1.9,3.36a50.75,50.75,0,0,1-6.9.54,51.44,51.44,0,0,1-3.1-6.18l1.9-3.37,3.8-6.73,3.79-6.73c.61-1.13,1.32-2.22,1.85-3.39a42.7,42.7,0,0,1,6.95-.52"/><path class="d" d="M768.7,1071.86a43,43,0,0,1,3.16,6.22c-.73,1.06-1.29,2.23-1.95,3.34l-3.8,6.73-3.79,6.73-1.9,3.36a51.31,51.31,0,0,1-6.9.55,51.66,51.66,0,0,1-3.11-6.19l1.9-3.37,3.8-6.73,3.79-6.73c.61-1.13,1.31-2.21,1.85-3.39a42.7,42.7,0,0,1,6.95-.52"/><path class="d" d="M1127,869.42a43,43,0,0,1,3.16,6.22c-.73,1.06-1.29,2.23-1.95,3.33l-3.8,6.73-3.79,6.73-1.9,3.36a50.75,50.75,0,0,1-6.9.54,51.45,51.45,0,0,1-3.1-6.18l1.9-3.37,3.8-6.73,3.79-6.73c.61-1.13,1.32-2.22,1.85-3.39a42.71,42.71,0,0,1,6.95-.52"/><path class="d" d="M1205.08,898.3a43,43,0,0,1,3.16,6.22c-.73,1.06-1.29,2.23-1.95,3.33l-3.8,6.73-3.79,6.73-1.9,3.36a50.75,50.75,0,0,1-6.9.54,51.45,51.45,0,0,1-3.1-6.18l1.9-3.37,3.8-6.73,3.79-6.73c.61-1.13,1.32-2.22,1.85-3.39a42.71,42.71,0,0,1,6.95-.52"/><path class="d" d="M1333.5,955.92a42.83,42.83,0,0,1,3.16,6.22c-.73,1.06-1.29,2.23-1.95,3.33l-3.8,6.73-3.79,6.73-1.9,3.36a51.36,51.36,0,0,1-6.9.54,51.31,51.31,0,0,1-3.11-6.19l1.9-3.36,3.8-6.73,3.79-6.73c.61-1.13,1.32-2.22,1.85-3.39a42.71,42.71,0,0,1,6.95-.52"/><path class="d" d="M1454.78,930.72a43.12,43.12,0,0,1,6.81,2.34c.32,1.39.82,2.72,1.22,4.09l2.55,8.14,2.55,8.14,1.28,4.07a51.42,51.42,0,0,1-4.21,5.79,51.23,51.23,0,0,1-6.76-2.35l-1.28-4.07-2.55-8.14-2.55-8.14c-.45-1.35-.79-2.73-1.33-4.05a43.2,43.2,0,0,1,4.26-5.81"/><path class="d" d="M1235,974.23a43.12,43.12,0,0,1,6.81,2.34c.32,1.39.82,2.72,1.22,4.09l2.55,8.14,2.55,8.14,1.28,4.07a51.42,51.42,0,0,1-4.21,5.79,51.23,51.23,0,0,1-6.76-2.35l-1.28-4.07-2.55-8.14-2.55-8.14c-.45-1.35-.79-2.73-1.33-4.05a42.91,42.91,0,0,1,4.26-5.81"/><path class="d" d="M875,917.73a43.11,43.11,0,0,1,6.81,2.34c.32,1.39.82,2.72,1.22,4.09l2.55,8.14,2.55,8.14,1.28,4.07a51.43,51.43,0,0,1-4.21,5.79,50.73,50.73,0,0,1-6.76-2.36l-1.28-4.07-2.55-8.14-2.55-8.14c-.45-1.35-.79-2.73-1.33-4.05a43.2,43.2,0,0,1,4.26-5.81"/><path class="d" d="M796.92,794.35a43.11,43.11,0,0,1,6.81,2.34c.31,1.39.82,2.72,1.22,4.09l2.55,8.14,2.55,8.14,1.28,4.07a51.09,51.09,0,0,1-4.21,5.79,50.94,50.94,0,0,1-6.75-2.36l-1.28-4.07-2.55-8.14L794,804.21c-.45-1.35-.79-2.73-1.33-4.05a42.92,42.92,0,0,1,4.26-5.81"/><path class="d" d="M678.24,843a43.11,43.11,0,0,1,6.81,2.34c.32,1.39.82,2.72,1.22,4.09l2.55,8.14,2.55,8.14,1.28,4.07a51.09,51.09,0,0,1-4.21,5.79,50.94,50.94,0,0,1-6.75-2.36l-1.28-4.07L677.86,861l-2.55-8.14c-.45-1.35-.79-2.73-1.33-4.05a43.2,43.2,0,0,1,4.26-5.81"/><path class="d" d="M689.85,947.84a43.11,43.11,0,0,1,6.81,2.34c.31,1.39.82,2.72,1.22,4.09l2.55,8.14,2.55,8.14,1.28,4.07a51.09,51.09,0,0,1-4.21,5.79,50.94,50.94,0,0,1-6.75-2.36L692,974l-2.55-8.14-2.55-8.14c-.45-1.35-.79-2.73-1.33-4.05a42.92,42.92,0,0,1,4.26-5.81"/><path class="d" d="M1116,951.82a43.12,43.12,0,0,1,6.81,2.34c.32,1.39.82,2.72,1.22,4.09l2.55,8.14,2.55,8.14,1.28,4.07a51.42,51.42,0,0,1-4.21,5.79,51.23,51.23,0,0,1-6.76-2.35l-1.28-4.07-2.55-8.14-2.55-8.14c-.45-1.35-.79-2.73-1.33-4.05a42.91,42.91,0,0,1,4.26-5.81"/><path class="d" d="M957,1026.74a43.11,43.11,0,0,1,6.81,2.34c.32,1.39.82,2.72,1.22,4.09l2.55,8.14,2.55,8.14,1.28,4.07a51.09,51.09,0,0,1-4.21,5.79,51.45,51.45,0,0,1-6.75-2.35l-1.28-4.07-2.55-8.14L954,1036.6c-.45-1.35-.79-2.73-1.33-4.05a42.92,42.92,0,0,1,4.26-5.81"/><path class="d" d="M1033.88,838a43.12,43.12,0,0,1,6.81,2.34c.32,1.39.82,2.72,1.22,4.09l2.55,8.14,2.55,8.14,1.28,4.07a51.42,51.42,0,0,1-4.21,5.79,51.23,51.23,0,0,1-6.76-2.35l-1.28-4.07L1033.5,856l-2.55-8.14c-.45-1.35-.79-2.73-1.33-4.05a43.2,43.2,0,0,1,4.26-5.81"/><path class="d" d="M1177.56,1029.83a43.12,43.12,0,0,1,6.81,2.34c.32,1.39.82,2.72,1.22,4.09l2.55,8.14,2.55,8.14,1.28,4.07a51.42,51.42,0,0,1-4.21,5.79,51.23,51.23,0,0,1-6.76-2.35l-1.28-4.07-2.55-8.14-2.55-8.14c-.45-1.35-.79-2.73-1.33-4.05a42.91,42.91,0,0,1,4.26-5.81"/><path class="d" d="M666.05,1042.09a43.11,43.11,0,0,1,6.81,2.34c.32,1.39.82,2.72,1.22,4.09l2.55,8.14,2.55,8.14,1.28,4.07a51.43,51.43,0,0,1-4.21,5.79,51.24,51.24,0,0,1-6.76-2.35l-1.28-4.07-2.55-8.14-2.55-8.14c-.45-1.35-.79-2.73-1.33-4.05a42.92,42.92,0,0,1,4.26-5.81"/><path class="d" d="M1038.73,1018.18a43.12,43.12,0,0,1,6.81,2.34c.32,1.39.82,2.72,1.22,4.09l2.55,8.14,2.55,8.14,1.28,4.07a51.42,51.42,0,0,1-4.21,5.79,51.23,51.23,0,0,1-6.76-2.35l-1.28-4.07-2.55-8.14-2.55-8.14c-.45-1.35-.79-2.73-1.33-4.05a42.91,42.91,0,0,1,4.26-5.81"/><path class="d" d="M865.73,1061.32a42.9,42.9,0,0,1-5.25-5c.28-1.44.37-2.91.57-4.36l1-8.73,1-8.72.51-4.36a50.92,50.92,0,0,1,6.22-3.69,52,52,0,0,1,5.2,5l-.51,4.36-1,8.73-1,8.72c-.15,1.46-.4,2.9-.46,4.37a43.27,43.27,0,0,1-6.28,3.68"/><path class="d" d="M957,872.69a42.9,42.9,0,0,1-5.25-5c.28-1.44.37-2.91.57-4.36l1-8.73,1-8.72.51-4.36a51.12,51.12,0,0,1,6.22-3.69,51.64,51.64,0,0,1,5.2,5l-.51,4.36-1,8.73-1,8.72c-.15,1.46-.4,2.9-.46,4.37a42.89,42.89,0,0,1-6.27,3.69"/><path class="d" d="M986.58,968.06a42.9,42.9,0,0,1-5.25-5c.28-1.44.37-2.9.57-4.36l1-8.72,1-8.73.51-4.36a52,52,0,0,1,6.22-3.69,52,52,0,0,1,5.2,5l-.51,4.36-1,8.73-1,8.72c-.14,1.46-.4,2.9-.45,4.37a43.27,43.27,0,0,1-6.28,3.68"/><path class="d" d="M58.55,948.54a43.11,43.11,0,0,1,6.81,2.34c.31,1.39.82,2.72,1.22,4.09l2.55,8.14,2.55,8.14L73,975.33a51.09,51.09,0,0,1-4.21,5.79A51.45,51.45,0,0,1,62,978.76l-1.28-4.07-2.55-8.14-2.55-8.14c-.45-1.35-.8-2.73-1.33-4.05a42.92,42.92,0,0,1,4.26-5.81"/><path class="d" d="M108.3,820.54a43.11,43.11,0,0,1,6.81,2.34c.32,1.39.82,2.72,1.22,4.09l2.55,8.14,2.55,8.14,1.28,4.07a51.09,51.09,0,0,1-4.21,5.79,51.45,51.45,0,0,1-6.75-2.35l-1.28-4.07-2.55-8.15-2.55-8.14c-.45-1.35-.79-2.73-1.33-4.05a43.2,43.2,0,0,1,4.26-5.81"/><path class="d" d="M198.12,811a42.94,42.94,0,0,1,3.16,6.22c-.73,1.06-1.29,2.23-1.95,3.34l-3.8,6.73L191.74,834l-1.9,3.36a50.76,50.76,0,0,1-6.9.54,51.45,51.45,0,0,1-3.1-6.18l1.9-3.37,3.8-6.73,3.79-6.73c.61-1.13,1.32-2.22,1.85-3.39a42.7,42.7,0,0,1,6.95-.52"/><path class="d" d="M367.53,1074.36a43,43,0,0,1,3.16,6.21c-.73,1.07-1.29,2.23-1.95,3.34l-3.8,6.73-3.79,6.73-1.9,3.36a51.36,51.36,0,0,1-6.9.54,51.45,51.45,0,0,1-3.1-6.18l1.9-3.37,3.8-6.73,3.79-6.73c.61-1.13,1.31-2.21,1.85-3.39a42.7,42.7,0,0,1,6.95-.52"/><path class="d" d="M481.18,931.18a43,43,0,0,1,3.16,6.21c-.73,1.07-1.29,2.23-1.95,3.34l-3.8,6.73-3.79,6.73-1.9,3.36a50.75,50.75,0,0,1-6.9.54,51.45,51.45,0,0,1-3.1-6.18l1.9-3.37,3.8-6.73,3.79-6.73c.61-1.13,1.31-2.21,1.85-3.39a42.71,42.71,0,0,1,6.95-.52"/><path class="d" d="M149.95,909.23a42.94,42.94,0,0,1,3.16,6.22c-.73,1.06-1.29,2.23-1.95,3.33l-3.8,6.73-3.79,6.73-1.9,3.36a50.75,50.75,0,0,1-6.9.54,51.45,51.45,0,0,1-3.1-6.18l1.9-3.37,3.8-6.73,3.79-6.73c.61-1.13,1.31-2.21,1.85-3.39a42.7,42.7,0,0,1,6.95-.52"/><path class="d" d="M908.52,717.52a43,43,0,0,1,3.16,6.21c-.73,1.07-1.29,2.23-1.95,3.34l-3.8,6.73-3.79,6.73-1.9,3.36a51.36,51.36,0,0,1-6.9.54,51.44,51.44,0,0,1-3.1-6.18l1.9-3.37,3.8-6.73,3.79-6.73c.61-1.13,1.32-2.22,1.85-3.39a42.7,42.7,0,0,1,6.95-.52"/><path class="d" d="M859.41,847.77a43,43,0,0,1,3.16,6.22c-.73,1.06-1.29,2.23-1.95,3.33l-3.8,6.73L853,870.78l-1.9,3.36a50.75,50.75,0,0,1-6.9.54,51.44,51.44,0,0,1-3.1-6.18l1.9-3.37,3.8-6.73,3.79-6.73c.61-1.13,1.32-2.22,1.85-3.39a42.71,42.71,0,0,1,6.95-.52"/><path class="d" d="M193.71,950.78a43.11,43.11,0,0,1,6.81,2.34c.32,1.39.82,2.72,1.22,4.09l2.55,8.14,2.55,8.14,1.28,4.07a51.09,51.09,0,0,1-4.21,5.79,51.45,51.45,0,0,1-6.75-2.35l-1.28-4.07-2.55-8.14-2.55-8.14c-.45-1.35-.79-2.73-1.33-4.05a42.92,42.92,0,0,1,4.26-5.81"/><path class="d" d="M275.45,1079.55a43.11,43.11,0,0,1,6.81,2.34c.32,1.39.82,2.72,1.22,4.09l2.55,8.14,2.55,8.14,1.28,4.07a51.43,51.43,0,0,1-4.21,5.79,50.73,50.73,0,0,1-6.76-2.36l-1.28-4.07-2.55-8.14-2.55-8.14c-.45-1.35-.79-2.73-1.33-4.05a43.2,43.2,0,0,1,4.26-5.81"/><path class="d" d="M180.78,1038.71a43.11,43.11,0,0,1,6.81,2.34c.32,1.39.82,2.72,1.22,4.09l2.55,8.14,2.55,8.14,1.28,4.07a51.43,51.43,0,0,1-4.21,5.79,51.24,51.24,0,0,1-6.76-2.35l-1.28-4.07-2.55-8.14-2.55-8.14c-.45-1.35-.79-2.73-1.33-4.05a43.2,43.2,0,0,1,4.26-5.81"/><path class="d" d="M291.11,969.42a43.11,43.11,0,0,1,6.81,2.34c.32,1.39.82,2.72,1.22,4.09l2.55,8.14,2.55,8.14,1.28,4.07a51.09,51.09,0,0,1-4.21,5.79,51.45,51.45,0,0,1-6.75-2.35l-1.28-4.07-2.55-8.14-2.55-8.14c-.45-1.35-.79-2.73-1.33-4.05a43.2,43.2,0,0,1,4.26-5.81"/><path class="d" d="M389.76,970.5a43.11,43.11,0,0,1,6.81,2.34c.32,1.39.82,2.72,1.22,4.09l2.55,8.14,2.55,8.14,1.28,4.07a51.43,51.43,0,0,1-4.21,5.79,51.24,51.24,0,0,1-6.76-2.35l-1.28-4.07-2.55-8.14-2.55-8.14c-.45-1.35-.79-2.73-1.33-4.05a42.92,42.92,0,0,1,4.26-5.81"/><path class="d" d="M497.21,789.19a43.11,43.11,0,0,1,6.81,2.34c.32,1.39.82,2.72,1.22,4.09l2.55,8.14,2.55,8.14,1.28,4.07a51.43,51.43,0,0,1-4.21,5.79,51.23,51.23,0,0,1-6.76-2.35l-1.28-4.07-2.55-8.14-2.55-8.14c-.45-1.35-.79-2.73-1.33-4.05a43.2,43.2,0,0,1,4.26-5.81"/><path class="d" d="M451.74,1050.89a43.11,43.11,0,0,1,6.81,2.34c.32,1.39.82,2.72,1.22,4.09l2.55,8.14,2.55,8.14,1.28,4.07a51.43,51.43,0,0,1-4.21,5.79,50.73,50.73,0,0,1-6.76-2.36l-1.28-4.07-2.55-8.14-2.55-8.14c-.45-1.35-.79-2.73-1.33-4.05a42.92,42.92,0,0,1,4.26-5.81"/><path class="d" d="M525.87,965.48a43.11,43.11,0,0,1,6.81,2.34c.32,1.39.82,2.72,1.22,4.09l2.55,8.14,2.55,8.14,1.28,4.07a51.43,51.43,0,0,1-4.21,5.79,51.23,51.23,0,0,1-6.76-2.35L528,991.63l-2.55-8.14-2.55-8.14c-.45-1.35-.79-2.73-1.33-4.05a43.2,43.2,0,0,1,4.26-5.81"/><path class="d" d="M338.22,864.11a43.11,43.11,0,0,1,6.81,2.34c.32,1.39.82,2.72,1.22,4.09l2.55,8.14,2.55,8.14,1.28,4.07a51.09,51.09,0,0,1-4.21,5.79,51.45,51.45,0,0,1-6.75-2.35l-1.28-4.07-2.55-8.14L335.29,874c-.45-1.35-.79-2.73-1.33-4.05a43.2,43.2,0,0,1,4.26-5.81"/><path class="d" d="M558.81,867.2a43.11,43.11,0,0,1,6.81,2.34c.32,1.39.82,2.72,1.22,4.09l2.55,8.14,2.55,8.14,1.28,4.07a51.43,51.43,0,0,1-4.21,5.79,51.23,51.23,0,0,1-6.76-2.35L561,893.35l-2.55-8.14-2.55-8.14c-.45-1.35-.79-2.73-1.33-4.05a43.2,43.2,0,0,1,4.26-5.81"/><path class="d" d="M47.29,879.46a43.11,43.11,0,0,1,6.81,2.34c.32,1.39.82,2.72,1.22,4.09L57.88,894l2.55,8.14,1.28,4.07A51.09,51.09,0,0,1,57.49,912a51.45,51.45,0,0,1-6.75-2.35l-1.28-4.07-2.55-8.14-2.55-8.14c-.45-1.35-.79-2.73-1.33-4.05a42.92,42.92,0,0,1,4.26-5.81"/><path class="d" d="M198.07,1145.08a42.91,42.91,0,0,1,3.16,6.21c-.73,1.07-1.29,2.23-1.95,3.34l-3.8,6.73-3.79,6.73-1.9,3.36a51.36,51.36,0,0,1-6.9.54,51.3,51.3,0,0,1-3.11-6.19l1.9-3.36,3.8-6.73,3.79-6.73c.61-1.13,1.31-2.21,1.85-3.39a42.7,42.7,0,0,1,6.95-.52"/><path class="d" d="M118.68,1170.21a43.11,43.11,0,0,1,6.81,2.34c.32,1.39.82,2.72,1.22,4.09l2.55,8.14,2.55,8.14,1.28,4.07a51.43,51.43,0,0,1-4.21,5.79,50.73,50.73,0,0,1-6.76-2.36l-1.28-4.07-2.55-8.14-2.55-8.14c-.45-1.35-.79-2.73-1.33-4.05a43.2,43.2,0,0,1,4.26-5.81"/><path class="d" d="M118.54,1065.47a43.11,43.11,0,0,1,6.81,2.34c.32,1.39.82,2.72,1.22,4.09l2.55,8.14,2.55,8.14,1.28,4.07a51.43,51.43,0,0,1-4.21,5.79,51.24,51.24,0,0,1-6.76-2.35l-1.28-4.07-2.55-8.14-2.55-8.14c-.45-1.35-.79-2.73-1.33-4.05a43.2,43.2,0,0,1,4.26-5.81"/><path class="d" d="M420,855.54a43.11,43.11,0,0,1,6.81,2.34c.32,1.39.82,2.72,1.22,4.09l2.55,8.15,2.55,8.14,1.28,4.07a51.43,51.43,0,0,1-4.21,5.79,50.73,50.73,0,0,1-6.76-2.36l-1.28-4.07-2.55-8.14L417,865.4c-.45-1.35-.79-2.73-1.33-4.05a42.92,42.92,0,0,1,4.26-5.81"/><path class="d" d="M247,898.69a42.9,42.9,0,0,1-5.25-5c.28-1.44.37-2.91.57-4.36l1-8.73,1-8.72.51-4.36a51.44,51.44,0,0,1,6.22-3.69,51.64,51.64,0,0,1,5.2,5l-.51,4.36-1,8.73-1,8.72c-.15,1.46-.4,2.9-.46,4.37a43.26,43.26,0,0,1-6.28,3.68"/><path class="d" d="M367.82,805.43a42.9,42.9,0,0,1-5.25-5c.28-1.44.37-2.91.57-4.36l1-8.73,1-8.72.51-4.36a50.92,50.92,0,0,1,6.22-3.69,51.13,51.13,0,0,1,5.19,5l-.51,4.36-1,8.73-1,8.72c-.14,1.46-.4,2.9-.45,4.37a43.26,43.26,0,0,1-6.28,3.68"/></g><path class="e" d="M1920,635c-135,11.07-284.61-60.53-443-28-224,46-329.82,222.22-596,337-287.6,124-842,65-881,70.52V9129H1920Z"/></svg>