<svg xmlns="http://www.w3.org/2000/svg" viewBox="0 0 1440.98 19.31"><defs><style>.a{fill:none;stroke:#0064ac;stroke-miterlimit:10;stroke-width:4px;}</style></defs><title>Vagues2_2</title><path class="a" d="M0,17.31C6.93,17.31,15.19,2,29.05,2S45,17.31,58.11,17.31,74.63,2,87.42,2s16,15.31,28.52,15.31S131.4,2,144.73,2s16.79,15.31,28.79,15.31S189,2,202,2s18.66,15.31,29.32,15.31S246,2,260.14,2s18.39,15.31,27.72,15.31"/><path class="a" d="M288,17.31C295,17.31,303.23,2,317.09,2s16,15.31,29.05,15.31S362.67,2,375.46,2s16,15.31,28.52,15.31S419.44,2,432.77,2s16.79,15.31,28.79,15.31S477,2,490.07,2s18.66,15.31,29.32,15.31S534,2,548.18,2s18.39,15.31,27.72,15.31"/><path class="a" d="M576.4,17.31C583.33,17.31,591.59,2,605.45,2s16,15.31,29.05,15.31S651,2,663.82,2s16,15.31,28.52,15.31S707.8,2,721.13,2s16.79,15.31,28.79,15.31S765.37,2,778.43,2s18.66,15.31,29.32,15.31S822.41,2,836.54,2s18.39,15.31,27.72,15.31"/><path class="a" d="M864.76,17.31C871.69,17.31,879.95,2,893.81,2s16,15.31,29.05,15.31S939.39,2,952.18,2s16,15.31,28.52,15.31S996.16,2,1009.49,2s16.79,15.31,28.79,15.31S1053.73,2,1066.79,2s18.66,15.31,29.32,15.31S1110.77,2,1124.9,2s18.39,15.31,27.72,15.31"/><path class="a" d="M1153.12,17.31C1160,17.31,1168.31,2,1182.17,2s16,15.31,29.05,15.31S1227.75,2,1240.54,2s16,15.31,28.52,15.31S1284.52,2,1297.85,2s16.79,15.31,28.79,15.31S1342.09,2,1355.15,2s18.66,15.31,29.32,15.31S1399.13,2,1413.26,2s18.39,15.31,27.72,15.31"/></svg>