<svg xmlns="http://www.w3.org/2000/svg" viewBox="0 0 863.93 19.31"><defs><style>.a{fill:none;stroke:#0064ac;stroke-miterlimit:10;stroke-width:4px;}</style></defs><title>Vagues</title><path class="a" d="M0,17.31C6.93,17.31,15.19,2,29.05,2S45,17.31,58.11,17.31,74.63,2,87.42,2s16,15.31,28.52,15.31S131.4,2,144.73,2s16.79,15.31,28.79,15.31S189,2,202,2s18.66,15.31,29.32,15.31S246,2,260.14,2s18.39,15.31,27.72,15.31"/><path class="a" d="M288,17.31C295,17.31,303.23,2,317.09,2s16,15.31,29.05,15.31S362.67,2,375.46,2s16,15.31,28.52,15.31S419.44,2,432.77,2s16.79,15.31,28.79,15.31S477,2,490.07,2s18.66,15.31,29.32,15.31S534,2,548.18,2s18.39,15.31,27.72,15.31"/><path class="a" d="M576.07,17.31C583,17.31,591.26,2,605.12,2s16,15.31,29.05,15.31S650.7,2,663.49,2s16,15.31,28.52,15.31S707.47,2,720.8,2s16.79,15.31,28.79,15.31S765,2,778.11,2s18.66,15.31,29.32,15.31S822.09,2,836.21,2s18.39,15.31,27.72,15.31"/></svg>